<svg width="103" height="151" viewBox="0 0 103 151" fill="none" xmlns="http://www.w3.org/2000/svg">
<circle cx="72" cy="141.5" r="6" stroke="#14862A" stroke-width="6"/>
<path d="M89.4 45.5483L91.824 48.0543L89.7292 53.9015C89.4898 54.5511 88.8912 54.9533 88.2628 54.9533C88.0832 54.9533 87.9037 54.9224 87.7241 54.8605C86.9161 54.5511 86.4972 53.623 86.7964 52.7877L89.4 45.5483Z" fill="#0D0D0D"/>
<path d="M84.8814 39.1438L86.3178 36.2976C86.7069 35.5551 87.2755 34.9363 87.9638 34.5032C91.2855 32.4613 91.7045 32.4922 92.1234 32.5232L94.3679 32.6779C95.0562 32.7088 95.535 32.8944 97.8393 36.3904C97.929 36.5141 98.0487 36.6069 98.2283 36.6379L100.981 37.071C101.73 37.1947 102.238 37.9063 102.119 38.6797C101.999 39.4532 101.311 39.9791 100.563 39.8554L97.8093 39.4222C96.9116 39.2675 96.1036 38.7725 95.5948 37.9991C95.4751 37.8135 95.3854 37.6588 95.2656 37.5041L93.5 43.2894L95.9539 45.8263C96.3131 46.1975 96.6123 46.6925 96.7919 47.1875L98.6772 52.88C98.9764 53.7153 98.5276 54.6435 97.7196 54.9219C97.54 54.9838 97.3904 55.0147 97.2108 55.0147C96.5525 55.0147 95.9539 54.5816 95.7145 53.9319L93.8292 48.2394C93.7993 48.1775 93.7694 48.1466 93.7394 48.0847L89.3703 43.5369C88.7418 42.8872 88.5024 41.99 88.682 41.1238L89.6396 36.7307C89.5498 36.7926 89.4601 36.8544 89.3403 36.9163C89.071 37.071 88.8615 37.3185 88.7119 37.5969L87.2755 40.4432C87.0361 40.9072 86.5573 41.1857 86.0784 41.1857C85.869 41.1857 85.6595 41.1238 85.45 41.031C84.7916 40.6597 84.5522 39.8244 84.8814 39.1438Z" fill="#0D0D0D"/>
<path d="M96.7114 29.0411C96.892 27.3256 95.6932 25.7835 94.0337 25.5968C92.3743 25.4101 90.8827 26.6494 90.702 28.3649C90.5214 30.0805 91.7202 31.6226 93.3797 31.8093C95.0391 31.996 96.5308 30.7567 96.7114 29.0411Z" fill="#0D0D0D"/>
<path d="M70.8677 1.983C71.3618 0.994334 71.6088 0.5 72 0.5C72.3912 0.5 72.6382 0.994334 73.1323 1.983L80.6011 16.9292C80.8914 17.5102 81.0365 17.8007 80.9921 18.0157C80.9546 18.1973 80.8394 18.3533 80.677 18.4426C80.4847 18.5483 80.1645 18.4949 79.5242 18.3881C76.6904 17.9156 75.2735 17.6793 73.848 17.5866C72.6173 17.5065 71.3827 17.5065 70.152 17.5866C68.7265 17.6793 67.3096 17.9156 64.4758 18.3881C63.8355 18.4949 63.5153 18.5483 63.323 18.4426C63.1606 18.3533 63.0454 18.1973 63.0079 18.0157C62.9635 17.8007 63.1086 17.5102 63.3989 16.9292L70.8677 1.983Z" fill="#E70E0E"/>
<path d="M72 18.5L72 111.5" stroke="#E70E0E" stroke-width="4.5" stroke-linecap="square" stroke-linejoin="round" stroke-dasharray="12 12"/>
<path d="M18 57.5V57.5C40.4984 57.5 51.7476 57.5 59.6336 63.2295C62.1804 65.0799 64.4201 67.3196 66.2705 69.8664C72 77.7524 72 89.0016 72 111.5L72 132.5" stroke="#14862A" stroke-width="4.5" stroke-miterlimit="16" stroke-linecap="square"/>
<path d="M1.483 58.6323C0.494334 58.1382 0 57.8912 0 57.5C0 57.1088 0.494334 56.8618 1.483 56.3677L16.4292 48.8989C17.0102 48.6086 17.3007 48.4635 17.5157 48.5079C17.6973 48.5454 17.8533 48.6606 17.9426 48.823C18.0483 49.0153 17.9949 49.3355 17.8881 49.9758C17.4156 52.8096 17.1793 54.2265 17.0866 55.652C17.0065 56.8827 17.0065 58.1173 17.0866 59.348C17.1793 60.7735 17.4156 62.1904 17.8881 65.0242C17.9949 65.6645 18.0483 65.9847 17.9426 66.177C17.8533 66.3394 17.6973 66.4546 17.5157 66.4921C17.3007 66.5365 17.0102 66.3914 16.4292 66.1011L1.483 58.6323Z" fill="#14862A"/>
</svg>
