<svg width="102" height="150" viewBox="0 0 102 150" fill="none" xmlns="http://www.w3.org/2000/svg">
<path d="M10.5 112.5C19.5 112.5 31.0842 108.697 42 96C59.8134 75.2799 40.4506 33.0357 58.3469 16.5367C68.0699 7.57284 87 9.09838 87 9.09838" stroke="#E70E0E" stroke-width="4.5" stroke-dasharray="12 12"/>
<path d="M9 9L8.99999 132" stroke="#14862A" stroke-width="4.5" stroke-linecap="square"/>
<path d="M68.4 63.0483L70.824 65.5543L68.7292 71.4015C68.4898 72.0511 67.8912 72.4533 67.2628 72.4533C67.0832 72.4533 66.9037 72.4224 66.7241 72.3605C65.9161 72.0511 65.4972 71.123 65.7964 70.2877L68.4 63.0483Z" fill="#0D0D0D"/>
<path d="M63.8814 56.6438L65.3178 53.7976C65.7069 53.0551 66.2755 52.4363 66.9638 52.0032C70.2855 49.9613 70.7045 49.9922 71.1234 50.0232L73.3679 50.1779C74.0562 50.2088 74.535 50.3944 76.8393 53.8904C76.929 54.0141 77.0487 54.1069 77.2283 54.1379L79.9815 54.571C80.7296 54.6947 81.2384 55.4063 81.1187 56.1797C80.9989 56.9532 80.3107 57.4791 79.5625 57.3554L76.8093 56.9222C75.9116 56.7675 75.1036 56.2725 74.5948 55.4991C74.4751 55.3135 74.3854 55.1588 74.2656 55.0041L72.5 60.7894L74.9539 63.3263C75.3131 63.6975 75.6123 64.1925 75.7919 64.6875L77.6772 70.38C77.9764 71.2153 77.5276 72.1435 76.7196 72.4219C76.54 72.4838 76.3904 72.5147 76.2108 72.5147C75.5525 72.5147 74.9539 72.0816 74.7145 71.4319L72.8292 65.7394C72.7993 65.6775 72.7694 65.6466 72.7394 65.5847L68.3703 61.0369C67.7418 60.3872 67.5024 59.49 67.682 58.6238L68.6396 54.2307C68.5498 54.2926 68.4601 54.3544 68.3403 54.4163C68.071 54.571 67.8615 54.8185 67.7119 55.0969L66.2755 57.9432C66.0361 58.4072 65.5573 58.6857 65.0784 58.6857C64.869 58.6857 64.6595 58.6238 64.45 58.531C63.7916 58.1597 63.5522 57.3244 63.8814 56.6438Z" fill="#0D0D0D"/>
<path d="M75.7114 46.5411C75.892 44.8256 74.6932 43.2835 73.0337 43.0968C71.3743 42.9101 69.8827 44.1494 69.702 45.8649C69.5214 47.5805 70.7202 49.1226 72.3797 49.3093C74.0391 49.496 75.5308 48.2567 75.7114 46.5411Z" fill="#0D0D0D"/>
<path d="M7.86774 1.483C8.36179 0.494334 8.60881 -1.70993e-08 9 0C9.39118 1.70993e-08 9.63821 0.494334 10.1323 1.483L17.6011 16.4292C17.8914 17.0102 18.0365 17.3007 17.9921 17.5157C17.9546 17.6973 17.8394 17.8533 17.677 17.9426C17.4847 18.0483 17.1645 17.9949 16.5242 17.8881C13.6904 17.4156 12.2735 17.1793 10.848 17.0866C9.6173 17.0065 8.38269 17.0065 7.15198 17.0866C5.72651 17.1793 4.30961 17.4156 1.47583 17.8881C0.835506 17.9949 0.515345 18.0483 0.323018 17.9426C0.160563 17.8533 0.0453811 17.6973 0.007874 17.5157C-0.0365299 17.3007 0.108625 17.0102 0.398936 16.4292L7.86774 1.483Z" fill="#14862A"/>
<path d="M100.517 10.1323C101.506 9.63821 102 9.39118 102 9C102 8.60881 101.506 8.36179 100.517 7.86774L85.5708 0.398936C84.9898 0.108626 84.6993 -0.0365299 84.4843 0.00787399C84.3027 0.0453811 84.1467 0.160563 84.0574 0.323018C83.9517 0.515345 84.0051 0.835505 84.1119 1.47583C84.5844 4.30961 84.8207 5.72651 84.9134 7.15198C84.9935 8.38269 84.9935 9.6173 84.9134 10.848C84.8207 12.2735 84.5844 13.6904 84.1119 16.5242C84.0051 17.1645 83.9517 17.4847 84.0574 17.677C84.1467 17.8394 84.3027 17.9546 84.4843 17.9921C84.6993 18.0365 84.9898 17.8914 85.5708 17.6011L100.517 10.1323Z" fill="#E70E0E"/>
<circle cx="9" cy="141" r="6" stroke="#14862A" stroke-width="6"/>
</svg>
