<svg width="144" height="160" viewBox="0 0 144 160" fill="none" xmlns="http://www.w3.org/2000/svg">
<path d="M7.86774 119.017C8.36179 120.006 8.60881 120.5 9 120.5C9.39118 120.5 9.63821 120.006 10.1323 119.017L17.6011 104.071C17.8914 103.49 18.0365 103.199 17.9921 102.984C17.9546 102.803 17.8394 102.647 17.677 102.557C17.4847 102.452 17.1645 102.505 16.5242 102.612C13.6904 103.084 12.2735 103.321 10.848 103.413C9.6173 103.494 8.38269 103.494 7.15198 103.413C5.72651 103.321 4.30961 103.084 1.47583 102.612C0.835506 102.505 0.515345 102.452 0.323019 102.557C0.160564 102.647 0.0453812 102.803 0.00787401 102.984C-0.0365299 103.199 0.108625 103.49 0.398936 104.071L7.86774 119.017Z" fill="#14862A"/>
<path d="M9 36.5L9 102.5" stroke="#14862A" stroke-width="4.5" stroke-linecap="square"/>
<g clip-path="url(#clip0_1435_4306)">
<path d="M9.00001 42.5C9.00001 40.184 9.00001 37.6417 9 35.0001C9 33.6073 9 32.9109 9.02313 32.3222C9.63777 16.6786 22.1786 4.13778 37.8222 3.52314C38.4109 3.50001 39.1073 3.50001 40.5 3.50001V3.50001C41.8928 3.50001 42.5891 3.50001 43.1778 3.52314C58.8214 4.13778 71.3622 16.6786 71.9769 32.3222C72 32.9109 72 33.6073 72 35L72 42.5" stroke="#14862A" stroke-width="4.5" stroke-miterlimit="16" stroke-linecap="square"/>
</g>
<path d="M72 36.5L72 132.5" stroke="#E70E0E" stroke-width="4.5" stroke-linecap="square" stroke-linejoin="round" stroke-dasharray="12 12"/>
<path d="M89.4 96.5483L91.824 99.0543L89.7292 104.901C89.4898 105.551 88.8912 105.953 88.2628 105.953C88.0832 105.953 87.9037 105.922 87.7241 105.861C86.9161 105.551 86.4972 104.623 86.7964 103.788L89.4 96.5483Z" fill="#0D0D0D"/>
<path d="M84.8814 90.1438L86.3178 87.2976C86.7069 86.5551 87.2755 85.9363 87.9638 85.5032C91.2855 83.4613 91.7045 83.4922 92.1234 83.5232L94.3679 83.6779C95.0562 83.7088 95.535 83.8944 97.8393 87.3904C97.929 87.5141 98.0487 87.6069 98.2283 87.6379L100.981 88.071C101.73 88.1947 102.238 88.9063 102.119 89.6797C101.999 90.4532 101.311 90.9791 100.563 90.8554L97.8093 90.4222C96.9116 90.2675 96.1036 89.7725 95.5948 88.9991C95.4751 88.8135 95.3854 88.6588 95.2656 88.5041L93.5 94.2894L95.9539 96.8263C96.3131 97.1975 96.6123 97.6925 96.7919 98.1875L98.6772 103.88C98.9764 104.715 98.5276 105.643 97.7196 105.922C97.54 105.984 97.3904 106.015 97.2108 106.015C96.5525 106.015 95.9539 105.582 95.7145 104.932L93.8292 99.2394C93.7993 99.1775 93.7694 99.1466 93.7394 99.0847L89.3703 94.5369C88.7418 93.8872 88.5024 92.99 88.682 92.1238L89.6396 87.7307C89.5498 87.7926 89.4601 87.8544 89.3403 87.9163C89.071 88.071 88.8615 88.3185 88.7119 88.5969L87.2755 91.4432C87.0361 91.9072 86.5573 92.1857 86.0784 92.1857C85.869 92.1857 85.6595 92.1238 85.45 92.031C84.7916 91.6597 84.5522 90.8244 84.8814 90.1438Z" fill="#0D0D0D"/>
<path d="M96.7114 80.0411C96.892 78.3256 95.6932 76.7835 94.0337 76.5968C92.3743 76.4101 90.8827 77.6494 90.702 79.3649C90.5214 81.0805 91.7202 82.6226 93.3797 82.8093C95.0391 82.996 96.5308 81.7567 96.7114 80.0411Z" fill="#0D0D0D"/>
<circle cx="72" cy="141.5" r="6" stroke="#E70E0E" stroke-width="6"/>
<defs>
<clipPath id="clip0_1435_4306">
<rect width="39" height="69" fill="white" transform="translate(6 39.5) rotate(-90)"/>
</clipPath>
</defs>
</svg>
