<svg width="144" height="151" viewBox="0 0 144 151" fill="none" xmlns="http://www.w3.org/2000/svg">
<path d="M71.9997 52.9994C70.4912 19.511 79.4996 8 126 9.49898" stroke="#E70E0E" stroke-width="4.5" stroke-linecap="round" stroke-dasharray="12 12"/>
<path d="M142.517 8.36774C143.506 8.86179 144 9.10882 144 9.5C144 9.89119 143.506 10.1382 142.517 10.6323L127.571 18.1011C126.99 18.3914 126.699 18.5365 126.484 18.4921C126.303 18.4546 126.147 18.3394 126.057 18.177C125.952 17.9847 126.005 17.6645 126.112 17.0242C126.584 14.1904 126.821 12.7735 126.913 11.348C126.994 10.1173 126.994 8.8827 126.913 7.65199C126.821 6.22651 126.584 4.80962 126.112 1.97583C126.005 1.33551 125.952 1.01535 126.057 0.823021C126.147 0.660566 126.303 0.545383 126.484 0.507877C126.699 0.463472 126.99 0.608627 127.571 0.898939L142.517 8.36774Z" fill="#E70E0E"/>
<path d="M1.483 10.6323C0.494334 10.1382 0 9.89118 0 9.5C0 9.10881 0.494334 8.86179 1.483 8.36774L16.4292 0.898936C17.0102 0.608626 17.3007 0.46347 17.5157 0.507874C17.6973 0.545381 17.8533 0.660563 17.9426 0.823018C18.0483 1.01535 17.9949 1.3355 17.8881 1.97583C17.4156 4.80961 17.1793 6.22651 17.0866 7.65198C17.0065 8.88269 17.0065 10.1173 17.0866 11.348C17.1793 12.7735 17.4156 14.1904 17.8881 17.0242C17.9949 17.6645 18.0483 17.9847 17.9426 18.177C17.8533 18.3394 17.6973 18.4546 17.5157 18.4921C17.3007 18.5365 17.0102 18.3914 16.4292 18.1011L1.483 10.6323Z" fill="#14862A"/>
<path d="M104.4 39.5483L106.824 42.0543L104.729 47.9015C104.49 48.5511 103.891 48.9533 103.263 48.9533C103.083 48.9533 102.904 48.9224 102.724 48.8605C101.916 48.5511 101.497 47.623 101.796 46.7877L104.4 39.5483Z" fill="#0D0D0D"/>
<path d="M99.8814 33.1438L101.318 30.2976C101.707 29.5551 102.275 28.9363 102.964 28.5032C106.286 26.4613 106.704 26.4922 107.123 26.5232L109.368 26.6779C110.056 26.7088 110.535 26.8944 112.839 30.3904C112.929 30.5141 113.049 30.6069 113.228 30.6379L115.981 31.071C116.73 31.1947 117.238 31.9063 117.119 32.6797C116.999 33.4532 116.311 33.9791 115.563 33.8554L112.809 33.4222C111.912 33.2675 111.104 32.7725 110.595 31.9991C110.475 31.8135 110.385 31.6588 110.266 31.5041L108.5 37.2894L110.954 39.8263C111.313 40.1975 111.612 40.6925 111.792 41.1875L113.677 46.88C113.976 47.7153 113.528 48.6435 112.72 48.9219C112.54 48.9838 112.39 49.0147 112.211 49.0147C111.552 49.0147 110.954 48.5816 110.715 47.9319L108.829 42.2394C108.799 42.1775 108.769 42.1466 108.739 42.0847L104.37 37.5369C103.742 36.8872 103.502 35.99 103.682 35.1238L104.64 30.7307C104.55 30.7926 104.46 30.8544 104.34 30.9163C104.071 31.071 103.862 31.3185 103.712 31.5969L102.275 34.4432C102.036 34.9072 101.557 35.1857 101.078 35.1857C100.869 35.1857 100.659 35.1238 100.45 35.031C99.7916 34.6597 99.5522 33.8244 99.8814 33.1438Z" fill="#0D0D0D"/>
<path d="M111.711 23.0411C111.892 21.3256 110.693 19.7835 109.034 19.5968C107.374 19.4101 105.883 20.6494 105.702 22.3649C105.521 24.0805 106.72 25.6226 108.38 25.8093C110.039 25.996 111.531 24.7567 111.711 23.0411Z" fill="#0D0D0D"/>
<circle cx="72" cy="141.5" r="6" stroke="#14862A" stroke-width="6"/>
<path d="M17.25 9.50001V9.50001C40.4662 9.49998 52.0743 9.49997 60.1068 15.5804C62.3019 17.2421 64.2579 19.1981 65.9196 21.3932C72 29.4257 72 41.0338 72 64.2501L72 132.5" stroke="#14862A" stroke-width="4.5" stroke-miterlimit="16" stroke-linecap="square"/>
</svg>
