<svg width="136" height="143" viewBox="0 0 136 143" fill="none" xmlns="http://www.w3.org/2000/svg">
<path d="M57.4611 9.55202L64.1573 2.30228C66.9927 -0.767427 71.5775 -0.767427 74.3827 2.30228L133.02 65.7538C135.855 68.8235 135.855 73.7873 133.02 76.8244L74.3827 140.309C71.5473 143.378 66.9625 143.378 64.1573 140.309L57.4611 133.059C54.5956 129.956 54.6559 124.895 57.5817 121.858L93.9285 84.368L7.23919 84.368C3.22747 84.368 -4.77287e-07 80.8738 -4.51654e-07 76.5305L-3.89982e-07 66.0804C-3.64349e-07 61.7371 3.22747 58.2428 7.23919 58.2428L93.9285 58.2428L57.5817 20.7532C54.6257 17.7161 54.5654 12.6544 57.4611 9.55202Z" fill="#8BFF78" fill-opacity="0.7"/>
</svg>
