<svg width="190" height="180" viewBox="0 0 190 180" fill="none" xmlns="http://www.w3.org/2000/svg">
<path d="M133.632 0H113.461C81.1395 0 54.9381 26.2015 54.9381 58.5233V134.127L17.766 96.9554C16.9059 96.0954 15.5059 96.0954 14.6558 96.9554L0.645036 110.966C-0.215012 111.826 -0.215012 113.226 0.645036 114.076L51.7179 165.149C51.7679 165.219 51.8279 165.289 51.8879 165.349L65.8987 179.36C66.3287 179.79 66.8987 180 67.4688 180C68.0388 180 68.6088 179.79 69.0388 179.36L83.0496 165.349C83.1096 165.289 83.1696 165.219 83.2196 165.149L134.292 114.076C135.153 113.216 135.153 111.816 134.292 110.966L120.282 96.9554C119.422 96.0954 118.022 96.0954 117.172 96.9554L79.9994 134.127V57.2032C79.9994 38.5121 95.2903 23.2213 113.981 23.2213H130.162C149.333 23.2213 165.014 38.9022 165.014 58.0732V175.42C165.014 177.19 166.444 178.62 168.214 178.62H186.485C188.255 178.62 189.696 177.18 189.696 175.41V56.0631C189.696 25.1014 164.594 0.0100008 133.642 0.0100008L133.632 0Z" fill="#FE0B0B" fill-opacity="0.8"/>
</svg>
