<?xml version="1.0" encoding="UTF-8" standalone="no"?>
<!DOCTYPE svg PUBLIC "-//W3C//DTD SVG 1.1//EN" "http://www.w3.org/Graphics/SVG/1.1/DTD/svg11.dtd">
<svg width="100%" height="100%" viewBox="0 0 269 81" version="1.1" xmlns="http://www.w3.org/2000/svg" xmlns:xlink="http://www.w3.org/1999/xlink" xml:space="preserve" xmlns:serif="http://www.serif.com/" style="fill-rule:evenodd;clip-rule:evenodd;">
    <path d="M267.348,40.517C267.348,19.268 250.096,2.017 228.848,2.017L40.848,2.017C19.599,2.017 2.348,19.268 2.348,40.517C2.348,61.766 19.599,79.017 40.848,79.017L228.848,79.017C250.096,79.017 267.348,61.766 267.348,40.517Z" style="fill:white;"/>
    <path d="M267.348,40.517C267.348,19.268 250.096,2.017 228.848,2.017L40.848,2.017C19.599,2.017 2.348,19.268 2.348,40.517C2.348,61.766 19.599,79.017 40.848,79.017L228.848,79.017C250.096,79.017 267.348,61.766 267.348,40.517Z" style="fill:none;stroke:rgb(57,97,229);stroke-width:3px;"/>
</svg>
