<svg id="Icon-Crop" xmlns="http://www.w3.org/2000/svg" width="28.742" height="28.742" viewBox="0 0 28.742 28.742">
  <path id="Icon-Crop-2" data-name="Icon-Crop" d="M27.395,19.76H25.149V5.389a1.8,1.8,0,0,0-1.8-1.8H10.778V8.982H19.76V27.395a1.348,1.348,0,0,0,1.347,1.347H23.8a1.348,1.348,0,0,0,1.347-1.347V25.149h2.245A1.348,1.348,0,0,0,28.742,23.8V21.107A1.347,1.347,0,0,0,27.395,19.76ZM8.982,1.347A1.347,1.347,0,0,0,7.635,0H4.94A1.347,1.347,0,0,0,3.593,1.347V3.593H1.347A1.347,1.347,0,0,0,0,4.94V7.635A1.348,1.348,0,0,0,1.347,8.982H3.593V23.353a1.8,1.8,0,0,0,1.8,1.8H17.964V19.76H8.982Z" fill="#0b0b09"/>
</svg>
