<svg id="Icon-Checked" xmlns="http://www.w3.org/2000/svg" width="90.5" height="90.5" viewBox="0 0 90.5 90.5">
  <path id="FontAwsome_check-circle_" data-name="FontAwsome (check-circle)" d="M98.5,53.25A45.25,45.25,0,1,1,53.25,8,45.25,45.25,0,0,1,98.5,53.25ZM48.016,77.21,81.589,43.637a2.919,2.919,0,0,0,0-4.129L77.46,35.38a2.919,2.919,0,0,0-4.129,0l-27.38,27.38L33.169,49.976a2.92,2.92,0,0,0-4.129,0l-4.129,4.129a2.919,2.919,0,0,0,0,4.129L43.887,77.209a2.919,2.919,0,0,0,4.129,0Z" transform="translate(-8 -8)" fill="#0b0b09"/>
</svg>
