<svg xmlns="http://www.w3.org/2000/svg" width="48.258" height="50" viewBox="0 0 48.258 50">
  <path id="Icon_ionic-md-flower" data-name="Icon ionic-md-flower" d="M55.367,34.375a8.878,8.878,0,0,0,5.391-8.041,9.192,9.192,0,0,0-9.425-8.93,9.769,9.769,0,0,0-5.354,1.575l.075-.673a9.192,9.192,0,0,0-9.425-8.93,9.192,9.192,0,0,0-9.425,8.93l.075.673A9.676,9.676,0,0,0,21.925,17.4a9.192,9.192,0,0,0-9.425,8.93,8.891,8.891,0,0,0,5.391,8.041A8.878,8.878,0,0,0,12.5,42.416a9.192,9.192,0,0,0,9.425,8.93,9.769,9.769,0,0,0,5.354-1.575l-.075.673a9.192,9.192,0,0,0,9.425,8.93,9.192,9.192,0,0,0,9.425-8.93l-.075-.673a9.676,9.676,0,0,0,5.354,1.575,9.192,9.192,0,0,0,9.425-8.93A8.878,8.878,0,0,0,55.367,34.375Zm-18.738,8.93a9.192,9.192,0,0,1-9.425-8.93,9.192,9.192,0,0,1,9.425-8.93,9.192,9.192,0,0,1,9.425,8.93A9.192,9.192,0,0,1,36.629,43.305Z" transform="translate(-12.5 -9.375)"/>
</svg>
