<svg xmlns="http://www.w3.org/2000/svg" width="60.717" height="47.619" viewBox="0 0 60.717 47.619">
  <g id="Icon-House" transform="translate(0.501 0.683)">
    <path id="Icon-House-2" data-name="Icon-House" d="M29.05,44.1,9.938,59.838V76.827A1.659,1.659,0,0,0,11.6,78.486l11.617-.03a1.659,1.659,0,0,0,1.65-1.659V66.876a1.659,1.659,0,0,1,1.659-1.659h6.634a1.659,1.659,0,0,1,1.659,1.659V76.79a1.659,1.659,0,0,0,1.659,1.664l11.612.032a1.659,1.659,0,0,0,1.659-1.659v-17L30.636,44.1a1.264,1.264,0,0,0-1.586,0ZM59.24,54.8l-8.666-7.143V33.294A1.244,1.244,0,0,0,49.33,32.05H43.525a1.244,1.244,0,0,0-1.244,1.244v7.527L33,33.185a4.976,4.976,0,0,0-6.323,0L.436,54.8A1.244,1.244,0,0,0,.27,56.548l2.643,3.214a1.244,1.244,0,0,0,1.753.169L29.05,39.847a1.264,1.264,0,0,1,1.586,0L55.021,59.93a1.244,1.244,0,0,0,1.752-.166l2.643-3.214A1.244,1.244,0,0,0,59.24,54.8Z" transform="translate(0.015 -32.05)" fill="#0b0b09" stroke="#707070" stroke-width="1"/>
  </g>
</svg>
