<svg xmlns="http://www.w3.org/2000/svg" width="46.705" height="50" viewBox="0 0 46.705 50">
  <path id="Icon_awesome-bus" data-name="Icon awesome-bus" d="M44.516,12.5h-.73V7.813C43.786,3.438,34.737,0,23.353,0S2.919,3.438,2.919,7.813V12.5h-.73A2.27,2.27,0,0,0,0,14.844v7.812A2.271,2.271,0,0,0,2.189,25h.73V40.625A3.028,3.028,0,0,0,5.838,43.75v3.125A3.028,3.028,0,0,0,8.757,50h2.919A3.028,3.028,0,0,0,14.6,46.875V43.75H32.11v3.125A3.028,3.028,0,0,0,35.029,50h2.919a3.028,3.028,0,0,0,2.919-3.125V43.75h.584a2.391,2.391,0,0,0,2.335-2.5V25h.73a2.271,2.271,0,0,0,2.189-2.344V14.844A2.27,2.27,0,0,0,44.516,12.5Zm-34.3,26.562a3.132,3.132,0,0,1,0-6.25,3.132,3.132,0,0,1,0,6.25Zm1.46-10.937A3.028,3.028,0,0,1,8.757,25V12.5a3.028,3.028,0,0,1,2.919-3.125H35.029A3.028,3.028,0,0,1,37.948,12.5V25a3.028,3.028,0,0,1-2.919,3.125ZM36.488,39.063a3.132,3.132,0,1,1,2.919-3.125A3.028,3.028,0,0,1,36.488,39.063Z"/>
</svg>
