<svg id="Icon-Autocorrect" xmlns="http://www.w3.org/2000/svg" width="27" height="26.999" viewBox="0 0 27 26.999">
  <path id="Icon-Autocorrect-2" data-name="Icon-Autocorrect" d="M11.813,5.062l.844-1.687,1.688-.844-1.687-.844L11.813,0l-.844,1.687-1.688.844,1.688.844ZM4.219,8.438,5.625,5.625,8.438,4.219,5.625,2.812,4.219,0,2.813,2.812,0,4.219,2.813,5.625Zm18.563,6.75L21.375,18l-2.813,1.406,2.813,1.406,1.406,2.812,1.406-2.812L27,19.406,24.187,18ZM26.505,4.969,22.031.495a1.686,1.686,0,0,0-2.386,0L.495,19.645a1.687,1.687,0,0,0,0,2.386l4.475,4.475a1.688,1.688,0,0,0,2.386,0l19.15-19.15A1.686,1.686,0,0,0,26.505,4.969Zm-7.55,5.76L16.271,8.045l4.567-4.567,2.685,2.685-4.567,4.567Z" fill="#0b0b09"/>
</svg>
