<svg id="Icon-Sound-Off" xmlns="http://www.w3.org/2000/svg" width="70.668" height="53" viewBox="0 0 70.668 53">
  <path id="Icon-Sound-Off-2" data-name="Icon-Sound-Off" d="M29.679,5.473,17.4,17.75H3.313A3.312,3.312,0,0,0,0,21.062V40.938A3.313,3.313,0,0,0,3.313,44.25H17.4l12.28,12.277a3.314,3.314,0,0,0,5.655-2.342V7.815A3.315,3.315,0,0,0,29.679,5.473ZM63.717,31l6.3-6.3a2.228,2.228,0,0,0,0-3.15l-3.15-3.15a2.228,2.228,0,0,0-3.15,0l-6.3,6.3-6.3-6.3a2.228,2.228,0,0,0-3.15,0l-3.15,3.15a2.228,2.228,0,0,0,0,3.15l6.3,6.3-6.3,6.3a2.228,2.228,0,0,0,0,3.15l3.15,3.15a2.228,2.228,0,0,0,3.15,0l6.3-6.3,6.3,6.3a2.228,2.228,0,0,0,3.15,0l3.15-3.15a2.228,2.228,0,0,0,0-3.15Z" transform="translate(0 -4.5)" fill="#0b0b09"/>
</svg>
