<svg id="Icon-Loading" xmlns="http://www.w3.org/2000/svg" width="147.107" height="147.16" viewBox="0 0 147.107 147.16">
  <path id="Pfad_28" data-name="Pfad 28" d="M15.671,1.1h7.885a2.615,2.615,0,0,1,2.611,2.611v37.3a2.615,2.615,0,0,1-2.611,2.611H15.671a2.615,2.615,0,0,1-2.611-2.611V3.711A2.615,2.615,0,0,1,15.671,1.1Z" transform="translate(52.314 -1.1)" fill="#4b6be0" opacity="0.65"/>
  <path id="Pfad_29" data-name="Pfad 29" d="M15.671,20.74h7.885a2.615,2.615,0,0,1,2.611,2.611v37.3a2.615,2.615,0,0,1-2.611,2.611H15.671a2.615,2.615,0,0,1-2.611-2.611v-37.3A2.615,2.615,0,0,1,15.671,20.74Z" transform="translate(52.314 83.902)" fill="#4b6be0" opacity="0.15"/>
  <path id="Pfad_30" data-name="Pfad 30" d="M35.3,18.957,41.7,25.35a2.6,2.6,0,0,1,0,3.676l-26.64,26.64a2.6,2.6,0,0,1-3.676,0L4.987,49.273a2.6,2.6,0,0,1,0-3.676l26.64-26.64A2.6,2.6,0,0,1,35.3,18.957Z" transform="translate(14.088 72.899)" fill="#4b6be0" opacity="0.2"/>
  <path id="Pfad_31" data-name="Pfad 31" d="M41.167,35.883l-6.394,6.394a2.6,2.6,0,0,1-3.676,0L4.457,15.637a2.6,2.6,0,0,1,0-3.676L10.85,5.567a2.6,2.6,0,0,1,3.676,0l26.64,26.64A2.6,2.6,0,0,1,41.167,35.883Z" transform="translate(11.794 14.946)" fill="#4b6be0" opacity="0.45"/>
  <path id="Pfad_32" data-name="Pfad 32" d="M40.442,34.088l-6.394,6.394a2.6,2.6,0,0,1-3.676,0L18.917,29.027a2.6,2.6,0,0,1,0-3.676l6.394-6.394a2.6,2.6,0,0,1,3.676,0L40.442,30.412A2.6,2.6,0,0,1,40.442,34.088Z" transform="translate(74.377 72.899)" fill="#4b6be0" opacity="0.05"/>
  <path id="Pfad_33" data-name="Pfad 33" d="M25.31,42.277l-6.394-6.394a2.6,2.6,0,0,1,0-3.676l26.64-26.64a2.6,2.6,0,0,1,3.676,0l6.394,6.394a2.6,2.6,0,0,1,0,3.676l-26.64,26.64A2.6,2.6,0,0,1,25.31,42.277Z" transform="translate(74.377 14.946)" fill="#4b6be0" opacity="0.85"/>
  <path id="Pfad_34" data-name="Pfad 34" d="M20.42,24.476V16.591a2.615,2.615,0,0,1,2.611-2.611h37.3a2.615,2.615,0,0,1,2.611,2.611v7.885a2.615,2.615,0,0,1-2.611,2.611h-37.3A2.615,2.615,0,0,1,20.42,24.476Z" transform="translate(84.169 54.645)" fill="#4b6be0"/>
  <path id="Pfad_35" data-name="Pfad 35" d="M.79,24.476V16.591A2.615,2.615,0,0,1,3.4,13.98H40.7a2.615,2.615,0,0,1,2.611,2.611v7.885A2.615,2.615,0,0,1,40.7,27.087H3.4A2.615,2.615,0,0,1,.79,24.476Z" transform="translate(-0.79 54.645)" fill="#4b6be0" opacity="0.3"/>
</svg>
