<svg xmlns="http://www.w3.org/2000/svg" width="59.141" height="50" viewBox="0 0 59.141 50">
  <path id="Icon_awesome-shopping-cart" data-name="Icon awesome-shopping-cart" d="M54.225,29.426,59.079,9.113a2.376,2.376,0,0,0-2.4-2.863H16.347l-.941-4.376A2.437,2.437,0,0,0,12.991,0H2.464A2.406,2.406,0,0,0,0,2.344V3.906A2.406,2.406,0,0,0,2.464,6.25H9.639l7.213,33.539a5.425,5.425,0,0,0-2.888,4.743A5.615,5.615,0,0,0,19.714,50a5.615,5.615,0,0,0,5.75-5.469,5.324,5.324,0,0,0-1.727-3.906H45.262a5.325,5.325,0,0,0-1.727,3.906,5.757,5.757,0,0,0,11.5,0,5.454,5.454,0,0,0-3.242-4.922l.566-2.371a2.376,2.376,0,0,0-2.4-2.863H22.4l-.672-3.125h30.1A2.441,2.441,0,0,0,54.225,29.426Z"/>
</svg>
