<svg xmlns="http://www.w3.org/2000/svg" width="37.498" height="50" viewBox="0 0 37.498 50">
  <path id="Icon_awesome-tree" data-name="Icon awesome-tree" d="M36.944,36.96l-7.8-8.837h2.991a2.219,2.219,0,0,0,2.029-1.275,2.153,2.153,0,0,0-.32-2.349l-7.63-8.876h2.821a2.213,2.213,0,0,0,2.037-1.329,2.173,2.173,0,0,0-.414-2.351L19.888.471a1.608,1.608,0,0,0-2.277,0L6.842,11.943a2.175,2.175,0,0,0-.414,2.351,2.214,2.214,0,0,0,2.038,1.329h2.821L3.657,24.5a2.156,2.156,0,0,0-.319,2.348,2.219,2.219,0,0,0,2.029,1.274H8.358L.556,36.96a2.159,2.159,0,0,0-.348,2.369A2.265,2.265,0,0,0,2.26,40.623H15.625V43.01l-2.958,4.726A1.563,1.563,0,0,0,14.064,50h9.371a1.563,1.563,0,0,0,1.4-2.262L21.875,43.01V40.623H35.239a2.265,2.265,0,0,0,2.052-1.294A2.159,2.159,0,0,0,36.944,36.96Z" transform="translate(-0.001 0.001)"/>
</svg>
