<svg id="Icon-Done" xmlns="http://www.w3.org/2000/svg" width="209.253" height="156.349" viewBox="0 0 209.253 156.349">
  <g id="Gruppe_109" data-name="Gruppe 109">
    <path id="Pfad_36" data-name="Pfad 36" d="M235.956,67.736a3.354,3.354,0,0,0,.251-4.726L215.824,40.344a3.354,3.354,0,0,0-4.726-.251L98.485,141.372a3.354,3.354,0,0,1-4.726-.251L56.306,99.477a3.354,3.354,0,0,0-4.726-.251L28.914,119.609a3.354,3.354,0,0,0-.251,4.726l62.211,69.179c1.23,1.372,2.467,2.283,2.743,2.032s.527-.435.552-.4,1.163-.953,2.534-2.183Z" transform="translate(-27.808 -39.238)" fill="#0b0b09"/>
  </g>
</svg>
