<svg id="Icon-Tablet" xmlns="http://www.w3.org/2000/svg" width="98.469" height="112.536" viewBox="0 0 98.469 112.536">
  <path id="Icon-Tablet-2" data-name="Icon-Tablet" d="M87.919,0H10.55A10.553,10.553,0,0,0,0,10.55v91.435a10.553,10.553,0,0,0,10.55,10.55H87.919a10.553,10.553,0,0,0,10.55-10.55V10.55A10.553,10.553,0,0,0,87.919,0ZM49.234,105.5a7.033,7.033,0,1,1,7.033-7.033A7.026,7.026,0,0,1,49.234,105.5ZM87.919,81.764A2.645,2.645,0,0,1,85.281,84.4H13.188a2.645,2.645,0,0,1-2.638-2.638V13.188a2.645,2.645,0,0,1,2.638-2.638H85.281a2.645,2.645,0,0,1,2.638,2.638Z" fill="#0b0b09"/>
</svg>
