<svg xmlns="http://www.w3.org/2000/svg" width="83.333" height="50" viewBox="0 0 83.333 50">
  <path id="Icon_awesome-couch" data-name="Icon awesome-couch" d="M20.833,33.333v8.333H62.5V33.333A8.341,8.341,0,0,1,70.833,25H75A12.5,12.5,0,0,0,62.5,12.5H20.833A12.5,12.5,0,0,0,8.333,25H12.5A8.341,8.341,0,0,1,20.833,33.333ZM75,29.167H70.833a4.162,4.162,0,0,0-4.167,4.167v12.5h-50v-12.5A4.162,4.162,0,0,0,12.5,29.167H8.333A8.306,8.306,0,0,0,4.167,44.674V60.417A2.089,2.089,0,0,0,6.25,62.5h8.333a2.089,2.089,0,0,0,2.083-2.083V58.333h50v2.083A2.089,2.089,0,0,0,68.75,62.5h8.333a2.089,2.089,0,0,0,2.083-2.083V44.674A8.306,8.306,0,0,0,75,29.167Z" transform="translate(0 -12.5)"/>
</svg>
