<svg width="376" height="37" viewBox="0 0 376 37" fill="none" xmlns="http://www.w3.org/2000/svg">
<g clip-path="url(#clip0_636_1905)">
<path d="M372.105 0.25H342.895C340.744 0.25 339 1.97328 339 4.09906C339 6.22483 340.744 7.94811 342.895 7.94811H372.105C374.256 7.94811 376 6.22483 376 4.09906C376 1.97328 374.256 0.25 372.105 0.25Z" fill="#2C3D75"/>
<path d="M372.105 26.5518H342.895C340.744 26.5518 339 28.275 339 30.4008C339 32.5266 340.744 34.2499 342.895 34.2499H372.105C374.256 34.2499 376 32.5266 376 30.4008C376 28.275 374.256 26.5518 372.105 26.5518Z" fill="#2C3D75"/>
<path d="M372.105 13.7217H342.895C340.744 13.7217 339 15.445 339 17.5707C339 19.6965 340.744 21.4198 342.895 21.4198H372.105C374.256 21.4198 376 19.6965 376 17.5707C376 15.445 374.256 13.7217 372.105 13.7217Z" fill="#2C3D75"/>
</g>
<path d="M259.026 27.25L253.887 12.3452H253.777C253.801 12.6789 253.83 13.1346 253.862 13.7124C253.895 14.2902 253.923 14.9087 253.948 15.5679C253.972 16.2271 253.984 16.8577 253.984 17.46V27.25H251.323V9.40332H255.437L260.381 23.6489H260.454L265.569 9.40332H269.67V27.25H266.875V17.3135C266.875 16.7682 266.883 16.1782 266.899 15.5435C266.924 14.9087 266.948 14.3065 266.973 13.7368C267.005 13.1672 267.03 12.7114 267.046 12.3696H266.948L261.614 27.25H259.026ZM279.46 13.4805C280.665 13.4805 281.698 13.7287 282.561 14.2251C283.424 14.7215 284.087 15.4255 284.551 16.3369C285.015 17.2484 285.247 18.3389 285.247 19.6084V21.1465H276.226C276.258 22.4567 276.608 23.4658 277.275 24.1738C277.951 24.8818 278.895 25.2358 280.107 25.2358C280.97 25.2358 281.743 25.1545 282.427 24.9917C283.118 24.8208 283.831 24.5726 284.563 24.2471V26.5786C283.888 26.896 283.2 27.1279 282.5 27.2744C281.8 27.4209 280.962 27.4941 279.985 27.4941C278.659 27.4941 277.491 27.2378 276.482 26.7251C275.481 26.2043 274.696 25.4312 274.126 24.4058C273.564 23.3804 273.284 22.1068 273.284 20.585C273.284 19.0713 273.54 17.7855 274.053 16.7275C274.565 15.6696 275.286 14.8639 276.213 14.3105C277.141 13.7572 278.223 13.4805 279.46 13.4805ZM279.46 15.6411C278.557 15.6411 277.825 15.9341 277.263 16.52C276.71 17.106 276.384 17.9645 276.287 19.0957H282.439C282.431 18.4202 282.317 17.8221 282.097 17.3013C281.886 16.7804 281.56 16.3735 281.121 16.0806C280.689 15.7876 280.136 15.6411 279.46 15.6411ZM295.525 13.4805C297.047 13.4805 298.231 13.8752 299.077 14.6646C299.932 15.4458 300.359 16.7031 300.359 18.4365V27.25H297.49V18.9736C297.49 17.9238 297.275 17.1385 296.843 16.6177C296.412 16.0887 295.745 15.8242 294.841 15.8242C293.531 15.8242 292.62 16.2271 292.107 17.0327C291.602 17.8384 291.35 19.0062 291.35 20.5361V27.25H288.481V13.7368H290.715L291.118 15.5679H291.277C291.57 15.0959 291.932 14.7093 292.363 14.4082C292.803 14.099 293.291 13.867 293.828 13.7124C294.373 13.5578 294.939 13.4805 295.525 13.4805ZM316.155 13.7368V27.25H313.896L313.506 25.4312H313.347C313.062 25.895 312.7 26.2816 312.261 26.5908C311.821 26.8919 311.333 27.1157 310.796 27.2622C310.259 27.4168 309.693 27.4941 309.099 27.4941C308.082 27.4941 307.211 27.3232 306.487 26.9814C305.771 26.6315 305.221 26.0944 304.839 25.3701C304.456 24.6458 304.265 23.71 304.265 22.5625V13.7368H307.146V22.0254C307.146 23.0752 307.358 23.8605 307.781 24.3813C308.212 24.9022 308.879 25.1626 309.783 25.1626C310.653 25.1626 311.345 24.9836 311.858 24.6255C312.371 24.2674 312.733 23.7384 312.944 23.0386C313.164 22.3387 313.274 21.4801 313.274 20.4629V13.7368H316.155Z" fill="#2C3D75" fill-opacity="0.8"/>
<g clip-path="url(#clip1_636_1905)">
<path d="M168.384 16.6559C167.449 12.0559 163.283 8.60254 158.278 8.60254C154.304 8.60254 150.853 10.7892 149.134 13.9892C144.995 14.4159 141.778 17.8159 141.778 21.9359C141.778 26.3492 145.476 29.9359 150.028 29.9359H167.903C171.698 29.9359 174.778 26.9492 174.778 23.2692C174.778 19.7492 171.959 16.8959 168.384 16.6559ZM155.528 25.9359L150.715 21.2692L152.654 19.3892L155.528 22.1625L162.65 15.2692L164.589 17.1492L155.528 25.9359Z" fill="#283356"/>
</g>
<path d="M13.8486 29.5L12.103 24.5439H5.2793L3.53369 29.5H0.445312L7.08594 11.5801H10.333L16.9614 29.5H13.8486ZM11.3462 22.0293L9.64941 17.1465C9.58431 16.9349 9.49072 16.6379 9.36865 16.2554C9.24658 15.8647 9.12451 15.4701 9.00244 15.0713C8.88037 14.6644 8.77865 14.3226 8.69727 14.0459C8.61589 14.3796 8.51416 14.7539 8.39209 15.1689C8.27816 15.5758 8.16423 15.9583 8.05029 16.3164C7.9445 16.6745 7.86312 16.9512 7.80615 17.1465L6.09717 22.0293H11.3462ZM30.8042 15.9868V29.5H28.5459L28.1553 27.6812H27.9966C27.7118 28.145 27.3496 28.5316 26.9102 28.8408C26.4707 29.1419 25.9824 29.3657 25.4453 29.5122C24.9082 29.6668 24.3426 29.7441 23.7485 29.7441C22.7313 29.7441 21.8605 29.5732 21.1362 29.2314C20.4201 28.8815 19.8708 28.3444 19.4883 27.6201C19.1058 26.8958 18.9146 25.96 18.9146 24.8125V15.9868H21.7954V24.2754C21.7954 25.3252 22.007 26.1105 22.4302 26.6313C22.8615 27.1522 23.5288 27.4126 24.4321 27.4126C25.3029 27.4126 25.9946 27.2336 26.5073 26.8755C27.02 26.5174 27.3822 25.9884 27.5938 25.2886C27.8135 24.5887 27.9233 23.7301 27.9233 22.7129V15.9868H30.8042ZM39.9473 27.4248C40.3216 27.4248 40.6919 27.3923 41.0581 27.3271C41.4243 27.2539 41.758 27.1685 42.0591 27.0708V29.2437C41.7417 29.382 41.3307 29.5 40.8262 29.5977C40.3216 29.6953 39.7967 29.7441 39.2515 29.7441C38.4865 29.7441 37.7988 29.618 37.1885 29.3657C36.5781 29.1053 36.0939 28.6618 35.7358 28.0352C35.3778 27.4085 35.1987 26.5418 35.1987 25.4351V18.1719H33.3555V16.8901L35.333 15.877L36.2729 12.9839H38.0796V15.9868H41.9492V18.1719H38.0796V25.3984C38.0796 26.082 38.2505 26.5907 38.5923 26.9243C38.9341 27.258 39.3857 27.4248 39.9473 27.4248ZM56.7686 22.7129C56.7686 23.8359 56.6221 24.8328 56.3291 25.7036C56.0361 26.5744 55.6089 27.3109 55.0474 27.9131C54.4858 28.5072 53.8104 28.9629 53.021 29.2803C52.2316 29.5895 51.3405 29.7441 50.3477 29.7441C49.4199 29.7441 48.5695 29.5895 47.7964 29.2803C47.0233 28.9629 46.3519 28.5072 45.7822 27.9131C45.2207 27.3109 44.7853 26.5744 44.4761 25.7036C44.1668 24.8328 44.0122 23.8359 44.0122 22.7129C44.0122 21.2236 44.2686 19.9622 44.7812 18.9287C45.3021 17.887 46.0426 17.0936 47.0029 16.5483C47.9632 16.0031 49.1066 15.7305 50.4331 15.7305C51.6782 15.7305 52.7769 16.0031 53.729 16.5483C54.6812 17.0936 55.4258 17.887 55.9629 18.9287C56.5 19.9704 56.7686 21.2318 56.7686 22.7129ZM46.9663 22.7129C46.9663 23.6976 47.0843 24.5399 47.3203 25.2397C47.5645 25.9396 47.9388 26.4767 48.4434 26.8511C48.9479 27.2173 49.599 27.4004 50.3965 27.4004C51.194 27.4004 51.8451 27.2173 52.3496 26.8511C52.8542 26.4767 53.2244 25.9396 53.4604 25.2397C53.6965 24.5399 53.8145 23.6976 53.8145 22.7129C53.8145 21.7282 53.6965 20.894 53.4604 20.2104C53.2244 19.5187 52.8542 18.9938 52.3496 18.6357C51.8451 18.2695 51.1899 18.0864 50.3843 18.0864C49.1961 18.0864 48.3294 18.4852 47.7842 19.2827C47.2389 20.0802 46.9663 21.2236 46.9663 22.7129ZM77.1543 24.6416C77.1543 25.6995 76.8939 26.611 76.373 27.376C75.8604 28.141 75.1198 28.7269 74.1514 29.1338C73.1911 29.5407 72.0436 29.7441 70.709 29.7441C70.0579 29.7441 69.4354 29.7075 68.8413 29.6343C68.2472 29.561 67.6857 29.4552 67.1567 29.3169C66.6359 29.1704 66.1598 28.9954 65.7285 28.792V26.0332C66.4528 26.3506 67.2625 26.6395 68.1577 26.8999C69.0529 27.1522 69.9644 27.2783 70.8921 27.2783C71.6489 27.2783 72.2756 27.1807 72.772 26.9854C73.2765 26.7819 73.6509 26.4971 73.895 26.1309C74.1392 25.7565 74.2612 25.3211 74.2612 24.8247C74.2612 24.2957 74.1188 23.8481 73.834 23.4819C73.5492 23.1157 73.1178 22.7821 72.54 22.481C71.9704 22.1717 71.2542 21.8421 70.3916 21.4922C69.8057 21.2562 69.2441 20.9876 68.707 20.6865C68.1781 20.3854 67.7061 20.0314 67.291 19.6245C66.876 19.2176 66.5464 18.7375 66.3022 18.1841C66.0662 17.6226 65.9482 16.9634 65.9482 16.2065C65.9482 15.1974 66.1883 14.3348 66.6685 13.6187C67.1567 12.9025 67.8403 12.3532 68.7192 11.9707C69.6063 11.5882 70.6398 11.397 71.8198 11.397C72.7557 11.397 73.6346 11.4946 74.4565 11.6899C75.2866 11.8853 76.1004 12.1619 76.8979 12.52L75.9702 14.876C75.2378 14.5749 74.5257 14.3348 73.834 14.1558C73.1504 13.9767 72.4505 13.8872 71.7344 13.8872C71.1159 13.8872 70.591 13.9808 70.1597 14.168C69.7284 14.3551 69.3988 14.6196 69.1709 14.9614C68.9512 15.2951 68.8413 15.6938 68.8413 16.1577C68.8413 16.6785 68.9674 17.118 69.2197 17.4761C69.4801 17.826 69.8789 18.1475 70.416 18.4404C70.9613 18.7334 71.6611 19.0589 72.5156 19.417C73.5003 19.8239 74.3345 20.2511 75.0181 20.6987C75.7098 21.1463 76.2388 21.6834 76.605 22.3101C76.9712 22.9285 77.1543 23.7057 77.1543 24.6416ZM85.6016 15.7305C87.3105 15.7305 88.6004 16.1089 89.4712 16.8657C90.3501 17.6226 90.7896 18.8026 90.7896 20.4058V29.5H88.751L88.2017 27.5835H88.104C87.7215 28.0718 87.3268 28.4746 86.9199 28.792C86.513 29.1094 86.041 29.3454 85.5039 29.5C84.9749 29.6628 84.328 29.7441 83.563 29.7441C82.7573 29.7441 82.0371 29.5977 81.4023 29.3047C80.7676 29.0036 80.2671 28.5479 79.9009 27.9375C79.5347 27.3271 79.3516 26.554 79.3516 25.6182C79.3516 24.2266 79.8683 23.1808 80.9019 22.481C81.9435 21.7811 83.5142 21.3945 85.6138 21.3213L87.9575 21.2358V20.5278C87.9575 19.592 87.7378 18.9246 87.2983 18.5259C86.867 18.1271 86.2567 17.9277 85.4673 17.9277C84.7918 17.9277 84.1367 18.0254 83.502 18.2207C82.8672 18.416 82.2487 18.6561 81.6465 18.9409L80.7188 16.9146C81.3779 16.5646 82.1266 16.2798 82.9648 16.0601C83.8112 15.8403 84.6901 15.7305 85.6016 15.7305ZM87.9453 23.0425L86.1997 23.1035C84.7674 23.1523 83.7624 23.3965 83.1846 23.8359C82.6068 24.2754 82.3179 24.8776 82.3179 25.6426C82.3179 26.3099 82.5173 26.7982 82.916 27.1074C83.3148 27.4085 83.8397 27.5591 84.4907 27.5591C85.4836 27.5591 86.3055 27.2783 86.9565 26.7168C87.6157 26.1471 87.9453 25.313 87.9453 24.2144V23.0425ZM97.894 29.5L92.7549 15.9868H95.7944L98.5776 23.9214C98.7567 24.4259 98.9194 24.9712 99.0659 25.5571C99.2124 26.1431 99.3141 26.6354 99.3711 27.0342H99.4688C99.5257 26.6191 99.6356 26.1227 99.7983 25.5449C99.9611 24.959 100.128 24.4178 100.299 23.9214L103.082 15.9868H106.109L100.97 29.5H97.894ZM113.543 15.7305C114.748 15.7305 115.781 15.9787 116.644 16.4751C117.507 16.9715 118.17 17.6755 118.634 18.5869C119.098 19.4984 119.33 20.5889 119.33 21.8584V23.3965H110.309C110.341 24.7067 110.691 25.7158 111.358 26.4238C112.034 27.1318 112.978 27.4858 114.19 27.4858C115.053 27.4858 115.826 27.4045 116.51 27.2417C117.201 27.0708 117.914 26.8226 118.646 26.4971V28.8286C117.971 29.146 117.283 29.3779 116.583 29.5244C115.883 29.6709 115.045 29.7441 114.068 29.7441C112.742 29.7441 111.574 29.4878 110.565 28.9751C109.564 28.4543 108.779 27.6812 108.209 26.6558C107.647 25.6304 107.367 24.3568 107.367 22.835C107.367 21.3213 107.623 20.0355 108.136 18.9775C108.648 17.9196 109.369 17.1139 110.296 16.5605C111.224 16.0072 112.306 15.7305 113.543 15.7305ZM113.543 17.8911C112.64 17.8911 111.908 18.1841 111.346 18.77C110.793 19.356 110.467 20.2145 110.37 21.3457H116.522C116.514 20.6702 116.4 20.0721 116.18 19.5513C115.969 19.0304 115.643 18.6235 115.204 18.3306C114.772 18.0376 114.219 17.8911 113.543 17.8911Z" fill="#2C3D75" fill-opacity="0.8"/>
<defs>
<clipPath id="clip0_636_1905">
<rect width="37" height="34" fill="white" transform="translate(339 0.25)"/>
</clipPath>
<clipPath id="clip1_636_1905">
<rect width="33" height="32" fill="white" transform="translate(141.778 3.26953)"/>
</clipPath>
</defs>
</svg>
