<svg id="Icon-Coffee" xmlns="http://www.w3.org/2000/svg" width="59" height="41.296" viewBox="0 0 59 41.296">
  <path id="Icon-Coffee-2" data-name="Icon-Coffee" d="M17.648,64.447h17.7A8.852,8.852,0,0,0,44.2,55.6h2.95a11.8,11.8,0,0,0,0-23.6H11.011A2.207,2.207,0,0,0,8.8,34.212V55.6A8.852,8.852,0,0,0,17.648,64.447ZM47.145,37.9a5.9,5.9,0,1,1,0,11.8H44.2V37.9Zm4.4,35.4H4.4c-4.388,0-5.623-5.9-3.318-5.9H54.851C57.156,67.4,55.939,73.3,51.542,73.3Z" transform="translate(0.056 -32)" fill="#0b0b09"/>
</svg>
