<svg id="Icon-Save" xmlns="http://www.w3.org/2000/svg" width="50" height="50" viewBox="0 0 50 50">
  <path id="Icon-Save-2" data-name="Icon-Save" d="M48.431,13.181,39.069,3.819A5.357,5.357,0,0,0,35.281,2.25H5.357A5.357,5.357,0,0,0,0,7.607V46.893A5.357,5.357,0,0,0,5.357,52.25H44.643A5.357,5.357,0,0,0,50,46.893V16.969a5.357,5.357,0,0,0-1.569-3.788ZM25,45.107a7.143,7.143,0,1,1,7.143-7.143A7.143,7.143,0,0,1,25,45.107ZM35.714,11.121V22.339a1.339,1.339,0,0,1-1.339,1.339H8.482a1.339,1.339,0,0,1-1.339-1.339V10.732A1.339,1.339,0,0,1,8.482,9.393h25.5a1.339,1.339,0,0,1,.947.392l.388.388a1.339,1.339,0,0,1,.392.947Z" transform="translate(0 -2.25)" fill="#0b0b09"/>
</svg>
