<svg id="FontAwsome_undo-alt_" data-name="FontAwsome (undo-alt)" xmlns="http://www.w3.org/2000/svg" width="28.742" height="28.742" viewBox="0 0 28.742 28.742">
  <path id="FontAwsome_undo-alt_2" data-name="FontAwsome (undo-alt)" d="M22.345,8a14.322,14.322,0,0,0-9.9,3.98l-2.07-2.07A1.391,1.391,0,0,0,8,10.894v7.768a1.391,1.391,0,0,0,1.391,1.391h7.768a1.391,1.391,0,0,0,.983-2.374l-2.419-2.419A9.734,9.734,0,1,1,15.96,29.7a.694.694,0,0,0-.948.032l-2.3,2.3a.7.7,0,0,0,.028,1.01A14.371,14.371,0,1,0,22.345,8Z" transform="translate(-8 -8)" fill="#0b0b09"/>
</svg>
