<svg xmlns="http://www.w3.org/2000/svg" width="43.75" height="50" viewBox="0 0 43.75 50">
  <path id="Icon_awesome-shopping-bag" data-name="Icon awesome-shopping-bag" d="M34.375,15.625V12.5a12.5,12.5,0,0,0-25,0v3.125H0V42.188A7.812,7.812,0,0,0,7.813,50H35.938a7.812,7.812,0,0,0,7.813-7.812V15.625ZM15.625,12.5a6.25,6.25,0,0,1,12.5,0v3.125h-12.5ZM31.25,24.219a2.344,2.344,0,1,1,2.344-2.344A2.344,2.344,0,0,1,31.25,24.219Zm-18.75,0a2.344,2.344,0,1,1,2.344-2.344A2.344,2.344,0,0,1,12.5,24.219Z"/>
</svg>
