<svg id="Icon-Checked-Small" xmlns="http://www.w3.org/2000/svg" width="47" height="47" viewBox="0 0 47 47">
  <path id="FontAwsome_check-circle_" data-name="FontAwsome (check-circle)" d="M55,31.5A23.5,23.5,0,1,1,31.5,8,23.5,23.5,0,0,1,55,31.5ZM28.782,43.943,46.217,26.508a1.516,1.516,0,0,0,0-2.144l-2.144-2.144a1.516,1.516,0,0,0-2.144,0L27.71,36.439,21.071,29.8a1.516,1.516,0,0,0-2.144,0l-2.144,2.144a1.516,1.516,0,0,0,0,2.144l9.855,9.855a1.516,1.516,0,0,0,2.144,0Z" transform="translate(-8 -8)" fill="#0b0b09"/>
</svg>
