<svg id="Icon-Phone" xmlns="http://www.w3.org/2000/svg" width="48.489" height="77.582" viewBox="0 0 48.489 77.582">
  <path id="Icon-Phone-2" data-name="Icon-Phone" d="M41.215,0H7.273A7.275,7.275,0,0,0,0,7.273V70.309a7.275,7.275,0,0,0,7.273,7.273H41.215a7.275,7.275,0,0,0,7.273-7.273V7.273A7.275,7.275,0,0,0,41.215,0ZM24.244,72.733a4.849,4.849,0,1,1,4.849-4.849A4.844,4.844,0,0,1,24.244,72.733ZM41.215,56.368A1.824,1.824,0,0,1,39.4,58.187H9.092a1.824,1.824,0,0,1-1.818-1.818V9.092A1.824,1.824,0,0,1,9.092,7.273H39.4a1.824,1.824,0,0,1,1.818,1.818Z" fill="#0b0b09"/>
</svg>
