<svg id="Icon-Camera" xmlns="http://www.w3.org/2000/svg" width="42.508" height="37.194" viewBox="0 0 42.508 37.194">
  <path id="FontAwsome_camera_" data-name="FontAwsome (camera)" d="M42.508,41.3V65.209a3.986,3.986,0,0,1-3.985,3.985H3.985A3.986,3.986,0,0,1,0,65.209V41.3a3.986,3.986,0,0,1,3.985-3.985h7.306l1.021-2.731A3.98,3.98,0,0,1,16.04,32H26.459a3.98,3.98,0,0,1,3.728,2.582l1.029,2.731h7.306A3.986,3.986,0,0,1,42.508,41.3ZM31.217,53.254a9.963,9.963,0,1,0-9.963,9.963A9.971,9.971,0,0,0,31.217,53.254Zm-2.657,0a7.306,7.306,0,1,1-7.306-7.306A7.317,7.317,0,0,1,28.56,53.254Z" transform="translate(0 -32)" fill="#0b0b09"/>
</svg>
