<?xml version="1.0" encoding="UTF-8" standalone="no"?>
<!DOCTYPE svg PUBLIC "-//W3C//DTD SVG 1.1//EN" "http://www.w3.org/Graphics/SVG/1.1/DTD/svg11.dtd">
<svg width="100%" height="100%" viewBox="0 0 35 34" version="1.1" xmlns="http://www.w3.org/2000/svg" xmlns:xlink="http://www.w3.org/1999/xlink" xml:space="preserve" xmlns:serif="http://www.serif.com/" style="fill-rule:evenodd;clip-rule:evenodd;">
    <g transform="matrix(1,0,0,1,-194.776,1.15163)">
        <path d="M210.245,2.789L210.247,2.787L211.783,1.251L211.784,1.25C211.891,1.142 212.018,1.057 212.159,0.998C212.299,0.94 212.45,0.91 212.602,0.91C212.754,0.91 212.904,0.94 213.045,0.998C213.185,1.057 213.313,1.142 213.42,1.25L213.421,1.251L226.872,14.694L226.873,14.695C226.98,14.802 227.066,14.93 227.124,15.07L227.583,14.879L227.124,15.07C227.183,15.21 227.213,15.361 227.213,15.513C227.213,15.665 227.183,15.816 227.124,15.956C227.066,16.096 226.98,16.224 226.873,16.331L213.421,29.784C213.313,29.892 213.186,29.977 213.045,30.036C212.905,30.094 212.755,30.124 212.602,30.124C212.45,30.124 212.3,30.094 212.159,30.036C212.019,29.977 211.892,29.892 211.784,29.784L210.249,28.248C210.248,28.248 210.248,28.248 210.248,28.247C210.14,28.138 210.054,28.008 209.996,27.866C209.938,27.723 209.909,27.569 209.911,27.415C209.913,27.261 209.945,27.108 210.006,26.967C210.068,26.825 210.156,26.698 210.267,26.591C210.268,26.59 210.268,26.59 210.268,26.59L218.603,18.646L219.508,17.784L218.258,17.784L198.373,17.784L198.372,17.784C198.22,17.785 198.069,17.755 197.928,17.697C197.787,17.639 197.659,17.553 197.552,17.446C197.444,17.338 197.358,17.21 197.3,17.069L196.838,17.26L197.3,17.069C197.242,16.928 197.213,16.778 197.213,16.625L197.213,14.409C197.213,14.257 197.242,14.106 197.3,13.965L196.838,13.774L197.3,13.965C197.358,13.824 197.444,13.696 197.552,13.588C197.659,13.481 197.787,13.395 197.928,13.337C198.069,13.279 198.22,13.249 198.372,13.25L219.508,13.25L218.603,12.388L210.266,4.445L210.264,4.443C210.152,4.337 210.062,4.21 210,4.068C209.938,3.927 209.906,3.774 209.904,3.62C209.902,3.466 209.931,3.313 209.99,3.17C210.049,3.027 210.135,2.897 210.245,2.789Z" style="fill:white;fill-rule:nonzero;stroke:black;stroke-width:1px;"/>
    </g>
</svg>
