<svg id="Icon-Edit" xmlns="http://www.w3.org/2000/svg" width="67.982" height="60.416" viewBox="0 0 67.982 60.416">
  <path id="Icon-Edit-2" data-name="Icon-Edit" d="M47.516,9.908,58.162,20.553a1.154,1.154,0,0,1,0,1.629L32.386,47.959,21.433,49.174A2.3,2.3,0,0,1,18.9,46.637l1.216-10.953L45.888,9.908a1.154,1.154,0,0,1,1.629,0Zm19.12-2.7-5.76-5.76a4.616,4.616,0,0,0-6.515,0L50.184,5.624a1.154,1.154,0,0,0,0,1.629L60.829,17.9a1.154,1.154,0,0,0,1.629,0l4.178-4.178A4.616,4.616,0,0,0,66.636,7.205ZM45.321,40.948V52.963H7.554V15.2H34.675a1.451,1.451,0,0,0,1-.413L40.4,10.061a1.416,1.416,0,0,0-1-2.419H5.665A5.667,5.667,0,0,0,0,13.307V54.851a5.667,5.667,0,0,0,5.665,5.665H47.209a5.667,5.667,0,0,0,5.665-5.665V36.227a1.419,1.419,0,0,0-2.419-1l-4.721,4.721A1.451,1.451,0,0,0,45.321,40.948Z" transform="translate(0 -0.1)" fill="#0b0b09"/>
</svg>
