<svg id="Icon-Info" xmlns="http://www.w3.org/2000/svg" width="44" height="44" viewBox="0 0 44 44">
  <path id="Icon-Info-2" data-name="Icon-Info" d="M30,8A22,22,0,1,0,52,30,22,22,0,0,0,30,8Zm0,9.758a3.726,3.726,0,1,1-3.726,3.726A3.726,3.726,0,0,1,30,17.758ZM34.968,40.29A1.065,1.065,0,0,1,33.9,41.355H26.1a1.065,1.065,0,0,1-1.065-1.065V38.161A1.065,1.065,0,0,1,26.1,37.1h1.065V31.419H26.1a1.065,1.065,0,0,1-1.065-1.065V28.226A1.065,1.065,0,0,1,26.1,27.161h5.677a1.065,1.065,0,0,1,1.065,1.065V37.1H33.9a1.065,1.065,0,0,1,1.065,1.065Z" transform="translate(-8 -8)" fill="#0b0b09"/>
</svg>
