<?xml version="1.0" encoding="UTF-8" standalone="no"?>
<!DOCTYPE svg PUBLIC "-//W3C//DTD SVG 1.1//EN" "http://www.w3.org/Graphics/SVG/1.1/DTD/svg11.dtd">
<svg width="100%" height="100%" viewBox="0 0 34 34" version="1.1" xmlns="http://www.w3.org/2000/svg" xmlns:xlink="http://www.w3.org/1999/xlink" xml:space="preserve" xmlns:serif="http://www.serif.com/" style="fill-rule:evenodd;clip-rule:evenodd;">
    <g transform="matrix(1,0,0,1,-100.777,1.1514)">
        <path d="M105.077,17.752L105.076,17.75L103.55,16.224C103.443,16.118 103.358,15.992 103.3,15.853C103.243,15.714 103.213,15.565 103.213,15.414C103.213,15.264 103.243,15.115 103.3,14.976L102.839,14.784L103.3,14.976C103.358,14.837 103.443,14.711 103.55,14.604L103.551,14.603L116.898,1.248L116.899,1.247C117.005,1.14 117.131,1.056 117.27,0.998C117.409,0.94 117.558,0.91 117.709,0.91C117.859,0.91 118.008,0.94 118.147,0.998C118.286,1.056 118.413,1.14 118.519,1.247L118.52,1.248L131.876,14.604C131.983,14.71 132.068,14.836 132.125,14.975C132.183,15.114 132.213,15.263 132.213,15.414C132.213,15.564 132.183,15.713 132.125,15.852C132.068,15.991 131.983,16.117 131.876,16.223L130.351,17.748L130.351,17.749C130.242,17.856 130.114,17.941 129.973,17.998C129.831,18.056 129.679,18.084 129.527,18.083C129.374,18.081 129.223,18.049 129.083,17.988C128.943,17.927 128.817,17.84 128.711,17.73C128.711,17.729 128.71,17.729 128.71,17.729L120.823,9.453L119.961,8.548L119.961,29.543C119.961,29.694 119.932,29.843 119.874,29.983C119.817,30.122 119.732,30.249 119.625,30.355C119.519,30.462 119.392,30.546 119.253,30.604C119.113,30.661 118.964,30.691 118.813,30.691L116.613,30.691C116.462,30.691 116.312,30.661 116.173,30.604C116.034,30.546 115.907,30.462 115.8,30.355C115.694,30.249 115.609,30.122 115.552,29.983C115.494,29.843 115.465,29.694 115.465,29.543L115.465,8.548L114.603,9.453L106.716,17.731L106.715,17.733C106.61,17.844 106.484,17.933 106.344,17.994C106.204,18.055 106.053,18.088 105.9,18.09C105.747,18.091 105.596,18.062 105.454,18.004C105.313,17.946 105.185,17.86 105.077,17.752Z" style="fill:white;fill-rule:nonzero;stroke:black;stroke-width:1px;"/>
    </g>
</svg>
