<?xml version="1.0" encoding="UTF-8" standalone="no"?>
<!DOCTYPE svg PUBLIC "-//W3C//DTD SVG 1.1//EN" "http://www.w3.org/Graphics/SVG/1.1/DTD/svg11.dtd">
<svg width="100%" height="100%" viewBox="0 0 34 34" version="1.1" xmlns="http://www.w3.org/2000/svg" xmlns:xlink="http://www.w3.org/1999/xlink" xml:space="preserve" xmlns:serif="http://www.serif.com/" style="fill-rule:evenodd;clip-rule:evenodd;stroke-linejoin:round;stroke-miterlimit:2;">
    <g transform="matrix(1,0,0,1,-12.2531,-212.879)">
        <path d="M42.503,212.879L15.003,212.879C14.274,212.879 13.574,213.169 13.059,213.684C12.543,214.2 12.253,214.9 12.253,215.629L12.253,243.129C12.253,243.858 12.543,244.558 13.059,245.073C13.574,245.589 14.274,245.879 15.003,245.879L33.684,245.879C34.045,245.88 34.403,245.809 34.737,245.671C35.071,245.533 35.374,245.329 35.628,245.073L44.447,236.254C44.704,235.999 44.907,235.697 45.045,235.363C45.184,235.029 45.254,234.671 45.253,234.31L45.253,215.629C45.253,214.9 44.963,214.2 44.448,213.684C43.932,213.169 43.233,212.879 42.503,212.879ZM34.253,242.56L34.253,234.879L41.934,234.879L34.253,242.56Z" style="fill:rgb(57,97,229);fill-rule:nonzero;"/>
    </g>
</svg>
