<svg xmlns="http://www.w3.org/2000/svg" width="42.308" height="50" viewBox="0 0 42.308 50">
  <path id="Icon_ionic-md-train" data-name="Icon ionic-md-train" d="M36.779,9.375c-10.577,0-21.154,1.31-21.154,10.529v25a9.233,9.233,0,0,0,9.255,9.207l-3.966,3.942v1.322h5.9L32.1,54.111h9.964l5.288,5.264h5.288v-1.31l-3.966-3.942a9.241,9.241,0,0,0,9.255-9.207v-25C57.933,10.685,48.462,9.375,36.779,9.375ZM24.88,48.846A3.942,3.942,0,1,1,28.846,44.9,3.95,3.95,0,0,1,24.88,48.846Zm9.255-18.413H20.913V19.9H34.135Zm5.288,0V19.9H52.644V30.433Zm9.255,18.413A3.942,3.942,0,1,1,52.644,44.9,3.95,3.95,0,0,1,48.678,48.846Z" transform="translate(-15.625 -9.375)"/>
</svg>
