<svg width="31" height="30" viewBox="0 0 31 30" fill="none" xmlns="http://www.w3.org/2000/svg">
<path d="M17.6803 19.371H12.8107C12.8107 18.4247 12.8786 17.5914 13.0143 16.871C13.1614 16.1398 13.4102 15.4839 13.7609 14.9032C14.1115 14.3226 14.5866 13.7849 15.1861 13.2903C15.7177 12.871 16.1759 12.4677 16.5604 12.0806C16.945 11.6935 17.2391 11.3011 17.4427 10.9032C17.6463 10.5054 17.7481 10.0806 17.7481 9.62903C17.7481 9.06989 17.6633 8.6129 17.4936 8.25806C17.3353 7.90323 17.0921 7.63979 16.7641 7.46774C16.4473 7.28495 16.0458 7.19355 15.5594 7.19355C15.1635 7.19355 14.7902 7.28495 14.4396 7.46774C14.1002 7.65054 13.8231 7.93548 13.6082 8.32258C13.3932 8.69893 13.2745 9.19892 13.2519 9.82258H7.5C7.53393 8.22043 7.90721 6.91935 8.61983 5.91935C9.34376 4.9086 10.3052 4.17204 11.5042 3.70968C12.7146 3.23656 14.0663 3 15.5594 3C17.2109 3 18.6304 3.24194 19.8181 3.72581C21.0058 4.20968 21.9164 4.93011 22.5498 5.8871C23.1833 6.83333 23.5 8 23.5 9.3871C23.5 10.3118 23.3134 11.1183 22.9401 11.8065C22.5781 12.4839 22.0861 13.1183 21.4639 13.7097C20.8531 14.2903 20.1688 14.914 19.4109 15.5806C18.7549 16.129 18.3081 16.6882 18.0705 17.2581C17.833 17.8172 17.7029 18.5215 17.6803 19.371ZM12.1151 24.2742C12.1151 23.5 12.4092 22.8548 12.9973 22.3387C13.5855 21.8118 14.3491 21.5484 15.2879 21.5484C16.2268 21.5484 16.9903 21.8118 17.5785 22.3387C18.1667 22.8548 18.4608 23.5 18.4608 24.2742C18.4608 25.0484 18.1667 25.6989 17.5785 26.2258C16.9903 26.7419 16.2268 27 15.2879 27C14.3491 27 13.5855 26.7419 12.9973 26.2258C12.4092 25.6989 12.1151 25.0484 12.1151 24.2742Z" fill="#9747FF"/>
</svg>
