<svg width="32" height="32" viewBox="0 0 32 32" fill="none" xmlns="http://www.w3.org/2000/svg">
<path fill-rule="evenodd" clip-rule="evenodd" d="M5.30963 21.3366H2.66666C1.74619 21.3366 1 20.5904 1 19.67V13.0033C1 12.0828 1.74619 11.3367 2.66666 11.3367H5.30963L13.1548 3.4915C14.2047 2.44156 16 3.18517 16 4.67V28.0033C16 29.4881 14.2047 30.2317 13.1548 29.1818L5.30963 21.3366Z" fill="white"/>
<path d="M21.8925 10.444C25.1468 13.6984 25.1468 18.9748 21.8925 22.2291M26.6066 5.72989C32.4645 11.5877 32.4645 21.0852 26.6066 26.943M5.30963 21.3366H2.66666C1.74619 21.3366 1 20.5904 1 19.67V13.0033C1 12.0828 1.74619 11.3367 2.66666 11.3367H5.30963L13.1548 3.4915C14.2047 2.44156 16 3.18517 16 4.67V28.0033C16 29.4881 14.2047 30.2317 13.1548 29.1818L5.30963 21.3366Z" stroke="white" stroke-width="2" stroke-linecap="round" stroke-linejoin="round"/>
</svg>
