<svg width="38" height="38" viewBox="0 0 38 38" fill="none" xmlns="http://www.w3.org/2000/svg">
<g id="Compas/Icon">
<circle id="Ellipse 256" cx="16.0002" cy="22" r="14" fill="white"/>
<path id="Vector" d="M16.0054 7C7.72658 7 1.00024 13.7259 1.00024 21.9948C1.00024 30.2737 7.72615 37 16.0054 37C24.2708 37 31.0002 30.2741 31.0002 21.9948C31.0002 13.7261 24.271 7 16.0054 7ZM16.0054 35.1474C8.75512 35.1474 2.84943 29.2416 2.84943 21.9914C2.84943 14.7411 8.75521 8.84919 16.0054 8.84919C23.2556 8.84919 29.1476 14.7415 29.1476 21.9914C29.1476 29.2551 23.2553 35.1474 16.0054 35.1474Z" fill="black" fill-opacity="0.95"/>
<g id="Vector_2">
<path d="M13.573 24.1366L21.9145 16.0156C22.059 16.164 22.1264 16.3875 22.0474 16.6145L17.3279 30.1616C17.1531 30.6634 16.453 30.6892 16.2418 30.2015L13.6903 24.3116C13.6619 24.2461 13.622 24.1869 13.573 24.1366Z" fill="#1A68FF"/>
<path d="M13.573 24.1366L21.9145 16.0156C21.77 15.8672 21.5483 15.7936 21.3193 15.8666L7.65064 20.2215C7.1443 20.3829 7.0998 21.082 7.58159 21.3062L13.401 24.0145C13.4658 24.0446 13.524 24.0862 13.573 24.1366Z" fill="#1A68FF"/>
</g>
<g id="Frame 2/Variant3">
<circle id="Ellipse 91" cx="28.0002" cy="10" r="6" fill="white"/>
<path id="Icon" fill-rule="evenodd" clip-rule="evenodd" d="M28.0002 18C32.4185 18 36.0002 14.4183 36.0002 10C36.0002 5.58172 32.4185 2 28.0002 2C23.582 2 20.0002 5.58172 20.0002 10C20.0002 14.4183 23.582 18 28.0002 18ZM26.7074 7.29289C26.3168 6.90237 25.6837 6.90237 25.2931 7.29289C24.9026 7.68342 24.9026 8.31658 25.2931 8.70711L26.586 10L25.2931 11.2929C24.9026 11.6834 24.9026 12.3166 25.2931 12.7071C25.6837 13.0976 26.3168 13.0976 26.7074 12.7071L28.0002 11.4142L29.2931 12.7071C29.6837 13.0976 30.3168 13.0976 30.7074 12.7071C31.0979 12.3166 31.0979 11.6834 30.7074 11.2929L29.4145 10L30.7074 8.70711C31.0979 8.31658 31.0979 7.68342 30.7074 7.29289C30.3168 6.90237 29.6837 6.90237 29.2931 7.29289L28.0002 8.58579L26.7074 7.29289Z" fill="#E70E0E"/>
</g>
</g>
</svg>
