<svg width="90" height="90" viewBox="0 0 90 90" fill="none" xmlns="http://www.w3.org/2000/svg">
<path d="M90 45C90 69.8528 69.8528 90 45 90C20.1472 90 0 69.8528 0 45C0 20.1472 20.1472 0 45 0C69.8528 0 90 20.1472 90 45Z" fill="#1EA939"/>
<path d="M65.8525 29.7725C68.0492 31.9692 68.0492 35.5308 65.8525 37.7275L43.3525 60.2275C41.1558 62.4242 37.5942 62.4242 35.3975 60.2275L24.1475 48.9775C21.9508 46.7808 21.9508 43.2192 24.1475 41.0225C26.3442 38.8258 29.9058 38.8258 32.1025 41.0225L39.375 48.295L57.8975 29.7725C60.0942 27.5758 63.6558 27.5758 65.8525 29.7725Z" fill="white"/>
</svg>
