<svg width="110" height="110" viewBox="0 0 110 110" fill="none" xmlns="http://www.w3.org/2000/svg">
<g id="Icon/Solid/x">
<path id="Icon" fill-rule="evenodd" clip-rule="evenodd" d="M23.6109 23.6109C25.7588 21.463 29.2412 21.463 31.3891 23.6109L55 47.2218L78.6109 23.6109C80.7588 21.463 84.2412 21.463 86.3891 23.6109C88.537 25.7588 88.537 29.2412 86.3891 31.3891L62.7782 55L86.3891 78.6109C88.537 80.7588 88.537 84.2412 86.3891 86.3891C84.2412 88.537 80.7588 88.537 78.6109 86.3891L55 62.7782L31.3891 86.3891C29.2412 88.537 25.7588 88.537 23.6109 86.3891C21.463 84.2412 21.463 80.7588 23.6109 78.6109L47.2218 55L23.6109 31.3891C21.463 29.2412 21.463 25.7588 23.6109 23.6109Z" fill="#F44848"/>
</g>
</svg>
