<svg width="16" height="15" viewBox="0 0 16 15" fill="none" xmlns="http://www.w3.org/2000/svg">
<path d="M7.04893 0.926823C7.34828 0.00551194 8.65169 0.00551242 8.95104 0.926823L10.0206 4.21862C10.1545 4.63064 10.5384 4.9096 10.9717 4.9096H14.4329C15.4016 4.9096 15.8044 6.14922 15.0207 6.71862L12.2205 8.75306C11.87 9.00771 11.7233 9.45907 11.8572 9.8711L12.9268 13.1629C13.2261 14.0842 12.1717 14.8503 11.3879 14.2809L8.58777 12.2465C8.23728 11.9918 7.76269 11.9918 7.4122 12.2465L4.61203 14.2809C3.82832 14.8503 2.77384 14.0842 3.07319 13.1629L4.14276 9.8711C4.27663 9.45907 4.12997 9.00771 3.77949 8.75306L0.979317 6.71862C0.195603 6.14922 0.598379 4.9096 1.5671 4.9096H5.0283C5.46153 4.9096 5.84548 4.63064 5.97936 4.21862L7.04893 0.926823Z" fill="#000AFF"/>
</svg>
