<svg width="32" height="32" viewBox="0 0 32 32" fill="none" xmlns="http://www.w3.org/2000/svg">
<path d="M9.14664 25.5117C11.1021 27.0506 13.4668 28.629 16.2409 29.8918C16.2409 29.8918 20.7885 32.2199 27.337 31.9832C28.6103 31.9437 29.7017 31.0361 29.8836 29.9312L30.5658 25.9457C30.7022 25.196 30.2474 24.4857 29.4289 24.2884L23.2896 23.0257C22.7894 22.9073 22.2437 22.9467 21.7435 23.223L18.0599 25.1171C17.878 25.196 17.6961 25.2354 17.5142 25.1565C15.968 24.5646 14.1035 23.657 12.3754 22.3154C10.6473 20.9343 9.46497 19.3953 8.64641 18.1326C8.55545 18.0142 8.55545 17.8169 8.64641 17.6591L10.5109 14.3049C10.7383 13.8709 10.7838 13.3579 10.6019 12.9633L8.64641 7.75453C8.32807 7.0837 7.50951 6.72856 6.64547 6.92586L2.14336 7.87291C0.870034 8.14913 -0.0849589 9.21456 0.00599283 10.3589C0.278848 15.6466 3.32573 19.6715 3.32573 19.6715C5.00834 21.9602 7.00927 23.8938 8.96474 25.4327" fill="white"/>
<path d="M28.3374 13.7524C30.975 12.0951 32.5211 9.21451 31.839 6.05769C31.1569 3.09816 28.3828 0.691086 24.9721 0.138641C19.3786 -0.768946 14.5127 2.90086 14.5127 7.59664C14.5127 10.9113 16.9684 13.6341 19.8788 14.5417C20.0153 14.5811 20.1062 14.739 20.0608 14.8573L18.9239 17.4223C18.9239 17.6196 19.1512 17.7774 19.3786 17.6985C25.4269 15.9622 28.1554 13.9103 28.1554 13.9103C28.2009 13.8708 28.2919 13.8314 28.3374 13.7524C28.3374 13.7919 28.3374 13.7919 28.3374 13.7524ZM18.7419 8.4253V6.76797C18.7419 6.64959 18.8329 6.61013 18.9239 6.61013H21.8798C22.0162 6.61013 22.0617 6.53121 22.0617 6.45229V3.88737C22.0617 3.80845 22.1526 3.72953 22.2436 3.72953H24.1536C24.2445 3.72953 24.3355 3.80845 24.3355 3.88737V6.45229C24.3355 6.53121 24.4264 6.61013 24.5174 6.61013H27.4733C27.6097 6.61013 27.6552 6.68905 27.6552 6.76797V8.4253C27.6552 8.54368 27.5643 8.58315 27.4733 8.58315H24.6538C24.5174 8.58315 24.4719 8.66207 24.4719 8.74099V11.3059C24.4719 11.3848 24.381 11.4637 24.29 11.4637H22.38C22.2891 11.4637 22.1981 11.3848 22.1981 11.3059V8.74099C22.1981 8.66207 22.1072 8.58315 22.0162 8.58315H19.0603C18.8329 8.62261 18.7419 8.54368 18.7419 8.4253Z" fill="white"/>
</svg>
