<svg width="32" height="32" viewBox="0 0 32 32" fill="none" xmlns="http://www.w3.org/2000/svg">
<g id="Compas/Icon">
<circle id="Ellipse 256" cx="15.9999" cy="16" r="14" fill="white"/>
<path id="Vector" d="M16.005 1C7.72621 1 0.999878 7.72591 0.999878 15.9948C0.999878 24.2737 7.72578 31 16.005 31C24.2704 31 30.9999 24.2741 30.9999 15.9948C30.9999 7.72608 24.2706 1 16.005 1ZM16.005 29.1474C8.75475 29.1474 2.84906 23.2416 2.84906 15.9914C2.84906 8.74111 8.75484 2.84919 16.005 2.84919C23.2552 2.84919 29.1473 8.74154 29.1473 15.9914C29.1473 23.2551 23.2549 29.1474 16.005 29.1474Z" fill="black" fill-opacity="0.95"/>
<g id="Vector_2">
<path d="M13.5726 18.1366L21.9141 10.0156C22.0586 10.164 22.1261 10.3874 22.047 10.6144L17.3276 24.1615C17.1527 24.6634 16.4527 24.6891 16.2414 24.2015L13.69 18.3116C13.6616 18.2461 13.6216 18.1869 13.5726 18.1366Z" fill="#1A68FF"/>
<path d="M13.5726 18.1366L21.9141 10.0156C21.7696 9.86717 21.5479 9.7936 21.3189 9.86658L7.65027 14.2215C7.14393 14.3828 7.09943 15.082 7.58123 15.3062L13.4007 18.0145C13.4654 18.0446 13.5236 18.0862 13.5726 18.1366Z" fill="#1A68FF"/>
</g>
</g>
</svg>
