<?xml version="1.0" encoding="UTF-8" standalone="no"?>
<!DOCTYPE svg PUBLIC "-//W3C//DTD SVG 1.1//EN" "http://www.w3.org/Graphics/SVG/1.1/DTD/svg11.dtd">
<svg width="100%" height="100%" viewBox="0 0 41 66" version="1.1" xmlns="http://www.w3.org/2000/svg" xmlns:xlink="http://www.w3.org/1999/xlink" xml:space="preserve" xmlns:serif="http://www.serif.com/" style="fill-rule:evenodd;clip-rule:evenodd;stroke-linejoin:round;stroke-miterlimit:2;">
    <g id="Frame-3" serif:id="Frame 3">
        <g id="Group">
            <g id="Group_2">
                <g id="Group_3">
                    <path id="Vector" d="M12,45.245L17.387,50.632L12.732,63.201C12.2,64.597 10.87,65.462 9.473,65.462C9.074,65.462 8.675,65.395 8.276,65.262C6.481,64.597 5.55,62.602 6.215,60.807L12,45.245Z" style="fill:rgb(13,13,13);fill-rule:nonzero;"/>
                    <path id="Vector_2" d="M1.959,31.48L5.151,25.361C6.015,23.765 7.279,22.435 8.808,21.504C16.19,17.115 17.121,17.182 18.052,17.248L23.04,17.581C24.569,17.647 25.633,18.046 30.754,25.561C30.953,25.827 31.219,26.026 31.618,26.093L37.736,27.024C39.399,27.29 40.53,28.82 40.264,30.482C39.998,32.145 38.468,33.275 36.805,33.009L30.687,32.078C28.692,31.746 26.897,30.682 25.766,29.019C25.5,28.62 25.301,28.288 25.035,27.955L21.111,40.391L26.564,45.844C27.362,46.642 28.027,47.706 28.426,48.77L32.616,61.006C33.281,62.802 32.283,64.797 30.488,65.395C30.089,65.528 29.756,65.595 29.357,65.595C27.894,65.595 26.564,64.664 26.032,63.267L21.843,51.031C21.776,50.898 21.709,50.832 21.643,50.699L11.934,40.923C10.537,39.526 10.005,37.598 10.404,35.736L12.532,26.292C12.333,26.425 12.133,26.558 11.867,26.691C11.269,27.024 10.803,27.556 10.471,28.154L7.279,34.273C6.747,35.27 5.683,35.869 4.619,35.869C4.153,35.869 3.688,35.736 3.222,35.536C1.759,34.738 1.227,32.943 1.959,31.48Z" style="fill:rgb(13,13,13);fill-rule:nonzero;"/>
                    <path id="Vector_3" d="M28.247,9.763C28.648,6.075 25.984,2.76 22.296,2.359C18.609,1.958 15.294,4.622 14.893,8.309C14.491,11.997 17.155,15.312 20.843,15.713C24.531,16.114 27.845,13.45 28.247,9.763Z" style="fill:rgb(13,13,13);fill-rule:nonzero;"/>
                </g>
            </g>
        </g>
        <g id="Group_4">
            <g id="Group_5">
                <g id="Group_6">
                    <path id="Vector_4" d="M10.368,43.613L15.755,49L11.099,61.569C10.567,62.965 9.237,63.83 7.841,63.83C7.442,63.83 7.043,63.763 6.644,63.63C4.848,62.965 3.917,60.97 4.582,59.174L10.368,43.613Z" style="fill:rgb(255,71,139);fill-rule:nonzero;"/>
                    <path id="Vector_5" d="M0.326,29.847L3.518,23.729C4.383,22.133 5.646,20.803 7.176,19.872C14.558,15.483 15.489,15.549 16.42,15.616L21.407,15.948C22.937,16.015 24.001,16.414 29.121,23.929C29.321,24.195 29.587,24.394 29.986,24.461L36.104,25.392C37.767,25.658 38.897,27.187 38.631,28.85C38.365,30.512 36.836,31.643 35.173,31.377L29.055,30.446C27.06,30.113 25.264,29.049 24.134,27.387C23.868,26.988 23.668,26.655 23.402,26.323L19.479,38.759L24.932,44.212C25.73,45.01 26.395,46.074 26.794,47.138L30.984,59.374C31.648,61.17 30.651,63.165 28.855,63.763C28.456,63.896 28.124,63.963 27.725,63.963C26.262,63.963 24.932,63.032 24.4,61.635L20.21,49.399C20.144,49.266 20.077,49.199 20.011,49.066L10.302,39.291C8.905,37.894 8.373,35.965 8.772,34.103L10.9,24.66C10.701,24.793 10.501,24.926 10.235,25.059C9.636,25.392 9.171,25.924 8.838,26.522L5.646,32.64C5.114,33.638 4.05,34.236 2.986,34.236C2.521,34.236 2.055,34.103 1.59,33.904C0.127,33.106 -0.405,31.31 0.326,29.847Z" style="fill:rgb(255,71,139);fill-rule:nonzero;"/>
                    <path id="Vector_6" d="M26.614,8.13C27.016,4.443 24.352,1.128 20.664,0.727C16.977,0.325 13.662,2.989 13.26,6.677C12.859,10.365 15.523,13.679 19.211,14.081C22.898,14.482 26.213,11.818 26.614,8.13Z" style="fill:rgb(255,71,139);fill-rule:nonzero;"/>
                </g>
            </g>
        </g>
    </g>
</svg>
