<svg width="17" height="16" viewBox="0 0 17 16" fill="none" xmlns="http://www.w3.org/2000/svg">
<g id="Icon/Solid/phone">
<path id="Icon" d="M2.09998 2.4001C2.09998 1.95827 2.45815 1.6001 2.89998 1.6001H4.62227C5.01335 1.6001 5.3471 1.88283 5.41139 2.26858L6.00284 5.81728C6.06058 6.1637 5.88562 6.50727 5.57149 6.66434L4.33298 7.28359C5.22602 9.50275 6.99732 11.2741 9.21648 12.1671L9.83573 10.9286C9.9928 10.6145 10.3364 10.4395 10.6828 10.4972L14.2315 11.0887C14.6172 11.153 14.9 11.4867 14.9 11.8778V13.6001C14.9 14.0419 14.5418 14.4001 14.1 14.4001H12.5C6.75621 14.4001 2.09998 9.74386 2.09998 4.0001V2.4001Z" fill="white"/>
</g>
</svg>
