<svg width="38" height="38" viewBox="0 0 38 38" fill="none" xmlns="http://www.w3.org/2000/svg">
<circle cx="16" cy="22" r="14" fill="white"/>
<path fill-rule="evenodd" clip-rule="evenodd" d="M26.5102 11H5.4898C3.04082 11 1 13.0408 1 15.4898V28.551C1 31 3.04082 33.0408 5.4898 33.0408H26.5102C28.9592 33.0408 31 31 31 28.551V15.4898C31 13.0408 29.0612 11 26.5102 11ZM21.102 20.898L14.1633 17.1224C13.3469 16.7143 12.3265 17.3265 12.3265 18.2449V25.7959C12.3265 26.7143 13.3469 27.3265 14.1633 26.9184L21 23.1429C21.9184 22.7347 21.9184 21.4082 21.102 20.898Z" fill="#000AFF"/>
<circle cx="28" cy="10" r="6" fill="white"/>
<path fill-rule="evenodd" clip-rule="evenodd" d="M28 18C32.4183 18 36 14.4183 36 10C36 5.58172 32.4183 2 28 2C23.5817 2 20 5.58172 20 10C20 14.4183 23.5817 18 28 18ZM26.7071 7.29289C26.3166 6.90237 25.6834 6.90237 25.2929 7.29289C24.9024 7.68342 24.9024 8.31658 25.2929 8.70711L26.5858 10L25.2929 11.2929C24.9024 11.6834 24.9024 12.3166 25.2929 12.7071C25.6834 13.0976 26.3166 13.0976 26.7071 12.7071L28 11.4142L29.2929 12.7071C29.6834 13.0976 30.3166 13.0976 30.7071 12.7071C31.0976 12.3166 31.0976 11.6834 30.7071 11.2929L29.4142 10L30.7071 8.70711C31.0976 8.31658 31.0976 7.68342 30.7071 7.29289C30.3166 6.90237 29.6834 6.90237 29.2929 7.29289L28 8.58579L26.7071 7.29289Z" fill="#E70E0E"/>
</svg>
