<?xml version="1.0" encoding="UTF-8" standalone="no"?>
<!DOCTYPE svg PUBLIC "-//W3C//DTD SVG 1.1//EN" "http://www.w3.org/Graphics/SVG/1.1/DTD/svg11.dtd">
<svg width="100%" height="100%" viewBox="0 0 24 24" version="1.1" xmlns="http://www.w3.org/2000/svg" xmlns:xlink="http://www.w3.org/1999/xlink" xml:space="preserve" xmlns:serif="http://www.serif.com/" style="fill-rule:evenodd;clip-rule:evenodd;stroke-linejoin:round;stroke-miterlimit:2;">
    <g transform="matrix(0.00408676,0.999992,-0.999992,0.00408676,22.9864,0.523552)">
        <path d="M16.79,9.381L12.348,7.166C11.96,6.778 9.225,6.538 8.836,6.925L6.006,9.717C5.818,9.905 5.301,10.744 5.301,11.009C5.301,11.275 4.923,12.901 5.111,13.089L12.029,15.504C12.419,15.893 13.571,14.646 13.96,14.256L17.327,12.852C17.515,12.665 16.391,11.54 16.391,11.275C16.391,11.01 16.977,9.568 16.79,9.381ZM15.016,12.011L10,12L10,14L7,11L10,8L10,10L15,10L15.016,12.011Z" style="fill-rule:nonzero;"/>
    </g>
    <path d="M21.707,11.294L12.729,2.294C12.341,1.906 11.703,1.905 11.314,2.292L2.293,11.292C2.105,11.48 1.999,11.734 1.999,12C1.999,12.266 2.105,12.52 2.293,12.708L11.314,21.708C11.704,22.097 12.34,22.096 12.729,21.706L21.707,12.706C21.894,12.519 22,12.265 22,12C22,11.735 21.894,11.481 21.707,11.294ZM14.391,14.953L13,16L11.416,16.137L9.658,15.293L9.037,12.882L8.447,11.023L10,8L11.943,6.377L15.713,9.363L14.391,14.953Z" style="fill-rule:nonzero;"/>
</svg>
