<svg width="41" height="66" viewBox="0 0 41 66" fill="none" xmlns="http://www.w3.org/2000/svg">
<g id="Frame 3">
<g id="Group">
<g id="Group_2">
<g id="Group_3">
<path id="Vector" d="M12.0002 45.2454L17.3869 50.632L12.7318 63.2008C12.1997 64.5974 10.8697 65.4619 9.47318 65.4619C9.07417 65.4619 8.67515 65.3954 8.27614 65.2624C6.4806 64.5974 5.54957 62.6023 6.21459 60.8068L12.0002 45.2454Z" fill="#0D0D0D"/>
<path id="Vector_2" d="M1.95852 31.4795L5.1506 25.3614C6.01513 23.7653 7.27866 22.4353 8.8082 21.5043C16.1899 17.1152 17.1209 17.1817 18.0519 17.2482L23.0396 17.5807C24.5691 17.6472 25.6331 18.0462 30.7538 25.5609C30.9533 25.8269 31.2193 26.0264 31.6183 26.0929L37.7364 27.0239C39.399 27.2899 40.5295 28.8195 40.2635 30.482C39.9975 32.1446 38.468 33.2751 36.8054 33.0091L30.6873 32.0781C28.6922 31.7456 26.8967 30.6815 25.7661 29.019C25.5001 28.62 25.3006 28.2875 25.0346 27.955L21.111 40.3908L26.5642 45.8439C27.3622 46.6419 28.0272 47.706 28.4262 48.77L32.6158 61.0063C33.2808 62.8018 32.2833 64.7969 30.4878 65.3954C30.0887 65.5284 29.7562 65.5949 29.3572 65.5949C27.8942 65.5949 26.5642 64.6639 26.0321 63.2674L21.8425 51.031C21.776 50.898 21.7095 50.8315 21.643 50.6985L11.9338 40.9228C10.5372 39.5263 10.0052 37.5977 10.4042 35.7357L12.5323 26.2924C12.3328 26.4254 12.1333 26.5584 11.8673 26.6914C11.2688 27.0239 10.8033 27.5559 10.4707 28.1545L7.27866 34.2726C6.74665 35.2701 5.68262 35.8687 4.61859 35.8687C4.15308 35.8687 3.68757 35.7357 3.22205 35.5362C1.75902 34.7381 1.227 32.9426 1.95852 31.4795Z" fill="#0D0D0D"/>
<path id="Vector_3" d="M28.2467 9.76277C28.6481 6.07514 25.9841 2.76035 22.2964 2.35898C18.6088 1.95761 15.294 4.62165 14.8926 8.30928C14.4913 11.9969 17.1553 15.3117 20.8429 15.7131C24.5306 16.1144 27.8454 13.4504 28.2467 9.76277Z" fill="#0D0D0D"/>
</g>
</g>
</g>
<g id="Group_4">
<g id="Group_5">
<g id="Group_6">
<path id="Vector_4" d="M10.3679 43.613L15.7546 48.9997L11.0994 61.5685C10.5674 62.965 9.23739 63.8296 7.84085 63.8296C7.44184 63.8296 7.04283 63.7631 6.64382 63.6301C4.84827 62.965 3.91725 60.97 4.58227 59.1744L10.3679 43.613Z" fill="#000AFF"/>
<path id="Vector_5" d="M0.326198 29.8472L3.51828 23.7291C4.3828 22.133 5.64634 20.803 7.17587 19.872C14.5576 15.4829 15.4886 15.5494 16.4196 15.6159L21.4072 15.9484C22.9368 16.0149 24.0008 16.4139 29.1214 23.9286C29.3209 24.1946 29.587 24.3941 29.986 24.4606L36.1041 25.3916C37.7667 25.6576 38.8972 27.1872 38.6312 28.8497C38.3652 30.5122 36.8356 31.6428 35.1731 31.3768L29.0549 30.4457C27.0599 30.1132 25.2643 29.0492 24.1338 27.3867C23.8678 26.9876 23.6683 26.6551 23.4023 26.3226L19.4787 38.7585L24.9318 44.2116C25.7299 45.0096 26.3949 46.0736 26.7939 47.1377L30.9835 59.374C31.6485 61.1695 30.651 63.1646 28.8554 63.7631C28.4564 63.8961 28.1239 63.9626 27.7249 63.9626C26.2619 63.9626 24.9318 63.0316 24.3998 61.635L20.2102 49.3987C20.1437 49.2657 20.0772 49.1992 20.0107 49.0662L10.3015 39.2905C8.90492 37.8939 8.3729 35.9654 8.77191 34.1033L10.9 24.6601C10.7005 24.7931 10.501 24.9261 10.235 25.0591C9.63644 25.3916 9.17093 25.9236 8.83842 26.5221L5.64633 32.6403C5.11432 33.6378 4.05029 34.2363 2.98627 34.2363C2.52075 34.2363 2.05524 34.1033 1.58973 33.9038C0.126693 33.1058 -0.405321 31.3103 0.326198 29.8472Z" fill="#000AFF"/>
<path id="Vector_6" d="M26.6144 8.13045C27.0158 4.44282 24.3517 1.12803 20.6641 0.726658C16.9765 0.325289 13.6617 2.98933 13.2603 6.67696C12.8589 10.3646 15.523 13.6794 19.2106 14.0807C22.8982 14.4821 26.213 11.8181 26.6144 8.13045Z" fill="#000AFF"/>
</g>
</g>
</g>
</g>
</svg>
