<svg width="48" height="40" viewBox="0 0 48 40" fill="none" xmlns="http://www.w3.org/2000/svg">
<g id="Look" clip-path="url(#clip0_844_22)">
<g id="Layer 2">
<g id="Layer 1">
<path id="Vector" d="M20.4626 9.7356C17.7893 7.97405 14.6552 7.0412 11.4536 7.05411C8.25085 7.04069 5.11558 7.97452 2.44208 9.73819C2.49638 9.56494 2.55327 9.39945 2.61016 9.22102C4.43316 3.91493 7.70939 0.367188 11.4562 0.367188C15.2031 0.367188 18.4741 3.91234 20.2946 9.22361C20.3514 9.39169 20.4083 9.56752 20.4626 9.7356Z" fill="#000AFF"/>
<path id="Vector_2" d="M21.8124 18.8767C21.8161 20.7551 21.6543 22.6302 21.3289 24.4802C20.0024 31.979 16.0823 37.3911 11.4537 37.3911C6.82504 37.3911 2.90494 31.9609 1.57842 24.4802C1.25433 22.63 1.09253 20.755 1.09487 18.8767C1.08569 16.3594 1.38089 13.8502 1.97405 11.4037C2.11369 10.8348 2.27142 10.2814 2.4395 9.74101C5.11331 7.97566 8.24966 7.04087 11.4537 7.05434C14.6551 7.04205 17.789 7.97484 20.4626 9.73583C20.6333 10.2711 20.7885 10.827 20.9307 11.3959C21.526 13.8447 21.8221 16.3566 21.8124 18.8767Z" fill="white"/>
<path id="Vector_3" d="M43.3161 9.73569C40.6371 7.98508 37.5061 7.05281 34.3058 7.05281C31.1055 7.05281 27.9746 7.98508 25.2955 9.73569C25.3498 9.56244 25.4093 9.39695 25.4662 9.21853C27.2763 3.90467 30.568 0.356934 34.3097 0.356934C38.0514 0.356934 41.325 3.91243 43.1351 9.2237C43.2023 9.39178 43.2618 9.56761 43.3161 9.73569Z" fill="#000AFF"/>
<path id="Vector_4" d="M44.6659 18.8762C44.6682 20.7546 44.5064 22.6295 44.1823 24.4797C42.8532 31.9786 38.9331 37.3907 34.3071 37.3907C29.6811 37.3907 25.7584 31.9605 24.4293 24.4797C24.1052 22.6295 23.9434 20.7546 23.9457 18.8762C23.9374 16.3588 24.2334 13.8496 24.8275 11.4032C24.9645 10.8343 25.1223 10.281 25.2929 9.74053C27.9717 7.98929 31.1028 7.05664 34.3032 7.05664C37.5036 7.05664 40.6347 7.98929 43.3135 9.74053C43.4867 10.2758 43.6419 10.8317 43.7815 11.4006C44.3773 13.8476 44.6743 16.3578 44.6659 18.8762Z" fill="white"/>
<path id="Vector_5" d="M46.3777 13.5497C46.2329 12.9575 46.0726 12.3886 45.9045 11.8637C45.8476 11.6905 45.7907 11.5172 45.7313 11.3466C44.5314 7.84278 42.7705 5.21042 40.7122 3.69772C38.897 1.32135 36.6706 0 34.3071 0C30.506 0 27.0668 3.40552 25.1145 9.10983V9.13828C25.0602 9.30118 25.0034 9.46409 24.9516 9.62958C24.7655 10.2269 24.6103 10.7777 24.481 11.3155C24.1885 12.4879 23.9674 13.677 23.8191 14.8762C23.7311 14.4289 23.6355 13.9867 23.5269 13.5497C23.3795 12.9575 23.2217 12.3886 23.0511 11.8637C22.9968 11.6905 22.9373 11.5172 22.8804 11.3466C21.6728 7.84278 19.9222 5.21042 17.8613 3.69772C16.0487 1.32135 13.8223 0 11.4537 0C7.65511 0 4.21856 3.40552 2.2611 9.10983V9.13828C2.20421 9.30118 2.14991 9.46409 2.09819 9.62958C1.90167 10.2269 1.76204 10.7777 1.61723 11.3155C1.01659 13.7907 0.71791 16.3295 0.727712 18.8765C0.725563 20.7764 0.889089 22.673 1.21643 24.5446C2.18353 29.9955 4.43577 34.2052 7.29051 36.2997C9.10059 38.6502 11.3166 40 13.693 40C18.4147 40 22.5287 34.6887 23.9302 26.7839C24.0285 26.2357 24.1087 25.6823 24.1888 25.1212C25.2076 30.2928 27.403 34.2853 30.1569 36.3023C31.967 38.6502 34.1778 40 36.5568 40C41.2759 40 45.3899 34.6887 46.794 26.7839C47.118 24.9129 47.2781 23.0172 47.2724 21.1184C47.2837 18.5684 46.9832 16.0267 46.3777 13.5497ZM11.4537 0.734372C14.7739 0.734372 17.9363 3.83735 19.7826 8.88487C17.2469 7.43486 14.3746 6.67689 11.4537 6.68692C8.53034 6.67634 5.65582 7.43622 3.11959 8.89004C4.96845 3.84511 8.13349 0.734372 11.4537 0.734372ZM2.05682 25.041C2.81809 26.0355 3.88265 26.7547 5.0893 27.09C6.29595 27.4252 7.57897 27.3581 8.74408 26.8988C9.90919 26.4396 10.8929 25.6132 11.5463 24.5448C12.1997 23.4764 12.4872 22.2242 12.3652 20.9779C12.2433 19.7315 11.7185 18.5588 10.8703 17.6373C10.0222 16.7159 8.89692 16.0959 7.66488 15.8712C6.43285 15.6466 5.16116 15.8295 4.04239 16.3923C2.92362 16.9551 2.01871 17.8671 1.46467 18.9902C1.46467 18.954 1.46467 18.9152 1.46467 18.8765C1.45363 16.3888 1.74451 13.909 2.33092 11.4914C2.44987 11.0052 2.5895 10.5088 2.75241 9.97608C5.34201 8.29499 8.3663 7.40703 11.4537 7.42129C14.5386 7.408 17.5605 8.29399 20.1498 9.97091C20.2998 10.4467 20.442 10.9535 20.5739 11.4836C21.1639 13.9033 21.4565 16.3859 21.4453 18.8765C21.448 20.7331 21.2888 22.5863 20.9695 24.4153C19.63 31.9581 15.7979 37.0237 11.4537 37.0237C7.2207 37.0237 3.48936 32.2322 2.05682 25.0359V25.041ZM34.3071 0.734372C37.6247 0.734372 40.7898 3.83735 42.636 8.88487C40.0962 7.44259 37.2254 6.68435 34.3045 6.68435C31.3837 6.68435 28.5129 7.44259 25.973 8.88487C27.8219 3.84511 30.9818 0.734372 34.3071 0.734372ZM24.9077 25.041C25.6664 26.035 26.7279 26.7553 27.9318 27.0932C29.1358 27.4311 30.417 27.3682 31.5821 26.9142C32.7473 26.4601 33.7331 25.6394 34.391 24.576C35.0488 23.5125 35.343 22.264 35.229 21.0187C35.1151 19.7734 34.5993 18.5989 33.7594 17.6725C32.9195 16.7461 31.8011 16.1179 30.5729 15.8828C29.3447 15.6477 28.0734 15.8184 26.9507 16.3691C25.828 16.9199 24.9149 17.8208 24.3491 18.9359L24.3181 18.5377C24.3335 16.1651 24.6242 13.8022 25.1844 11.4965C25.3007 11.0104 25.4429 10.5139 25.6033 9.98125C28.199 8.3149 31.2187 7.42906 34.3032 7.42906C37.3878 7.42906 40.4075 8.3149 43.0032 9.98125C43.1532 10.457 43.2954 10.9639 43.4247 11.494C44.0148 13.9102 44.3083 16.3893 44.2987 18.8765C44.3006 20.7331 44.1405 22.5864 43.8203 24.4153C42.4835 31.9581 38.6487 37.0237 34.3071 37.0237C30.0741 37.0237 26.3428 32.2322 24.9077 25.0359V25.041Z" fill="#0D0D0D"/>
<path id="Vector_6" d="M31.4885 21.6872C32.6796 21.6872 33.6451 20.7216 33.6451 19.5306C33.6451 18.3396 32.6796 17.374 31.4885 17.374C30.2975 17.374 29.332 18.3396 29.332 19.5306C29.332 20.7216 30.2975 21.6872 31.4885 21.6872Z" fill="white"/>
<path id="Vector_7" d="M8.63771 21.6872C9.82875 21.6872 10.7943 20.7216 10.7943 19.5306C10.7943 18.3396 9.82875 17.374 8.63771 17.374C7.44667 17.374 6.48114 18.3396 6.48114 19.5306C6.48114 20.7216 7.44667 21.6872 8.63771 21.6872Z" fill="white"/>
</g>
</g>
</g>
<defs>
<clipPath id="clip0_844_22">
<rect width="46.5447" height="40" fill="white" transform="translate(0.727661)"/>
</clipPath>
</defs>
</svg>
