<svg width="48" height="48" viewBox="0 0 48 48" fill="none" xmlns="http://www.w3.org/2000/svg">
<g id="Group 710">
<circle id="Ellipse 1" cx="24" cy="24" r="24" fill="white"/>
<path id="Union" fill-rule="evenodd" clip-rule="evenodd" d="M17.1429 11.4287C15.4072 11.4287 14.0001 12.8358 14.0001 14.5716V33.4286C14.0001 35.1644 15.4072 36.5715 17.1429 36.5715C18.8787 36.5715 20.2858 35.1644 20.2858 33.4286V14.5716C20.2858 12.8358 18.8787 11.4287 17.1429 11.4287ZM30.8568 11.4287C29.121 11.4287 27.7139 12.8358 27.7139 14.5716V33.4286C27.7139 35.1644 29.121 36.5715 30.8568 36.5715C32.5925 36.5715 33.9996 35.1644 33.9996 33.4286V14.5716C33.9996 12.8358 32.5925 11.4287 30.8568 11.4287Z" fill="#0D0D0D"/>
</g>
</svg>
