<svg width="175" height="197" viewBox="0 0 175 197" fill="none" xmlns="http://www.w3.org/2000/svg">
<path d="M81.6273 36.2505C80.2763 36.2228 79.1704 37.4334 79.1704 38.8791V44.5H78.6884V33.1427C78.6884 31.697 77.5826 30.4865 76.2316 30.5141C74.9224 30.5409 73.8688 31.6847 73.8688 33.0918V44.5H73.3868V30.6291C73.3868 29.1834 72.281 27.9728 70.9299 28.0005C69.6207 28.0273 68.5672 29.1711 68.5672 30.5781V44.5H68.0852V33.2072C68.0852 31.7615 66.9793 30.5509 65.6283 30.5786C64.3191 30.6054 63.2656 31.7492 63.2656 33.1563V48.3667L61.3589 45.5617C60.5761 44.4102 59.069 44.1556 57.9925 44.9931C56.9163 45.8306 56.6783 47.4429 57.4611 48.5945L65.028 59.7259C65.2963 60.1205 65.648 60.4417 66.0544 60.6631C66.4609 60.8846 66.9105 61 67.3667 61H79.2706C80.6125 61 81.7781 60.0123 82.0855 58.6148L83.6825 51.3536C83.8868 50.4246 83.99 49.4735 83.99 48.5192V38.8281C83.9901 37.4211 82.9365 36.2773 81.6273 36.2505Z" fill="#020076"/>
<path d="M24.2476 36.2505C25.5986 36.2228 26.7045 37.4334 26.7045 38.8791V44.5H27.1865V33.1427C27.1865 31.697 28.2924 30.4865 29.6434 30.5141C30.9526 30.5409 32.0061 31.6847 32.0061 33.0918V44.5H32.4881V30.6291C32.4881 29.1834 33.594 27.9728 34.945 28.0005C36.2542 28.0273 37.3078 29.1711 37.3078 30.5781V44.5H37.7897V33.2072C37.7897 31.7615 38.8956 30.5509 40.2466 30.5786C41.5558 30.6054 42.6094 31.7492 42.6094 33.1563V48.3667L44.516 45.5617C45.2988 44.4102 46.8059 44.1556 47.8824 44.9931C48.9587 45.8306 49.1966 47.4429 48.4139 48.5945L40.8469 59.7259C40.5787 60.1205 40.2269 60.4417 39.8205 60.6631C39.414 60.8846 38.9644 61 38.5083 61H26.6043C25.2624 61 24.0968 60.0123 23.7894 58.6148L22.1924 51.3536C21.9881 50.4246 21.8849 49.4735 21.8849 48.5192V38.8281C21.8849 37.4211 22.9384 36.2773 24.2476 36.2505Z" fill="#020076" fill-opacity="0.4"/>
<path d="M29.96 85.24L28.22 81.44C27.78 80.4933 27.2267 79.82 26.56 79.42C25.8933 79.02 25.04 78.82 24 78.82H23.7V85H21.8V71.04C22.5067 70.9733 23.18 70.9267 23.82 70.9C24.4733 70.86 25.1667 70.84 25.9 70.84C27.6067 70.84 28.8867 71.1867 29.74 71.88C30.6067 72.5733 31.04 73.4667 31.04 74.56C31.04 75.5333 30.7467 76.32 30.16 76.92C29.5867 77.5067 28.7533 77.9467 27.66 78.24C28.02 78.4 28.34 78.5933 28.62 78.82C28.9 79.0333 29.1667 79.3267 29.42 79.7C29.6867 80.06 29.9533 80.5333 30.22 81.12L31.74 84.4L29.96 85.24ZM23.7 77.22H25.9C26.86 77.22 27.64 77.0067 28.24 76.58C28.84 76.1533 29.14 75.54 29.14 74.74C29.14 74.0733 28.86 73.5267 28.3 73.1C27.74 72.66 26.94 72.44 25.9 72.44C25.4467 72.44 25.04 72.4467 24.68 72.46C24.32 72.4733 23.9933 72.4933 23.7 72.52V77.22ZM38.1038 85.24C36.6104 85.24 35.4238 84.7667 34.5438 83.82C33.6771 82.86 33.2438 81.52 33.2438 79.8C33.2438 78.76 33.4371 77.8333 33.8238 77.02C34.2238 76.1933 34.7771 75.5467 35.4838 75.08C36.1904 74.6 37.0104 74.36 37.9438 74.36C38.9438 74.36 39.7704 74.58 40.4238 75.02C41.0904 75.4467 41.5904 76.0267 41.9238 76.76C42.2571 77.4933 42.4238 78.3 42.4238 79.18C42.4238 79.6467 42.4038 80.1 42.3638 80.54H35.0838C35.2038 81.5133 35.5438 82.2733 36.1038 82.82C36.6638 83.3667 37.4038 83.64 38.3238 83.64C38.9238 83.64 39.4638 83.58 39.9438 83.46C40.4238 83.3267 40.8838 83.16 41.3238 82.96L41.7438 84.5C41.2638 84.7133 40.7238 84.8867 40.1238 85.02C39.5238 85.1667 38.8504 85.24 38.1038 85.24ZM35.0638 79.08H40.7638C40.7638 78.0667 40.5104 77.2867 40.0038 76.74C39.4971 76.1933 38.7971 75.92 37.9038 75.92C37.1304 75.92 36.4904 76.1933 35.9838 76.74C35.4771 77.2733 35.1704 78.0533 35.0638 79.08ZM49.0227 85.24C48.036 85.24 47.1693 85.0133 46.4227 84.56C45.6893 84.0933 45.1227 83.4533 44.7227 82.64C44.3227 81.8133 44.1227 80.8667 44.1227 79.8C44.1227 78.8 44.3227 77.8867 44.7227 77.06C45.136 76.2333 45.7227 75.58 46.4827 75.1C47.2427 74.6067 48.136 74.36 49.1627 74.36C49.7493 74.36 50.2627 74.4133 50.7027 74.52C51.156 74.6267 51.5893 74.78 52.0027 74.98L51.4627 76.5C51.0893 76.3133 50.7293 76.18 50.3827 76.1C50.0493 76.0067 49.676 75.96 49.2627 75.96C48.3293 75.96 47.5427 76.3 46.9027 76.98C46.276 77.6467 45.9627 78.5733 45.9627 79.76C45.9627 80.48 46.096 81.1333 46.3627 81.72C46.6293 82.3067 46.996 82.7733 47.4627 83.12C47.9427 83.4667 48.5027 83.64 49.1427 83.64C49.6493 83.64 50.0827 83.5867 50.4427 83.48C50.8027 83.36 51.1893 83.1933 51.6027 82.98L52.1627 84.5C51.7493 84.7267 51.2827 84.9067 50.7627 85.04C50.256 85.1733 49.676 85.24 49.0227 85.24ZM54.2563 85V70.2H56.0563V76.26C56.4296 75.7133 56.9029 75.26 57.4763 74.9C58.0496 74.54 58.7229 74.36 59.4963 74.36C60.6696 74.36 61.5429 74.7133 62.1163 75.42C62.7029 76.1267 62.9963 77.06 62.9963 78.22V85H61.1963V78.42C61.1963 77.6733 61.0229 77.0733 60.6763 76.62C60.3296 76.1667 59.8429 75.94 59.2163 75.94C58.6029 75.94 58.0163 76.16 57.4563 76.6C56.9096 77.0267 56.4429 77.5333 56.0563 78.12V85H54.2563ZM69.7322 85.24C68.7322 85.24 67.9389 84.9133 67.3522 84.26C66.7789 83.5933 66.4922 82.6467 66.4922 81.42V76.54H64.6922V74.98H66.5322L66.9122 71.7H68.2922V74.98H71.1722V76.54H68.2922V81.56C68.2922 82.3333 68.4522 82.8733 68.7722 83.18C69.1055 83.4867 69.4989 83.64 69.9522 83.64C70.2855 83.64 70.5989 83.5867 70.8922 83.48C71.1989 83.3733 71.4789 83.2467 71.7322 83.1L72.2322 84.54C71.9655 84.7 71.6055 84.8533 71.1522 85C70.6989 85.16 70.2255 85.24 69.7322 85.24ZM77.0367 85.24C76.2501 85.24 75.5367 85.14 74.8967 84.94C74.2701 84.74 73.7501 84.48 73.3367 84.16L74.0967 82.66C74.4434 82.9533 74.8767 83.2 75.3967 83.4C75.9301 83.5867 76.4967 83.68 77.0967 83.68C77.8434 83.68 78.4034 83.56 78.7767 83.32C79.1634 83.0667 79.3567 82.7467 79.3567 82.36C79.3567 82.08 79.2834 81.8333 79.1367 81.62C79.0034 81.4067 78.7501 81.2 78.3767 81C78.0034 80.7867 77.4634 80.56 76.7567 80.32C75.7834 79.9867 75.0501 79.5933 74.5567 79.14C74.0767 78.6733 73.8367 78.0333 73.8367 77.22C73.8367 76.42 74.1834 75.7467 74.8767 75.2C75.5834 74.64 76.5567 74.36 77.7967 74.36C78.4634 74.36 79.0567 74.4333 79.5767 74.58C80.0967 74.7133 80.5634 74.8867 80.9767 75.1L80.4767 76.58C80.1167 76.3667 79.7034 76.1933 79.2367 76.06C78.7834 75.9267 78.2767 75.86 77.7167 75.86C77.0234 75.86 76.4967 76 76.1367 76.28C75.7767 76.56 75.5967 76.8667 75.5967 77.2C75.5967 77.52 75.7367 77.7933 76.0167 78.02C76.2967 78.2467 76.8434 78.4933 77.6567 78.76C78.9767 79.2 79.8967 79.6867 80.4167 80.22C80.9367 80.7533 81.1967 81.42 81.1967 82.22C81.1967 83.1533 80.8167 83.8933 80.0567 84.44C79.3101 84.9733 78.3034 85.24 77.0367 85.24ZM83.5922 85V70.2H85.3922V76.26C85.7655 75.7133 86.2389 75.26 86.8122 74.9C87.3855 74.54 88.0589 74.36 88.8322 74.36C90.0055 74.36 90.8789 74.7133 91.4522 75.42C92.0389 76.1267 92.3322 77.06 92.3322 78.22V85H90.5322V78.42C90.5322 77.6733 90.3589 77.0733 90.0122 76.62C89.6655 76.1667 89.1789 75.94 88.5522 75.94C87.9389 75.94 87.3522 76.16 86.7922 76.6C86.2455 77.0267 85.7789 77.5333 85.3922 78.12V85H83.5922ZM99.4081 85.24C98.5415 85.24 97.7548 85.02 97.0481 84.58C96.3415 84.14 95.7748 83.52 95.3481 82.72C94.9348 81.9067 94.7281 80.9533 94.7281 79.86C94.7281 78.82 94.9348 77.8867 95.3481 77.06C95.7748 76.2333 96.3548 75.58 97.0881 75.1C97.8348 74.6067 98.6881 74.36 99.6481 74.36C100.248 74.36 100.788 74.4667 101.268 74.68C101.761 74.88 102.188 75.1333 102.548 75.44V74.6H104.188V82.48C104.188 82.9867 104.308 83.32 104.548 83.48C104.801 83.6267 105.075 83.7 105.368 83.7L104.988 85.1C103.708 85.1 102.935 84.58 102.668 83.54C102.361 83.9667 101.941 84.36 101.408 84.72C100.888 85.0667 100.221 85.24 99.4081 85.24ZM99.8081 83.64C100.315 83.64 100.795 83.52 101.248 83.28C101.701 83.0267 102.081 82.7133 102.388 82.34V76.76C102.028 76.5067 101.628 76.3067 101.188 76.16C100.761 76 100.308 75.92 99.8281 75.92C99.1881 75.92 98.6215 76.0867 98.1281 76.42C97.6481 76.74 97.2681 77.1933 96.9881 77.78C96.7081 78.3533 96.5681 79.0267 96.5681 79.8C96.5681 80.5467 96.7081 81.2133 96.9881 81.8C97.2681 82.3733 97.6548 82.8267 98.1481 83.16C98.6415 83.48 99.1948 83.64 99.8081 83.64ZM101.828 72.86C101.495 72.86 101.208 72.74 100.968 72.5C100.741 72.26 100.628 71.98 100.628 71.66C100.628 71.3 100.735 71.0133 100.948 70.8C101.161 70.5733 101.455 70.46 101.828 70.46C102.161 70.46 102.441 70.58 102.668 70.82C102.908 71.06 103.028 71.34 103.028 71.66C103.028 72.02 102.921 72.3133 102.708 72.54C102.495 72.7533 102.201 72.86 101.828 72.86ZM98.1881 72.86C97.8548 72.86 97.5681 72.74 97.3281 72.5C97.1015 72.26 96.9881 71.98 96.9881 71.66C96.9881 71.3 97.0948 71.0133 97.3081 70.8C97.5215 70.5733 97.8148 70.46 98.1881 70.46C98.5215 70.46 98.8015 70.58 99.0281 70.82C99.2681 71.06 99.3881 71.34 99.3881 71.66C99.3881 72.02 99.2815 72.3133 99.0681 72.54C98.8548 72.7533 98.5615 72.86 98.1881 72.86ZM107.772 85V74.6H109.512V76.34C109.885 75.78 110.359 75.3133 110.932 74.94C111.519 74.5533 112.212 74.36 113.012 74.36C114.185 74.36 115.059 74.7133 115.632 75.42C116.219 76.1267 116.512 77.06 116.512 78.22V85H114.712V78.42C114.712 77.6733 114.532 77.0733 114.172 76.62C113.825 76.1667 113.339 75.94 112.712 75.94C112.099 75.94 111.519 76.16 110.972 76.6C110.425 77.0267 109.959 77.5333 109.572 78.12V85H107.772ZM123.548 85.24C122.694 85.24 121.914 85.02 121.208 84.58C120.501 84.14 119.941 83.52 119.528 82.72C119.114 81.9067 118.908 80.9533 118.908 79.86C118.908 78.8067 119.114 77.8667 119.528 77.04C119.954 76.2133 120.514 75.56 121.208 75.08C121.914 74.6 122.688 74.36 123.528 74.36C124.221 74.36 124.814 74.5 125.308 74.78C125.814 75.06 126.208 75.3467 126.488 75.64V70.2H128.288V82.48C128.288 82.9867 128.408 83.32 128.648 83.48C128.901 83.6267 129.174 83.7 129.468 83.7L129.088 85.1C127.821 85.1 127.048 84.5933 126.768 83.58C126.474 83.9933 126.061 84.3733 125.528 84.72C125.008 85.0667 124.348 85.24 123.548 85.24ZM123.948 83.64C124.441 83.64 124.908 83.5267 125.348 83.3C125.801 83.06 126.181 82.7533 126.488 82.38V77.22C126.234 76.9 125.881 76.6067 125.428 76.34C124.974 76.06 124.474 75.92 123.928 75.92C123.288 75.92 122.728 76.0933 122.248 76.44C121.768 76.7867 121.394 77.2533 121.128 77.84C120.874 78.4133 120.748 79.0667 120.748 79.8C120.748 80.5333 120.888 81.1933 121.168 81.78C121.448 82.3533 121.828 82.8067 122.308 83.14C122.801 83.4733 123.348 83.64 123.948 83.64ZM131.873 85V74.6H133.673V85H131.873ZM132.773 72.82C132.427 72.82 132.127 72.6933 131.873 72.44C131.633 72.1867 131.513 71.8933 131.513 71.56C131.513 71.1733 131.627 70.8667 131.853 70.64C132.08 70.4133 132.387 70.3 132.773 70.3C133.12 70.3 133.413 70.4267 133.653 70.68C133.907 70.92 134.033 71.2133 134.033 71.56C134.033 71.9333 133.92 72.24 133.693 72.48C133.467 72.7067 133.16 72.82 132.773 72.82ZM140.693 89.64C140.08 89.64 139.48 89.5667 138.893 89.42C138.32 89.2733 137.807 89.0533 137.353 88.76L138.013 87.2C138.333 87.4533 138.707 87.66 139.133 87.82C139.56 87.9933 140.08 88.08 140.693 88.08C141.64 88.08 142.38 87.8267 142.913 87.32C143.46 86.8267 143.733 86.0333 143.733 84.94V83.66C143.467 83.98 143.08 84.2867 142.573 84.58C142.08 84.86 141.487 85 140.793 85C140.007 85 139.26 84.8 138.553 84.4C137.847 83.9867 137.273 83.3867 136.833 82.6C136.393 81.8133 136.173 80.8667 136.173 79.76C136.173 78.72 136.387 77.7933 136.813 76.98C137.253 76.1667 137.84 75.5267 138.573 75.06C139.307 74.5933 140.113 74.36 140.993 74.36C141.58 74.36 142.113 74.46 142.593 74.66C143.073 74.86 143.487 75.1067 143.833 75.4V74.6H145.473V84.76C145.473 85.9067 145.273 86.84 144.873 87.56C144.473 88.28 143.913 88.8067 143.193 89.14C142.487 89.4733 141.653 89.64 140.693 89.64ZM141.193 83.4C141.727 83.4 142.207 83.28 142.633 83.04C143.06 82.8 143.407 82.52 143.673 82.2V76.76C143.38 76.5467 143.027 76.3533 142.613 76.18C142.2 76.0067 141.72 75.92 141.173 75.92C140.627 75.92 140.113 76.0667 139.633 76.36C139.153 76.6533 138.76 77.08 138.453 77.64C138.16 78.1867 138.013 78.86 138.013 79.66C138.013 80.42 138.16 81.08 138.453 81.64C138.76 82.2 139.153 82.6333 139.633 82.94C140.113 83.2467 140.633 83.4 141.193 83.4Z" fill="#020076"/>
<path d="M81.6375 117.25C80.2866 117.223 79.1808 118.433 79.1808 119.879V125.5H78.6988V114.143C78.6988 112.697 77.5931 111.486 76.2422 111.514C74.9331 111.541 73.8796 112.685 73.8796 114.092V125.5H73.3976V111.629C73.3976 110.183 72.2919 108.973 70.941 109C69.6319 109.027 68.5784 110.171 68.5784 111.578V125.5H68.0964V114.207C68.0964 112.761 66.9906 111.551 65.6397 111.579C64.3306 111.605 63.2772 112.749 63.2772 114.156V129.367L61.3706 126.562C60.5879 125.41 59.0809 125.156 58.0046 125.993C56.9284 126.831 56.6904 128.443 57.4731 129.595L65.0394 140.726C65.3077 141.121 65.6594 141.442 66.0658 141.663C66.4722 141.885 66.9219 142 67.3779 142H79.281C80.6228 142 81.7883 141.012 82.0957 139.615L83.6925 132.354C83.8968 131.425 84 130.474 84 129.519V119.828C84.0001 118.421 82.9466 117.277 81.6375 117.25Z" fill="#020076" fill-opacity="0.4"/>
<path d="M22.3625 117.25C23.7134 117.223 24.8192 118.433 24.8192 119.879V125.5H25.3011V114.143C25.3011 112.697 26.4069 111.486 27.7578 111.514C29.0669 111.541 30.1204 112.685 30.1204 114.092V125.5H30.6024V111.629C30.6024 110.183 31.7081 108.973 33.059 109C34.3681 109.027 35.4216 110.171 35.4216 111.578V125.5H35.9036V114.207C35.9036 112.761 37.0093 111.551 38.3603 111.579C39.6693 111.605 40.7228 112.749 40.7228 114.156V129.367L42.6293 126.562C43.4121 125.41 44.919 125.156 45.9954 125.993C47.0716 126.831 47.3096 128.443 46.5269 129.595L38.9606 140.726C38.6923 141.121 38.3406 141.442 37.9342 141.663C37.5278 141.885 37.0781 142 36.6221 142H24.719C23.3772 142 22.2117 141.012 21.9043 139.615L20.3075 132.354C20.1032 131.425 20 130.474 20 129.519V119.828C19.9999 118.421 21.0534 117.277 22.3625 117.25Z" fill="#020076"/>
<path d="M20.8 168V154H22.7V166.3H29.12V168H20.8ZM30.8148 168V157.6H32.6148V168H30.8148ZM31.7148 155.82C31.3682 155.82 31.0682 155.693 30.8148 155.44C30.5748 155.187 30.4548 154.893 30.4548 154.56C30.4548 154.173 30.5682 153.867 30.7948 153.64C31.0215 153.413 31.3282 153.3 31.7148 153.3C32.0615 153.3 32.3548 153.427 32.5948 153.68C32.8482 153.92 32.9748 154.213 32.9748 154.56C32.9748 154.933 32.8615 155.24 32.6348 155.48C32.4082 155.707 32.1015 155.82 31.7148 155.82ZM35.8148 168V157.6H37.5548V159.34C37.9282 158.78 38.4015 158.313 38.9748 157.94C39.5615 157.553 40.2548 157.36 41.0548 157.36C42.2282 157.36 43.1015 157.713 43.6748 158.42C44.2615 159.127 44.5548 160.06 44.5548 161.22V168H42.7548V161.42C42.7548 160.673 42.5748 160.073 42.2148 159.62C41.8682 159.167 41.3815 158.94 40.7548 158.94C40.1415 158.94 39.5615 159.16 39.0148 159.6C38.4682 160.027 38.0015 160.533 37.6148 161.12V168H35.8148ZM54.8308 168.2L49.4508 162.66V168H47.6508V153.2H49.4508V161.66L54.1508 157.4L55.1908 158.54L51.1708 162.1L56.0708 167L54.8308 168.2ZM60.6656 168.24C59.879 168.24 59.1656 168.14 58.5256 167.94C57.899 167.74 57.379 167.48 56.9656 167.16L57.7256 165.66C58.0723 165.953 58.5056 166.2 59.0256 166.4C59.559 166.587 60.1256 166.68 60.7256 166.68C61.4723 166.68 62.0323 166.56 62.4056 166.32C62.7923 166.067 62.9856 165.747 62.9856 165.36C62.9856 165.08 62.9123 164.833 62.7656 164.62C62.6323 164.407 62.379 164.2 62.0056 164C61.6323 163.787 61.0923 163.56 60.3856 163.32C59.4123 162.987 58.679 162.593 58.1856 162.14C57.7056 161.673 57.4656 161.033 57.4656 160.22C57.4656 159.42 57.8123 158.747 58.5056 158.2C59.2123 157.64 60.1856 157.36 61.4256 157.36C62.0923 157.36 62.6856 157.433 63.2056 157.58C63.7256 157.713 64.1923 157.887 64.6056 158.1L64.1056 159.58C63.7456 159.367 63.3323 159.193 62.8656 159.06C62.4123 158.927 61.9056 158.86 61.3456 158.86C60.6523 158.86 60.1256 159 59.7656 159.28C59.4056 159.56 59.2256 159.867 59.2256 160.2C59.2256 160.52 59.3656 160.793 59.6456 161.02C59.9256 161.247 60.4723 161.493 61.2856 161.76C62.6056 162.2 63.5256 162.687 64.0456 163.22C64.5656 163.753 64.8256 164.42 64.8256 165.22C64.8256 166.153 64.4456 166.893 63.6856 167.44C62.939 167.973 61.9323 168.24 60.6656 168.24ZM67.2211 168V153.2H69.0211V159.26C69.3944 158.713 69.8678 158.26 70.4411 157.9C71.0144 157.54 71.6878 157.36 72.4611 157.36C73.6344 157.36 74.5078 157.713 75.0811 158.42C75.6678 159.127 75.9611 160.06 75.9611 161.22V168H74.1611V161.42C74.1611 160.673 73.9878 160.073 73.6411 159.62C73.2944 159.167 72.8078 158.94 72.1811 158.94C71.5678 158.94 70.9811 159.16 70.4211 159.6C69.8744 160.027 69.4078 160.533 69.0211 161.12V168H67.2211ZM83.037 168.24C82.1704 168.24 81.3837 168.02 80.677 167.58C79.9704 167.14 79.4037 166.52 78.977 165.72C78.5637 164.907 78.357 163.953 78.357 162.86C78.357 161.82 78.5637 160.887 78.977 160.06C79.4037 159.233 79.9837 158.58 80.717 158.1C81.4637 157.607 82.317 157.36 83.277 157.36C83.877 157.36 84.417 157.467 84.897 157.68C85.3904 157.88 85.817 158.133 86.177 158.44V157.6H87.817V165.48C87.817 165.987 87.937 166.32 88.177 166.48C88.4304 166.627 88.7037 166.7 88.997 166.7L88.617 168.1C87.337 168.1 86.5637 167.58 86.297 166.54C85.9904 166.967 85.5704 167.36 85.037 167.72C84.517 168.067 83.8504 168.24 83.037 168.24ZM83.437 166.64C83.9437 166.64 84.4237 166.52 84.877 166.28C85.3304 166.027 85.7104 165.713 86.017 165.34V159.76C85.657 159.507 85.257 159.307 84.817 159.16C84.3904 159 83.937 158.92 83.457 158.92C82.817 158.92 82.2504 159.087 81.757 159.42C81.277 159.74 80.897 160.193 80.617 160.78C80.337 161.353 80.197 162.027 80.197 162.8C80.197 163.547 80.337 164.213 80.617 164.8C80.897 165.373 81.2837 165.827 81.777 166.16C82.2704 166.48 82.8237 166.64 83.437 166.64ZM85.457 155.86C85.1237 155.86 84.837 155.74 84.597 155.5C84.3704 155.26 84.257 154.98 84.257 154.66C84.257 154.3 84.3637 154.013 84.577 153.8C84.7904 153.573 85.0837 153.46 85.457 153.46C85.7904 153.46 86.0704 153.58 86.297 153.82C86.537 154.06 86.657 154.34 86.657 154.66C86.657 155.02 86.5504 155.313 86.337 155.54C86.1237 155.753 85.8304 155.86 85.457 155.86ZM81.817 155.86C81.4837 155.86 81.197 155.74 80.957 155.5C80.7304 155.26 80.617 154.98 80.617 154.66C80.617 154.3 80.7237 154.013 80.937 153.8C81.1504 153.573 81.4437 153.46 81.817 153.46C82.1504 153.46 82.4304 153.58 82.657 153.82C82.897 154.06 83.017 154.34 83.017 154.66C83.017 155.02 82.9104 155.313 82.697 155.54C82.4837 155.753 82.1904 155.86 81.817 155.86ZM91.4008 168V157.6H93.1408V159.34C93.5141 158.78 93.9874 158.313 94.5608 157.94C95.1474 157.553 95.8408 157.36 96.6408 157.36C97.8141 157.36 98.6874 157.713 99.2608 158.42C99.8474 159.127 100.141 160.06 100.141 161.22V168H98.3408V161.42C98.3408 160.673 98.1608 160.073 97.8008 159.62C97.4541 159.167 96.9674 158.94 96.3408 158.94C95.7274 158.94 95.1474 159.16 94.6008 159.6C94.0541 160.027 93.5874 160.533 93.2008 161.12V168H91.4008ZM107.177 168.24C106.323 168.24 105.543 168.02 104.837 167.58C104.13 167.14 103.57 166.52 103.157 165.72C102.743 164.907 102.537 163.953 102.537 162.86C102.537 161.807 102.743 160.867 103.157 160.04C103.583 159.213 104.143 158.56 104.837 158.08C105.543 157.6 106.317 157.36 107.157 157.36C107.85 157.36 108.443 157.5 108.937 157.78C109.443 158.06 109.837 158.347 110.117 158.64V153.2H111.917V165.48C111.917 165.987 112.037 166.32 112.277 166.48C112.53 166.627 112.803 166.7 113.097 166.7L112.717 168.1C111.45 168.1 110.677 167.593 110.397 166.58C110.103 166.993 109.69 167.373 109.157 167.72C108.637 168.067 107.977 168.24 107.177 168.24ZM107.577 166.64C108.07 166.64 108.537 166.527 108.977 166.3C109.43 166.06 109.81 165.753 110.117 165.38V160.22C109.863 159.9 109.51 159.607 109.057 159.34C108.603 159.06 108.103 158.92 107.557 158.92C106.917 158.92 106.357 159.093 105.877 159.44C105.397 159.787 105.023 160.253 104.757 160.84C104.503 161.413 104.377 162.067 104.377 162.8C104.377 163.533 104.517 164.193 104.797 164.78C105.077 165.353 105.457 165.807 105.937 166.14C106.43 166.473 106.977 166.64 107.577 166.64ZM115.502 168V157.6H117.302V168H115.502ZM116.402 155.82C116.056 155.82 115.756 155.693 115.502 155.44C115.262 155.187 115.142 154.893 115.142 154.56C115.142 154.173 115.256 153.867 115.482 153.64C115.709 153.413 116.016 153.3 116.402 153.3C116.749 153.3 117.042 153.427 117.282 153.68C117.536 153.92 117.662 154.213 117.662 154.56C117.662 154.933 117.549 155.24 117.322 155.48C117.096 155.707 116.789 155.82 116.402 155.82ZM124.322 172.64C123.709 172.64 123.109 172.567 122.522 172.42C121.949 172.273 121.436 172.053 120.982 171.76L121.642 170.2C121.962 170.453 122.336 170.66 122.762 170.82C123.189 170.993 123.709 171.08 124.322 171.08C125.269 171.08 126.009 170.827 126.542 170.32C127.089 169.827 127.362 169.033 127.362 167.94V166.66C127.096 166.98 126.709 167.287 126.202 167.58C125.709 167.86 125.116 168 124.422 168C123.636 168 122.889 167.8 122.182 167.4C121.476 166.987 120.902 166.387 120.462 165.6C120.022 164.813 119.802 163.867 119.802 162.76C119.802 161.72 120.016 160.793 120.442 159.98C120.882 159.167 121.469 158.527 122.202 158.06C122.936 157.593 123.742 157.36 124.622 157.36C125.209 157.36 125.742 157.46 126.222 157.66C126.702 157.86 127.116 158.107 127.462 158.4V157.6H129.102V167.76C129.102 168.907 128.902 169.84 128.502 170.56C128.102 171.28 127.542 171.807 126.822 172.14C126.116 172.473 125.282 172.64 124.322 172.64ZM124.822 166.4C125.356 166.4 125.836 166.28 126.262 166.04C126.689 165.8 127.036 165.52 127.302 165.2V159.76C127.009 159.547 126.656 159.353 126.242 159.18C125.829 159.007 125.349 158.92 124.802 158.92C124.256 158.92 123.742 159.067 123.262 159.36C122.782 159.653 122.389 160.08 122.082 160.64C121.789 161.187 121.642 161.86 121.642 162.66C121.642 163.42 121.789 164.08 122.082 164.64C122.389 165.2 122.782 165.633 123.262 165.94C123.742 166.247 124.262 166.4 124.822 166.4Z" fill="#020076"/>
<rect x="0.5" y="0.5" width="174" height="196" rx="4.5" stroke="#7B61FF" stroke-dasharray="10 5"/>
</svg>
