<svg width="281" height="156" viewBox="0 0 281 156" fill="none" xmlns="http://www.w3.org/2000/svg">
<g filter="url(#filter0_d_2_148)">
<rect x="20" y="20" width="241" height="48" rx="4" fill="#020076"/>
<path d="M99.8102 51.24C99.0235 51.24 98.3102 51.14 97.6702 50.94C97.0435 50.74 96.5235 50.48 96.1102 50.16L96.8702 48.66C97.2168 48.9533 97.6502 49.2 98.1702 49.4C98.7035 49.5867 99.2702 49.68 99.8702 49.68C100.617 49.68 101.177 49.56 101.55 49.32C101.937 49.0667 102.13 48.7467 102.13 48.36C102.13 48.08 102.057 47.8333 101.91 47.62C101.777 47.4067 101.523 47.2 101.15 47C100.777 46.7867 100.237 46.56 99.5302 46.32C98.5568 45.9867 97.8235 45.5933 97.3302 45.14C96.8502 44.6733 96.6102 44.0333 96.6102 43.22C96.6102 42.42 96.9568 41.7467 97.6502 41.2C98.3568 40.64 99.3302 40.36 100.57 40.36C101.237 40.36 101.83 40.4333 102.35 40.58C102.87 40.7133 103.337 40.8867 103.75 41.1L103.25 42.58C102.89 42.3667 102.477 42.1933 102.01 42.06C101.557 41.9267 101.05 41.86 100.49 41.86C99.7968 41.86 99.2702 42 98.9102 42.28C98.5502 42.56 98.3702 42.8667 98.3702 43.2C98.3702 43.52 98.5102 43.7933 98.7902 44.02C99.0702 44.2467 99.6168 44.4933 100.43 44.76C101.75 45.2 102.67 45.6867 103.19 46.22C103.71 46.7533 103.97 47.42 103.97 48.22C103.97 49.1533 103.59 49.8933 102.83 50.44C102.083 50.9733 101.077 51.24 99.8102 51.24ZM106.453 55.4V43.26C106.453 42.8067 106.339 42.4867 106.113 42.3C105.899 42.1 105.619 42 105.273 42L105.653 40.6C106.879 40.6 107.646 41.0867 107.953 42.06C108.086 41.86 108.299 41.6267 108.593 41.36C108.899 41.0933 109.273 40.86 109.713 40.66C110.166 40.46 110.679 40.36 111.253 40.36C112.053 40.36 112.799 40.5733 113.493 41C114.199 41.4133 114.766 42.02 115.193 42.82C115.619 43.6067 115.833 44.5667 115.833 45.7C115.833 46.8067 115.619 47.78 115.193 48.62C114.766 49.4467 114.206 50.0933 113.513 50.56C112.833 51.0133 112.093 51.24 111.293 51.24C110.679 51.24 110.106 51.12 109.573 50.88C109.039 50.6267 108.599 50.34 108.253 50.02V55.4H106.453ZM110.933 49.64C111.839 49.64 112.573 49.2867 113.133 48.58C113.706 47.86 113.993 46.92 113.993 45.76C113.993 44.96 113.846 44.2733 113.553 43.7C113.273 43.1267 112.893 42.6867 112.413 42.38C111.946 42.0733 111.426 41.92 110.853 41.92C110.279 41.92 109.759 42.0667 109.293 42.36C108.839 42.64 108.493 42.9467 108.253 43.28V48.4C108.599 48.76 108.999 49.06 109.453 49.3C109.906 49.5267 110.399 49.64 110.933 49.64ZM122.498 51.24C121.005 51.24 119.818 50.7667 118.938 49.82C118.072 48.86 117.638 47.52 117.638 45.8C117.638 44.76 117.832 43.8333 118.218 43.02C118.618 42.1933 119.172 41.5467 119.878 41.08C120.585 40.6 121.405 40.36 122.338 40.36C123.338 40.36 124.165 40.58 124.818 41.02C125.485 41.4467 125.985 42.0267 126.318 42.76C126.652 43.4933 126.818 44.3 126.818 45.18C126.818 45.6467 126.798 46.1 126.758 46.54H119.478C119.598 47.5133 119.938 48.2733 120.498 48.82C121.058 49.3667 121.798 49.64 122.718 49.64C123.318 49.64 123.858 49.58 124.338 49.46C124.818 49.3267 125.278 49.16 125.718 48.96L126.138 50.5C125.658 50.7133 125.118 50.8867 124.518 51.02C123.918 51.1667 123.245 51.24 122.498 51.24ZM119.458 45.08H125.158C125.158 44.0667 124.905 43.2867 124.398 42.74C123.892 42.1933 123.192 41.92 122.298 41.92C121.525 41.92 120.885 42.1933 120.378 42.74C119.872 43.2733 119.565 44.0533 119.458 45.08ZM129.217 51V40.6H131.017V51H129.217ZM130.117 38.82C129.771 38.82 129.471 38.6933 129.217 38.44C128.977 38.1867 128.857 37.8933 128.857 37.56C128.857 37.1733 128.971 36.8667 129.197 36.64C129.424 36.4133 129.731 36.3 130.117 36.3C130.464 36.3 130.757 36.4267 130.997 36.68C131.251 36.92 131.377 37.2133 131.377 37.56C131.377 37.9333 131.264 38.24 131.037 38.48C130.811 38.7067 130.504 38.82 130.117 38.82ZM138.417 51.24C137.431 51.24 136.564 51.0133 135.817 50.56C135.084 50.0933 134.517 49.4533 134.117 48.64C133.717 47.8133 133.517 46.8667 133.517 45.8C133.517 44.8 133.717 43.8867 134.117 43.06C134.531 42.2333 135.117 41.58 135.877 41.1C136.637 40.6067 137.531 40.36 138.557 40.36C139.144 40.36 139.657 40.4133 140.097 40.52C140.551 40.6267 140.984 40.78 141.397 40.98L140.857 42.5C140.484 42.3133 140.124 42.18 139.777 42.1C139.444 42.0067 139.071 41.96 138.657 41.96C137.724 41.96 136.937 42.3 136.297 42.98C135.671 43.6467 135.357 44.5733 135.357 45.76C135.357 46.48 135.491 47.1333 135.757 47.72C136.024 48.3067 136.391 48.7733 136.857 49.12C137.337 49.4667 137.897 49.64 138.537 49.64C139.044 49.64 139.477 49.5867 139.837 49.48C140.197 49.36 140.584 49.1933 140.997 48.98L141.557 50.5C141.144 50.7267 140.677 50.9067 140.157 51.04C139.651 51.1733 139.071 51.24 138.417 51.24ZM143.651 51V36.2H145.451V42.26C145.824 41.7133 146.297 41.26 146.871 40.9C147.444 40.54 148.117 40.36 148.891 40.36C150.064 40.36 150.937 40.7133 151.511 41.42C152.097 42.1267 152.391 43.06 152.391 44.22V51H150.591V44.42C150.591 43.6733 150.417 43.0733 150.071 42.62C149.724 42.1667 149.237 41.94 148.611 41.94C147.997 41.94 147.411 42.16 146.851 42.6C146.304 43.0267 145.837 43.5333 145.451 44.12V51H143.651ZM159.647 51.24C158.153 51.24 156.967 50.7667 156.087 49.82C155.22 48.86 154.787 47.52 154.787 45.8C154.787 44.76 154.98 43.8333 155.367 43.02C155.767 42.1933 156.32 41.5467 157.027 41.08C157.733 40.6 158.553 40.36 159.487 40.36C160.487 40.36 161.313 40.58 161.967 41.02C162.633 41.4467 163.133 42.0267 163.467 42.76C163.8 43.4933 163.967 44.3 163.967 45.18C163.967 45.6467 163.947 46.1 163.907 46.54H156.627C156.747 47.5133 157.087 48.2733 157.647 48.82C158.207 49.3667 158.947 49.64 159.867 49.64C160.467 49.64 161.007 49.58 161.487 49.46C161.967 49.3267 162.427 49.16 162.867 48.96L163.287 50.5C162.807 50.7133 162.267 50.8867 161.667 51.02C161.067 51.1667 160.393 51.24 159.647 51.24ZM156.607 45.08H162.307C162.307 44.0667 162.053 43.2867 161.547 42.74C161.04 42.1933 160.34 41.92 159.447 41.92C158.673 41.92 158.033 42.1933 157.527 42.74C157.02 43.2733 156.713 44.0533 156.607 45.08ZM166.366 51V40.6H168.106V42.86C168.279 42.42 168.512 42.0133 168.806 41.64C169.099 41.2533 169.466 40.9467 169.906 40.72C170.346 40.48 170.859 40.36 171.446 40.36C171.646 40.36 171.846 40.3733 172.046 40.4C172.246 40.4133 172.412 40.44 172.546 40.48L172.006 42.34C171.752 42.2333 171.452 42.18 171.106 42.18C170.612 42.18 170.139 42.32 169.686 42.6C169.246 42.88 168.879 43.3133 168.586 43.9C168.306 44.4867 168.166 45.2333 168.166 46.14V51H166.366ZM174.354 51V40.6H176.094V42.34C176.467 41.78 176.941 41.3133 177.514 40.94C178.101 40.5533 178.794 40.36 179.594 40.36C180.767 40.36 181.641 40.7133 182.214 41.42C182.801 42.1267 183.094 43.06 183.094 44.22V51H181.294V44.42C181.294 43.6733 181.114 43.0733 180.754 42.62C180.407 42.1667 179.921 41.94 179.294 41.94C178.681 41.94 178.101 42.16 177.554 42.6C177.007 43.0267 176.541 43.5333 176.154 44.12V51H174.354Z" fill="#E4EFFF"/>
</g>
<g filter="url(#filter1_d_2_148)">
<rect x="20" y="88" width="241" height="48" rx="4" fill="#020076"/>
</g>
<path d="M157.105 103.642C158.212 102.627 158.307 100.885 157.308 99.7735L156.565 98.9093C155.566 97.7845 153.852 97.6885 152.758 98.7035L136.112 113.902C135.005 114.917 133.291 114.821 132.305 113.696L128.539 109.457C127.54 108.333 125.825 108.237 124.732 109.252L123.895 110.02C122.788 111.035 122.693 112.777 123.692 113.888L131.792 123.037C132.791 124.162 133.642 125.04 133.682 124.999C133.736 124.957 133.777 124.916 133.777 124.93C133.777 124.93 134.695 124.107 135.788 123.106L157.105 103.642Z" fill="#E4EFFF"/>
<rect x="0.5" y="0.5" width="280" height="155" rx="4.5" stroke="#9747FF" stroke-dasharray="10 5"/>
<defs>
<filter id="filter0_d_2_148" x="16" y="18" width="249" height="56" filterUnits="userSpaceOnUse" color-interpolation-filters="sRGB">
<feFlood flood-opacity="0" result="BackgroundImageFix"/>
<feColorMatrix in="SourceAlpha" type="matrix" values="0 0 0 0 0 0 0 0 0 0 0 0 0 0 0 0 0 0 127 0" result="hardAlpha"/>
<feOffset dy="2"/>
<feGaussianBlur stdDeviation="2"/>
<feComposite in2="hardAlpha" operator="out"/>
<feColorMatrix type="matrix" values="0 0 0 0 0 0 0 0 0 0 0 0 0 0 0 0 0 0 0.25 0"/>
<feBlend mode="normal" in2="BackgroundImageFix" result="effect1_dropShadow_2_148"/>
<feBlend mode="normal" in="SourceGraphic" in2="effect1_dropShadow_2_148" result="shape"/>
</filter>
<filter id="filter1_d_2_148" x="16" y="86" width="249" height="56" filterUnits="userSpaceOnUse" color-interpolation-filters="sRGB">
<feFlood flood-opacity="0" result="BackgroundImageFix"/>
<feColorMatrix in="SourceAlpha" type="matrix" values="0 0 0 0 0 0 0 0 0 0 0 0 0 0 0 0 0 0 127 0" result="hardAlpha"/>
<feOffset dy="2"/>
<feGaussianBlur stdDeviation="2"/>
<feComposite in2="hardAlpha" operator="out"/>
<feColorMatrix type="matrix" values="0 0 0 0 0 0 0 0 0 0 0 0 0 0 0 0 0 0 0.25 0"/>
<feBlend mode="normal" in2="BackgroundImageFix" result="effect1_dropShadow_2_148"/>
<feBlend mode="normal" in="SourceGraphic" in2="effect1_dropShadow_2_148" result="shape"/>
</filter>
</defs>
</svg>
