<svg width="249" height="56" viewBox="0 0 249 56" fill="none" xmlns="http://www.w3.org/2000/svg">
<g filter="url(#filter0_d_815_1586)">
<rect x="4" y="2" width="241" height="48" rx="4" fill="#E4EFFF"/>
<path d="M83.8102 33.24C83.0235 33.24 82.3102 33.14 81.6702 32.94C81.0435 32.74 80.5235 32.48 80.1102 32.16L80.8702 30.66C81.2168 30.9533 81.6502 31.2 82.1702 31.4C82.7035 31.5867 83.2702 31.68 83.8702 31.68C84.6168 31.68 85.1768 31.56 85.5502 31.32C85.9368 31.0667 86.1302 30.7467 86.1302 30.36C86.1302 30.08 86.0568 29.8333 85.9102 29.62C85.7768 29.4067 85.5235 29.2 85.1502 29C84.7768 28.7867 84.2368 28.56 83.5302 28.32C82.5568 27.9867 81.8235 27.5933 81.3302 27.14C80.8502 26.6733 80.6102 26.0333 80.6102 25.22C80.6102 24.42 80.9568 23.7467 81.6502 23.2C82.3568 22.64 83.3302 22.36 84.5702 22.36C85.2368 22.36 85.8302 22.4333 86.3502 22.58C86.8702 22.7133 87.3368 22.8867 87.7502 23.1L87.2502 24.58C86.8902 24.3667 86.4768 24.1933 86.0102 24.06C85.5568 23.9267 85.0502 23.86 84.4902 23.86C83.7968 23.86 83.2702 24 82.9102 24.28C82.5502 24.56 82.3702 24.8667 82.3702 25.2C82.3702 25.52 82.5102 25.7933 82.7902 26.02C83.0702 26.2467 83.6168 26.4933 84.4302 26.76C85.7502 27.2 86.6702 27.6867 87.1902 28.22C87.7102 28.7533 87.9702 29.42 87.9702 30.22C87.9702 31.1533 87.5902 31.8933 86.8302 32.44C86.0835 32.9733 85.0768 33.24 83.8102 33.24ZM90.4527 37.4V25.26C90.4527 24.8067 90.3393 24.4867 90.1127 24.3C89.8993 24.1 89.6193 24 89.2727 24L89.6527 22.6C90.8793 22.6 91.646 23.0867 91.9527 24.06C92.086 23.86 92.2993 23.6267 92.5927 23.36C92.8993 23.0933 93.2727 22.86 93.7127 22.66C94.166 22.46 94.6793 22.36 95.2527 22.36C96.0527 22.36 96.7993 22.5733 97.4927 23C98.1993 23.4133 98.766 24.02 99.1927 24.82C99.6193 25.6067 99.8327 26.5667 99.8327 27.7C99.8327 28.8067 99.6193 29.78 99.1927 30.62C98.766 31.4467 98.206 32.0933 97.5127 32.56C96.8327 33.0133 96.0927 33.24 95.2927 33.24C94.6793 33.24 94.106 33.12 93.5727 32.88C93.0393 32.6267 92.5993 32.34 92.2527 32.02V37.4H90.4527ZM94.9327 31.64C95.8393 31.64 96.5727 31.2867 97.1327 30.58C97.706 29.86 97.9927 28.92 97.9927 27.76C97.9927 26.96 97.846 26.2733 97.5527 25.7C97.2727 25.1267 96.8927 24.6867 96.4127 24.38C95.946 24.0733 95.426 23.92 94.8527 23.92C94.2793 23.92 93.7593 24.0667 93.2927 24.36C92.8393 24.64 92.4927 24.9467 92.2527 25.28V30.4C92.5993 30.76 92.9993 31.06 93.4527 31.3C93.906 31.5267 94.3993 31.64 94.9327 31.64ZM106.498 33.24C105.005 33.24 103.818 32.7667 102.938 31.82C102.072 30.86 101.638 29.52 101.638 27.8C101.638 26.76 101.832 25.8333 102.218 25.02C102.618 24.1933 103.172 23.5467 103.878 23.08C104.585 22.6 105.405 22.36 106.338 22.36C107.338 22.36 108.165 22.58 108.818 23.02C109.485 23.4467 109.985 24.0267 110.318 24.76C110.652 25.4933 110.818 26.3 110.818 27.18C110.818 27.6467 110.798 28.1 110.758 28.54H103.478C103.598 29.5133 103.938 30.2733 104.498 30.82C105.058 31.3667 105.798 31.64 106.718 31.64C107.318 31.64 107.858 31.58 108.338 31.46C108.818 31.3267 109.278 31.16 109.718 30.96L110.138 32.5C109.658 32.7133 109.118 32.8867 108.518 33.02C107.918 33.1667 107.245 33.24 106.498 33.24ZM103.458 27.08H109.158C109.158 26.0667 108.905 25.2867 108.398 24.74C107.892 24.1933 107.192 23.92 106.298 23.92C105.525 23.92 104.885 24.1933 104.378 24.74C103.872 25.2733 103.565 26.0533 103.458 27.08ZM113.217 33V22.6H115.017V33H113.217ZM114.117 20.82C113.771 20.82 113.471 20.6933 113.217 20.44C112.977 20.1867 112.857 19.8933 112.857 19.56C112.857 19.1733 112.971 18.8667 113.197 18.64C113.424 18.4133 113.731 18.3 114.117 18.3C114.464 18.3 114.757 18.4267 114.997 18.68C115.251 18.92 115.377 19.2133 115.377 19.56C115.377 19.9333 115.264 20.24 115.037 20.48C114.811 20.7067 114.504 20.82 114.117 20.82ZM122.417 33.24C121.431 33.24 120.564 33.0133 119.817 32.56C119.084 32.0933 118.517 31.4533 118.117 30.64C117.717 29.8133 117.517 28.8667 117.517 27.8C117.517 26.8 117.717 25.8867 118.117 25.06C118.531 24.2333 119.117 23.58 119.877 23.1C120.637 22.6067 121.531 22.36 122.557 22.36C123.144 22.36 123.657 22.4133 124.097 22.52C124.551 22.6267 124.984 22.78 125.397 22.98L124.857 24.5C124.484 24.3133 124.124 24.18 123.777 24.1C123.444 24.0067 123.071 23.96 122.657 23.96C121.724 23.96 120.937 24.3 120.297 24.98C119.671 25.6467 119.357 26.5733 119.357 27.76C119.357 28.48 119.491 29.1333 119.757 29.72C120.024 30.3067 120.391 30.7733 120.857 31.12C121.337 31.4667 121.897 31.64 122.537 31.64C123.044 31.64 123.477 31.5867 123.837 31.48C124.197 31.36 124.584 31.1933 124.997 30.98L125.557 32.5C125.144 32.7267 124.677 32.9067 124.157 33.04C123.651 33.1733 123.071 33.24 122.417 33.24ZM127.651 33V18.2H129.451V24.26C129.824 23.7133 130.297 23.26 130.871 22.9C131.444 22.54 132.117 22.36 132.891 22.36C134.064 22.36 134.937 22.7133 135.511 23.42C136.097 24.1267 136.391 25.06 136.391 26.22V33H134.591V26.42C134.591 25.6733 134.417 25.0733 134.071 24.62C133.724 24.1667 133.237 23.94 132.611 23.94C131.997 23.94 131.411 24.16 130.851 24.6C130.304 25.0267 129.837 25.5333 129.451 26.12V33H127.651ZM143.647 33.24C142.153 33.24 140.967 32.7667 140.087 31.82C139.22 30.86 138.787 29.52 138.787 27.8C138.787 26.76 138.98 25.8333 139.367 25.02C139.767 24.1933 140.32 23.5467 141.027 23.08C141.733 22.6 142.553 22.36 143.487 22.36C144.487 22.36 145.313 22.58 145.967 23.02C146.633 23.4467 147.133 24.0267 147.467 24.76C147.8 25.4933 147.967 26.3 147.967 27.18C147.967 27.6467 147.947 28.1 147.907 28.54H140.627C140.747 29.5133 141.087 30.2733 141.647 30.82C142.207 31.3667 142.947 31.64 143.867 31.64C144.467 31.64 145.007 31.58 145.487 31.46C145.967 31.3267 146.427 31.16 146.867 30.96L147.287 32.5C146.807 32.7133 146.267 32.8867 145.667 33.02C145.067 33.1667 144.393 33.24 143.647 33.24ZM140.607 27.08H146.307C146.307 26.0667 146.053 25.2867 145.547 24.74C145.04 24.1933 144.34 23.92 143.447 23.92C142.673 23.92 142.033 24.1933 141.527 24.74C141.02 25.2733 140.713 26.0533 140.607 27.08ZM150.366 33V22.6H152.106V24.86C152.279 24.42 152.512 24.0133 152.806 23.64C153.099 23.2533 153.466 22.9467 153.906 22.72C154.346 22.48 154.859 22.36 155.446 22.36C155.646 22.36 155.846 22.3733 156.046 22.4C156.246 22.4133 156.412 22.44 156.546 22.48L156.006 24.34C155.752 24.2333 155.452 24.18 155.106 24.18C154.612 24.18 154.139 24.32 153.686 24.6C153.246 24.88 152.879 25.3133 152.586 25.9C152.306 26.4867 152.166 27.2333 152.166 28.14V33H150.366ZM158.354 33V22.6H160.094V24.34C160.467 23.78 160.941 23.3133 161.514 22.94C162.101 22.5533 162.794 22.36 163.594 22.36C164.767 22.36 165.641 22.7133 166.214 23.42C166.801 24.1267 167.094 25.06 167.094 26.22V33H165.294V26.42C165.294 25.6733 165.114 25.0733 164.754 24.62C164.407 24.1667 163.921 23.94 163.294 23.94C162.681 23.94 162.101 24.16 161.554 24.6C161.007 25.0267 160.541 25.5333 160.154 26.12V33H158.354Z" fill="#020076"/>
</g>
<defs>
<filter id="filter0_d_815_1586" x="0" y="0" width="249" height="56" filterUnits="userSpaceOnUse" color-interpolation-filters="sRGB">
<feFlood flood-opacity="0" result="BackgroundImageFix"/>
<feColorMatrix in="SourceAlpha" type="matrix" values="0 0 0 0 0 0 0 0 0 0 0 0 0 0 0 0 0 0 127 0" result="hardAlpha"/>
<feOffset dy="2"/>
<feGaussianBlur stdDeviation="2"/>
<feComposite in2="hardAlpha" operator="out"/>
<feColorMatrix type="matrix" values="0 0 0 0 0 0 0 0 0 0 0 0 0 0 0 0 0 0 0.25 0"/>
<feBlend mode="normal" in2="BackgroundImageFix" result="effect1_dropShadow_815_1586"/>
<feBlend mode="normal" in="SourceGraphic" in2="effect1_dropShadow_815_1586" result="shape"/>
</filter>
</defs>
</svg>
