<?xml version="1.0" encoding="utf-8"?>
<!-- Generator: Adobe Illustrator 26.2.1, SVG Export Plug-In . SVG Version: 6.00 Build 0)  -->
<svg version="1.1" xmlns="http://www.w3.org/2000/svg" xmlns:xlink="http://www.w3.org/1999/xlink" x="0px" y="0px"
	 viewBox="0 0 30 30" style="enable-background:new 0 0 30 30;" xml:space="preserve">
<style type="text/css">
	.st0{display:none;}
	.st1{display:inline;}
	.st2{fill:#020076;}
	.st3{fill:#E4EFFF;}
	.st4{fill:#020076;stroke:#020076;stroke-width:10;stroke-miterlimit:10;}
	.st5{fill:#E4EFFF;stroke:#E4EFFF;stroke-width:10;stroke-miterlimit:10;}
	.st6{fill:#020076;stroke:#020076;stroke-width:2;stroke-miterlimit:10;}
	.st7{fill:#E4EFFF;stroke:#E4EFFF;stroke-width:2;stroke-miterlimit:10;}
	.st8{fill:none;stroke:#020076;stroke-width:13;stroke-miterlimit:10;}
	.st9{fill:none;stroke:#020076;stroke-width:2;stroke-miterlimit:10;}
	.st10{fill:none;stroke:#E4EFFF;stroke-width:2;stroke-miterlimit:10;}
	.st11{fill:none;stroke:#E4EFFF;stroke-width:13;stroke-miterlimit:10;}
	.st12{fill:#FFFFFF;}
	.st13{fill:none;stroke:#020076;stroke-width:14;stroke-miterlimit:10;}
	.st14{fill:none;stroke:#020076;stroke-width:14;stroke-linecap:round;stroke-miterlimit:10;}
	.st15{fill:none;stroke:#020076;stroke-width:2;stroke-linecap:round;stroke-miterlimit:10;}
	.st16{fill:none;stroke:#E4EFFF;stroke-width:14;stroke-miterlimit:10;}
	.st17{fill:none;stroke:#E4EFFF;stroke-width:14;stroke-linecap:round;stroke-miterlimit:10;}
	.st18{fill:none;stroke:#E4EFFF;stroke-width:2;stroke-linecap:round;stroke-miterlimit:10;}
</style>
<g id="Ebene_1" class="st0">
</g>
<g id="Ebene_2">
	<path class="st2" d="M29.03,19.93c-0.15,0.56-0.41,1.05-0.96,1.29c-0.3,0.13-0.65,0.15-0.98,0.2c-0.11,0.02-0.24,0-0.39,0
		c-0.01,0.11-0.02,0.21-0.02,0.3c0,0.46,0,0.91,0,1.37c-0.01,0.44-0.23,0.67-0.66,0.67c-1.11,0.01-2.23,0.01-3.34,0
		c-0.44,0-0.67-0.24-0.67-0.69c0-0.54,0-1.08,0-1.63c-4.68,0-9.34,0-14.03,0c0,0.5,0,1,0,1.5c0,0.63-0.19,0.82-0.81,0.82
		c-1.03,0-2.06,0-3.1,0c-0.56,0-0.76-0.2-0.76-0.76c0-0.52,0-1.04,0-1.59c-0.2,0-0.38,0-0.55,0c-1.07-0.03-1.79-0.76-1.79-1.83
		c-0.01-1.42,0-2.83,0-4.25c0-0.85,0-1.7,0-2.55c0-1.1,0.66-1.82,1.75-1.88c0.46-0.03,0.93-0.01,1.39,0.03
		c0.82,0.07,1.49,0.76,1.51,1.58c0.03,1.13,0.02,2.26,0.02,3.4c0,0.66,0.18,0.84,0.85,0.84c5.67,0,11.34,0,17.01,0
		c0.68,0,0.85-0.17,0.85-0.86c0-1.02,0-2.05,0-3.07c0-1.19,0.72-1.91,1.91-1.92c0.41,0,0.82-0.01,1.23,0.04
		c0.71,0.08,1.18,0.49,1.43,1.15c0.03,0.09,0.07,0.18,0.11,0.28C29.03,14.89,29.03,17.41,29.03,19.93z"/>
	<path class="st2" d="M6.82,15.57c0-0.6,0.01-1.19,0-1.77c-0.01-0.57,0.03-1.14-0.07-1.69c-0.23-1.35-1.43-2.33-2.8-2.37
		c-0.2,0-0.4,0-0.67,0c0.03-0.74-0.01-1.48,0.1-2.19c0.13-0.77,0.78-1.25,1.56-1.31c0.09-0.01,0.18-0.01,0.27-0.01
		c6.52,0,13.04,0,19.56,0c0.96,0,1.67,0.5,1.85,1.37c0.07,0.34,0.04,0.71,0.05,1.06c0.01,0.35,0,0.69,0,1.09
		c-0.33,0-0.64-0.04-0.94,0.01c-1.54,0.23-2.55,1.4-2.56,2.97c-0.01,0.84,0,1.68,0,2.52c0,0.1,0,0.2,0,0.31
		C17.73,15.57,12.3,15.57,6.82,15.57z"/>
</g>
</svg>
