<?xml version="1.0" encoding="utf-8"?>
<!-- Generator: Adobe Illustrator 26.2.1, SVG Export Plug-In . SVG Version: 6.00 Build 0)  -->
<svg version="1.1" xmlns="http://www.w3.org/2000/svg" xmlns:xlink="http://www.w3.org/1999/xlink" x="0px" y="0px"
	 viewBox="0 0 30 30" style="enable-background:new 0 0 30 30;" xml:space="preserve">
<style type="text/css">
	.st0{display:none;}
	.st1{display:inline;}
	.st2{fill:#020076;}
	.st3{fill:#E4EFFF;}
	.st4{fill:#020076;stroke:#020076;stroke-width:10;stroke-miterlimit:10;}
	.st5{fill:#E4EFFF;stroke:#E4EFFF;stroke-width:10;stroke-miterlimit:10;}
	.st6{fill:#020076;stroke:#020076;stroke-width:2;stroke-miterlimit:10;}
	.st7{fill:#E4EFFF;stroke:#E4EFFF;stroke-width:2;stroke-miterlimit:10;}
	.st8{fill:none;stroke:#020076;stroke-width:13;stroke-miterlimit:10;}
	.st9{fill:none;stroke:#020076;stroke-width:2;stroke-miterlimit:10;}
	.st10{fill:none;stroke:#E4EFFF;stroke-width:2;stroke-miterlimit:10;}
	.st11{fill:none;stroke:#E4EFFF;stroke-width:13;stroke-miterlimit:10;}
	.st12{fill:#FFFFFF;}
	.st13{fill:none;stroke:#020076;stroke-width:14;stroke-miterlimit:10;}
	.st14{fill:none;stroke:#020076;stroke-width:14;stroke-linecap:round;stroke-miterlimit:10;}
	.st15{fill:none;stroke:#020076;stroke-width:2;stroke-linecap:round;stroke-miterlimit:10;}
	.st16{fill:none;stroke:#E4EFFF;stroke-width:14;stroke-miterlimit:10;}
	.st17{fill:none;stroke:#E4EFFF;stroke-width:14;stroke-linecap:round;stroke-miterlimit:10;}
	.st18{fill:none;stroke:#E4EFFF;stroke-width:2;stroke-linecap:round;stroke-miterlimit:10;}
</style>
<g id="Ebene_1" class="st0">
</g>
<g id="Ebene_2">
	<path class="st2" d="M26.22,3.58c-2.96-2.62-6.6-3.34-8.13-1.61c-0.54,0.61-0.75,1.45-0.65,2.39L16.68,9.1h-1.45
		c-0.27,0-0.54,0.07-0.76,0.22c-0.5,0.33-1.14,1.01,0.01,2l-1.41,1.44h-1.51c-0.47,0-0.94,0.17-1.27,0.51
		c-0.43,0.43-0.69,1.13,0.38,2.09l-1.24,1.21l-1.61,0c-0.46,0-0.91,0.16-1.25,0.47c-0.43,0.4-0.71,1.06,0.29,1.96l-1.41,1.37
		l-1.37,0c-0.56,0-0.96,0.07-1.32,0.5c-0.38,0.46-0.69,1.27,0.39,1.97l-0.64,1.33c0,0-2.62,0.74-0.66,2.56l-1.33,2.24l6.33-2.32
		l1.04,0.07c0.32,0.02,0.64-0.08,0.87-0.3c0.3-0.28,0.5-0.8-0.01-1.71l1.39-1.48l1.67-0.02c0.5-0.01,0.98-0.23,1.26-0.64
		c0.3-0.43,0.42-1.06-0.25-1.91l1.33-1.23l1.34,0c0.47,0,0.92-0.19,1.22-0.55c0.34-0.4,0.55-1.04,0.06-2.03l1.17-1.23l1.43-0.02
		c0.62-0.01,1.19-0.38,1.4-0.96c0.14-0.38,0.15-0.87-0.22-1.43L26,12.39c1.16,0.09,2.16-0.21,2.8-0.93
		C30.34,9.73,29.18,6.2,26.22,3.58z M21.31,4.1c0.15-0.15,0.3-0.13,0.59,0.06c0.54,0.36,1.09,0.72,1.63,1.09
		c0.14,0.1,0.27,0.11,0.42,0.05c0.22-0.09,0.44-0.16,0.67-0.22c0.24-0.07,0.46,0.09,0.46,0.38c-0.07,0.21-0.14,0.47-0.24,0.72
		c-0.07,0.17-0.04,0.29,0.06,0.44c0.37,0.54,0.73,1.08,1.09,1.63c0.18,0.27,0.19,0.43,0.05,0.57c-0.15,0.15-0.31,0.14-0.59-0.05
		c-0.56-0.37-1.12-0.75-1.69-1.12c-0.08-0.05-0.2-0.06-0.3-0.04c-0.24,0.06-0.47,0.17-0.71,0.22c-0.12,0.02-0.3,0-0.37-0.08
		c-0.08-0.08-0.1-0.25-0.08-0.37c0.05-0.24,0.14-0.46,0.22-0.69c0.05-0.13,0.03-0.23-0.05-0.34c-0.37-0.55-0.74-1.1-1.1-1.65
		C21.17,4.41,21.15,4.25,21.31,4.1z"/>
</g>
</svg>
