<?xml version="1.0" encoding="utf-8"?>
<!-- Generator: Adobe Illustrator 26.2.1, SVG Export Plug-In . SVG Version: 6.00 Build 0)  -->
<svg version="1.1" xmlns="http://www.w3.org/2000/svg" xmlns:xlink="http://www.w3.org/1999/xlink" x="0px" y="0px"
	 viewBox="0 0 30 30" style="enable-background:new 0 0 30 30;" xml:space="preserve">
<style type="text/css">
	.st0{display:none;}
	.st1{display:inline;}
	.st2{fill:#020076;}
	.st3{fill:#E4EFFF;}
	.st4{fill:#020076;stroke:#020076;stroke-width:10;stroke-miterlimit:10;}
	.st5{fill:#E4EFFF;stroke:#E4EFFF;stroke-width:10;stroke-miterlimit:10;}
	.st6{fill:#020076;stroke:#020076;stroke-width:2;stroke-miterlimit:10;}
	.st7{fill:#E4EFFF;stroke:#E4EFFF;stroke-width:2;stroke-miterlimit:10;}
	.st8{fill:none;stroke:#020076;stroke-width:13;stroke-miterlimit:10;}
	.st9{fill:none;stroke:#020076;stroke-width:2;stroke-miterlimit:10;}
	.st10{fill:none;stroke:#E4EFFF;stroke-width:2;stroke-miterlimit:10;}
	.st11{fill:none;stroke:#E4EFFF;stroke-width:13;stroke-miterlimit:10;}
	.st12{fill:#FFFFFF;}
	.st13{fill:none;stroke:#020076;stroke-width:14;stroke-miterlimit:10;}
	.st14{fill:none;stroke:#020076;stroke-width:14;stroke-linecap:round;stroke-miterlimit:10;}
	.st15{fill:none;stroke:#020076;stroke-width:2;stroke-linecap:round;stroke-miterlimit:10;}
	.st16{fill:none;stroke:#E4EFFF;stroke-width:14;stroke-miterlimit:10;}
	.st17{fill:none;stroke:#E4EFFF;stroke-width:14;stroke-linecap:round;stroke-miterlimit:10;}
	.st18{fill:none;stroke:#E4EFFF;stroke-width:2;stroke-linecap:round;stroke-miterlimit:10;}
</style>
<g id="Ebene_1" class="st0">
</g>
<g id="Ebene_2">
	<g>
		<path class="st2" d="M28.56,9.65c0.82-0.74,0.89-2.01,0.15-2.82L28.16,6.2c-0.74-0.82-2.01-0.89-2.82-0.15L13.01,17.13
			c-0.82,0.74-2.09,0.67-2.82-0.15L7.4,13.89c-0.74-0.82-2.01-0.89-2.82-0.15L3.96,14.3c-0.82,0.74-0.89,2.01-0.15,2.82l6,6.67
			c0.74,0.82,1.37,1.46,1.4,1.43c0.04-0.03,0.07-0.06,0.07-0.05c0,0,0.68-0.6,1.49-1.33L28.56,9.65z"/>
	</g>
</g>
</svg>
