<?xml version="1.0" encoding="utf-8"?>
<!-- Generator: Adobe Illustrator 27.0.0, SVG Export Plug-In . SVG Version: 6.00 Build 0)  -->
<svg version="1.1" xmlns="http://www.w3.org/2000/svg" xmlns:xlink="http://www.w3.org/1999/xlink" x="0px" y="0px"
	 viewBox="0 0 30 30" style="enable-background:new 0 0 30 30;" xml:space="preserve">
<style type="text/css">
	.st0{fill:#020076;}
	.st1{fill:#E4EFFF;}
	.st2{fill:#020076;stroke:#020076;stroke-width:10;stroke-miterlimit:10;}
	.st3{fill:#E4EFFF;stroke:#E4EFFF;stroke-width:10;stroke-miterlimit:10;}
	.st4{fill:#020076;stroke:#020076;stroke-width:2;stroke-miterlimit:10;}
	.st5{fill:#E4EFFF;stroke:#E4EFFF;stroke-width:2;stroke-miterlimit:10;}
	.st6{fill:none;stroke:#020076;stroke-width:13;stroke-miterlimit:10;}
	.st7{fill:none;stroke:#020076;stroke-width:2;stroke-miterlimit:10;}
	.st8{fill:none;stroke:#E4EFFF;stroke-width:13;stroke-miterlimit:10;}
	.st9{fill:#FFFFFF;}
	.st10{fill:none;stroke:#020076;stroke-width:14;stroke-miterlimit:10;}
	.st11{fill:none;stroke:#020076;stroke-width:14;stroke-linecap:round;stroke-miterlimit:10;}
	.st12{fill:none;stroke:#020076;stroke-width:2;stroke-linecap:round;stroke-miterlimit:10;}
	.st13{fill:none;stroke:#E4EFFF;stroke-width:14;stroke-miterlimit:10;}
	.st14{fill:none;stroke:#E4EFFF;stroke-width:14;stroke-linecap:round;stroke-miterlimit:10;}
	.st15{fill:none;stroke:#020076;stroke-miterlimit:10;}
	.st16{fill:none;stroke:#020076;stroke-width:3;stroke-miterlimit:10;}
	.st17{fill:none;stroke:#020076;stroke-width:1.5;stroke-miterlimit:10;}
	.st18{fill:none;stroke:#000000;stroke-miterlimit:10;}
	.st19{fill:#8BFF78;}
</style>
<g id="Ebene_1">
</g>
<g id="Ebene_2">
	<path class="st0" d="M12.7,19.79c0.13,0.1,0.23,0.15,0.31,0.22c1.06,1.05,2.12,2.11,3.17,3.17c0.72,0.72,0.72,1.65,0.01,2.36
		c-1.38,1.38-2.76,2.76-4.14,4.14c-0.34,0.34-0.77,0.4-1.15,0.19c-0.35-0.21-0.53-0.64-0.4-1.04c0.06-0.17,0.17-0.33,0.3-0.46
		c0.81-0.82,1.62-1.63,2.44-2.45c0.08-0.08,0.17-0.13,0.25-0.19c-0.48-0.48-0.92-0.92-1.38-1.38c-0.06,0.06-0.14,0.13-0.21,0.2
		c-0.84,0.83-1.67,1.67-2.51,2.5c-0.32,0.32-0.73,0.38-1.1,0.18c-0.35-0.19-0.54-0.56-0.44-0.96c0.05-0.2,0.17-0.4,0.32-0.54
		c0.8-0.82,1.62-1.64,2.44-2.45c0.08-0.07,0.18-0.12,0.26-0.18c-0.49-0.49-0.92-0.93-1.38-1.38c-0.06,0.06-0.14,0.13-0.21,0.2
		c-0.82,0.82-1.65,1.64-2.46,2.47c-0.27,0.27-0.58,0.39-0.96,0.29c-0.67-0.18-0.88-1-0.38-1.52c0.63-0.64,1.27-1.27,1.9-1.91
		c0.27-0.27,0.54-0.53,0.79-0.77c-0.46-0.46-0.9-0.89-1.36-1.35c-0.02,0.02-0.1,0.09-0.17,0.16c-0.83,0.83-1.65,1.66-2.49,2.48
		c-0.54,0.53-1.38,0.34-1.56-0.36c-0.09-0.36,0.02-0.67,0.29-0.93c0.82-0.81,1.63-1.63,2.45-2.44c0.08-0.08,0.16-0.14,0.21-0.19
		c-0.46-0.46-0.9-0.9-1.36-1.35c-0.02,0.02-0.1,0.09-0.17,0.16c-0.84,0.83-1.67,1.68-2.51,2.5c-0.54,0.53-1.37,0.3-1.55-0.41
		c-0.08-0.32,0-0.61,0.23-0.84c1.43-1.43,2.85-2.87,4.29-4.28c0.63-0.62,1.57-0.59,2.21,0.04c1.08,1.06,2.14,2.14,3.21,3.21
		c0.08,0.08,0.14,0.16,0.29,0.33c0.09-0.14,0.13-0.25,0.21-0.33c5.56-5.57,11.13-11.13,16.69-16.7C27.26,0.06,27.41,0,27.63,0
		c0.75,0.01,2.29,1.62,2.3,2.29c0.01,0.23-0.06,0.39-0.23,0.56c-5.49,5.48-10.98,10.97-16.47,16.46
		C13.09,19.46,12.92,19.59,12.7,19.79z"/>
</g>
</svg>
