<?xml version="1.0" encoding="utf-8"?>
<!-- Generator: Adobe Illustrator 26.5.0, SVG Export Plug-In . SVG Version: 6.00 Build 0)  -->
<svg version="1.1" xmlns="http://www.w3.org/2000/svg" xmlns:xlink="http://www.w3.org/1999/xlink" x="0px" y="0px"
	 viewBox="0 0 30 30" style="enable-background:new 0 0 30 30;" xml:space="preserve">
<style type="text/css">
	.st0{fill:#020076;}
	.st1{fill:#E4EFFF;}
	.st2{fill:#020076;stroke:#020076;stroke-width:10;stroke-miterlimit:10;}
	.st3{fill:#E4EFFF;stroke:#E4EFFF;stroke-width:10;stroke-miterlimit:10;}
	.st4{fill:#020076;stroke:#020076;stroke-width:2;stroke-miterlimit:10;}
	.st5{fill:#E4EFFF;stroke:#E4EFFF;stroke-width:2;stroke-miterlimit:10;}
	.st6{fill:none;stroke:#020076;stroke-width:13;stroke-miterlimit:10;}
	.st7{fill:none;stroke:#020076;stroke-width:2;stroke-miterlimit:10;}
	.st8{fill:none;stroke:#E4EFFF;stroke-width:13;stroke-miterlimit:10;}
	.st9{fill:#FFFFFF;}
	.st10{fill:none;stroke:#020076;stroke-width:14;stroke-miterlimit:10;}
	.st11{fill:none;stroke:#020076;stroke-width:14;stroke-linecap:round;stroke-miterlimit:10;}
	.st12{fill:none;stroke:#020076;stroke-width:2;stroke-linecap:round;stroke-miterlimit:10;}
	.st13{fill:none;stroke:#E4EFFF;stroke-width:14;stroke-miterlimit:10;}
	.st14{fill:none;stroke:#E4EFFF;stroke-width:14;stroke-linecap:round;stroke-miterlimit:10;}
	.st15{fill:none;stroke:#020076;stroke-width:1.5;stroke-miterlimit:10;}
	.st16{fill:#00D200;}
</style>
<g id="Ebene_1">
	<path class="st0" d="M24.78,13.11H4.93c-0.51,0-0.92,0.41-0.92,0.92v14.1c0,0.51,0.41,0.92,0.92,0.92h6.57v-9.65
		c0-0.51,0.41-0.92,0.92-0.92h4.86c0.51,0,0.92,0.41,0.92,0.92v9.65h6.57c0.51,0,0.92-0.41,0.92-0.92v-14.1
		C25.7,13.53,25.29,13.11,24.78,13.11z"/>
	<g>
		<path class="st0" d="M16.35,1.12c-0.82-0.73-2.17-0.73-3,0L2.79,10.47c-0.82,0.73-0.6,1.33,0.5,1.33h23.13
			c1.1,0,1.33-0.6,0.5-1.33L16.35,1.12z"/>
	</g>
	<path class="st0" d="M22.54,9.3h-1.32c-0.55,0-1-0.45-1-1V3.85c0-0.55,0.45-1,1-1h1.32c0.55,0,1,0.45,1,1V8.3
		C23.54,8.85,23.09,9.3,22.54,9.3z"/>
</g>
<g id="Ebene_2">
</g>
</svg>
