<?xml version="1.0" encoding="utf-8"?>
<!-- Generator: Adobe Illustrator 27.0.0, SVG Export Plug-In . SVG Version: 6.00 Build 0)  -->
<svg version="1.1" xmlns="http://www.w3.org/2000/svg" xmlns:xlink="http://www.w3.org/1999/xlink" x="0px" y="0px"
	 viewBox="0 0 30 30" style="enable-background:new 0 0 30 30;" xml:space="preserve">
<style type="text/css">
	.st0{fill:#020076;}
	.st1{fill:#E4EFFF;}
	.st2{fill:#020076;stroke:#020076;stroke-width:10;stroke-miterlimit:10;}
	.st3{fill:#E4EFFF;stroke:#E4EFFF;stroke-width:10;stroke-miterlimit:10;}
	.st4{fill:#020076;stroke:#020076;stroke-width:2;stroke-miterlimit:10;}
	.st5{fill:#E4EFFF;stroke:#E4EFFF;stroke-width:2;stroke-miterlimit:10;}
	.st6{fill:none;stroke:#020076;stroke-width:13;stroke-miterlimit:10;}
	.st7{fill:none;stroke:#020076;stroke-width:2;stroke-miterlimit:10;}
	.st8{fill:none;stroke:#E4EFFF;stroke-width:13;stroke-miterlimit:10;}
	.st9{fill:#FFFFFF;}
	.st10{fill:none;stroke:#020076;stroke-width:14;stroke-miterlimit:10;}
	.st11{fill:none;stroke:#020076;stroke-width:14;stroke-linecap:round;stroke-miterlimit:10;}
	.st12{fill:none;stroke:#020076;stroke-width:2;stroke-linecap:round;stroke-miterlimit:10;}
	.st13{fill:none;stroke:#E4EFFF;stroke-width:14;stroke-miterlimit:10;}
	.st14{fill:none;stroke:#E4EFFF;stroke-width:14;stroke-linecap:round;stroke-miterlimit:10;}
	.st15{fill:none;stroke:#020076;stroke-miterlimit:10;}
	.st16{fill:none;stroke:#020076;stroke-width:3;stroke-miterlimit:10;}
	.st17{fill:none;stroke:#020076;stroke-width:1.5;stroke-miterlimit:10;}
	.st18{fill:none;stroke:#000000;stroke-miterlimit:10;}
	.st19{fill:#8BFF78;}
	.st20{fill:#FE0B0B;}
</style>
<g id="Ebene_1">
</g>
<g id="Ebene_2">
	<g id="_x38__00000096021209951049163210000013279650646343090336_">
		<g>
			<path class="st0" d="M21.06,5.02h-3.3c-0.91,0-1.65,0.64-1.65,1.43v17.11c0,0.79,0.74,1.43,1.65,1.43h3.3
				c0.91,0,1.65-0.64,1.65-1.43V6.44C22.71,5.66,21.97,5.02,21.06,5.02z M11.17,5.02h-3.3c-0.91,0-1.65,0.64-1.65,1.43v17.11
				c0,0.79,0.74,1.43,1.65,1.43h3.3c0.91,0,1.65-0.64,1.65-1.43V6.44C12.82,5.66,12.08,5.02,11.17,5.02z"/>
		</g>
	</g>
</g>
</svg>
