<?xml version="1.0" encoding="UTF-8"?><svg id="Ebene_2" xmlns="http://www.w3.org/2000/svg" viewBox="0 0 30 30"><defs><style>.cls-1{fill:#020076;}</style></defs><path class="cls-1" d="M.19,24.52H25.98c.09,1.18-.71,2.5-1.87,3.05-.36,.17-.75,.25-1.13,.37H3.22s-.09-.04-.13-.05c-.94-.15-1.69-.62-2.26-1.39-.35-.47-.52-1.02-.64-1.59v-.4Z"/><path class="cls-1" d="M2.5,10.19H23.52c.42,0,.76,.34,.76,.76v.94h4.16c.54,0,.99,.44,.99,.98,0,.97,0,2.42,0,3.27,0,2.68-1.55,4.89-4.09,5.76-.63,.21-1.32,.27-1.99,.32-.63,.05-1.26,0-1.89,.02-.14,0-.36,.08-.47,.17-.6,.46-1.18,.93-1.78,1.39-.1,.08-.3,.14-.43,.14-3.81,0-7.61,0-11.42,0-.15,0-.3-.05-.42-.13-2.96-2.03-4.69-4.83-4.97-8.41-.12-1.54-.04-3.09-.03-4.66,0-.3,.25-.55,.55-.55Zm21.78,3.43c.12,2.48-.44,4.77-1.77,6.89,.41,0,.76,.01,1.11,0,1.68-.06,3.23-1.18,3.82-2.76,.5-1.35,.18-2.74,.3-4.13h-3.45Z"/><path class="cls-1" d="M11.21,2.24c.27-.41,.58-.88,.89-1.34,1.65,1.04,1.75,3.5,.19,4.7-.43,.33-.76,.69-.7,1.28,.04,.36,.24,.63,.51,.87-.31,.47-.61,.92-.94,1.41-.54-.34-.9-.81-1.12-1.39-.45-1.22-.07-2.56,.98-3.34,.48-.36,.79-.79,.61-1.41-.07-.26-.27-.49-.43-.77Z"/><path class="cls-1" d="M16.37,7.77c-.3,.45-.6,.91-.92,1.38-.74-.5-1.17-1.18-1.27-2.05-.13-1.09,.23-2.03,1.13-2.68,.74-.53,.95-1.42,.15-2.14,.31-.46,.61-.92,.92-1.38,1.03,.57,1.56,2,1.2,3.22-.2,.67-.61,1.19-1.17,1.61-.54,.41-.69,.99-.41,1.53,.09,.17,.23,.32,.38,.51Z"/></svg>