<svg width="61" height="69" viewBox="0 0 61 69" fill="none" xmlns="http://www.w3.org/2000/svg">
<path d="M54.2439 0.189453H7.10078C5.39601 0.189934 3.7612 0.861728 2.55574 2.05715C1.35028 3.25257 0.672848 4.87378 0.672363 6.56436L0.672363 61.8145C0.672848 63.5051 1.35028 65.1263 2.55574 66.3218C3.7612 67.5172 5.39601 68.189 7.10078 68.1895H54.2439C55.9487 68.189 57.5835 67.5172 58.789 66.3218C59.9944 65.1263 60.6719 63.5051 60.6724 61.8145V6.56436C60.6719 4.87378 59.9944 3.25257 58.789 2.05715C57.5835 0.861728 55.9487 0.189934 54.2439 0.189453ZM30.6721 63.9385C29.8245 63.9385 28.9959 63.6893 28.2912 63.2223C27.5865 62.7553 27.0372 62.0916 26.7129 61.3151C26.3885 60.5385 26.3036 59.6841 26.469 58.8597C26.6343 58.0353 27.0425 57.2781 27.6418 56.6838C28.2411 56.0894 29.0047 55.6847 29.836 55.5207C30.6673 55.3567 31.529 55.4409 32.312 55.7625C33.0951 56.0842 33.7644 56.6289 34.2352 57.3277C34.7061 58.0266 34.9575 58.8483 34.9575 59.6888C34.958 60.247 34.8476 60.7999 34.6324 61.3157C34.4172 61.8316 34.1016 62.3003 33.7036 62.695C33.3055 63.0898 32.8329 63.4028 32.3127 63.6162C31.7925 63.8295 31.235 63.9391 30.6721 63.9385ZM54.2439 49.5959C54.2425 50.0181 54.0726 50.4226 53.7715 50.721C53.4703 51.0194 53.0623 51.1876 52.6365 51.1887H8.70819C8.28223 51.1876 7.87403 51.0193 7.57283 50.7206C7.27162 50.4219 7.10191 50.0171 7.10078 49.5947V8.15839C7.10191 7.73597 7.27162 7.33117 7.57283 7.03247C7.87403 6.73378 8.28223 6.56548 8.70819 6.56436H52.6365C53.0625 6.56548 53.4707 6.73378 53.7719 7.03247C54.0731 7.33117 54.2428 7.73597 54.2439 8.15839V49.5959Z" fill="#3961E5"/>
</svg>
