<?xml version="1.0" encoding="utf-8"?>
<!-- Generator: Adobe Illustrator 26.5.0, SVG Export Plug-In . SVG Version: 6.00 Build 0)  -->
<svg version="1.1" xmlns="http://www.w3.org/2000/svg" xmlns:xlink="http://www.w3.org/1999/xlink" x="0px" y="0px"
	 viewBox="0 0 30 30" style="enable-background:new 0 0 30 30;" xml:space="preserve">
<style type="text/css">
	.st0{fill:#020076;}
	.st1{fill:#E4EFFF;}
	.st2{fill:#020076;stroke:#020076;stroke-width:10;stroke-miterlimit:10;}
	.st3{fill:#E4EFFF;stroke:#E4EFFF;stroke-width:10;stroke-miterlimit:10;}
	.st4{fill:#020076;stroke:#020076;stroke-width:2;stroke-miterlimit:10;}
	.st5{fill:#E4EFFF;stroke:#E4EFFF;stroke-width:2;stroke-miterlimit:10;}
	.st6{fill:none;stroke:#020076;stroke-width:13;stroke-miterlimit:10;}
	.st7{fill:none;stroke:#020076;stroke-width:2;stroke-miterlimit:10;}
	.st8{fill:none;stroke:#E4EFFF;stroke-width:13;stroke-miterlimit:10;}
	.st9{fill:#FFFFFF;}
	.st10{fill:none;stroke:#020076;stroke-width:14;stroke-miterlimit:10;}
	.st11{fill:none;stroke:#020076;stroke-width:14;stroke-linecap:round;stroke-miterlimit:10;}
	.st12{fill:none;stroke:#020076;stroke-width:2;stroke-linecap:round;stroke-miterlimit:10;}
	.st13{fill:none;stroke:#E4EFFF;stroke-width:14;stroke-miterlimit:10;}
	.st14{fill:none;stroke:#E4EFFF;stroke-width:14;stroke-linecap:round;stroke-miterlimit:10;}
	.st15{fill:none;stroke:#020076;stroke-width:3;stroke-miterlimit:10;}
	.st16{fill:none;stroke:#020076;stroke-width:1.5;stroke-miterlimit:10;}
	.st17{fill:#00D200;}
</style>
<g id="Ebene_1">
</g>
<g id="Ebene_2">
	<path class="st0" d="M26.4,5.41h-3.73l-0.85-1.7c-0.5-0.99-0.76-1.7-1.7-1.7H9.89c-0.94,0-1.25,0.81-1.7,1.7l-0.85,1.7H3.6
		c-1.24,0-2.24,1-2.24,2.24v15.98c0,1.24,1,2.24,2.24,2.24h22.8c1.24,0,2.24-1,2.24-2.24V7.65C28.64,6.41,27.64,5.41,26.4,5.41z
		 M14.83,21.12c-3.41,0-6.17-2.76-6.17-6.17s2.76-6.17,6.17-6.17s6.17,2.76,6.17,6.17S18.23,21.12,14.83,21.12z"/>
	<circle class="st0" cx="14.83" cy="14.95" r="4.46"/>
</g>
</svg>
