<?xml version="1.0" encoding="utf-8"?>
<!-- Generator: Adobe Illustrator 26.5.0, SVG Export Plug-In . SVG Version: 6.00 Build 0)  -->
<svg version="1.1" xmlns="http://www.w3.org/2000/svg" xmlns:xlink="http://www.w3.org/1999/xlink" x="0px" y="0px"
	 viewBox="0 0 30 30" style="enable-background:new 0 0 30 30;" xml:space="preserve">
<style type="text/css">
	.st0{fill:#020076;}
	.st1{fill:#E4EFFF;}
	.st2{fill:#020076;stroke:#020076;stroke-width:10;stroke-miterlimit:10;}
	.st3{fill:#E4EFFF;stroke:#E4EFFF;stroke-width:10;stroke-miterlimit:10;}
	.st4{fill:#020076;stroke:#020076;stroke-width:2;stroke-miterlimit:10;}
	.st5{fill:#E4EFFF;stroke:#E4EFFF;stroke-width:2;stroke-miterlimit:10;}
	.st6{fill:none;stroke:#020076;stroke-width:13;stroke-miterlimit:10;}
	.st7{fill:none;stroke:#020076;stroke-width:2;stroke-miterlimit:10;}
	.st8{fill:none;stroke:#E4EFFF;stroke-width:13;stroke-miterlimit:10;}
	.st9{fill:#FFFFFF;}
	.st10{fill:none;stroke:#020076;stroke-width:14;stroke-miterlimit:10;}
	.st11{fill:none;stroke:#020076;stroke-width:14;stroke-linecap:round;stroke-miterlimit:10;}
	.st12{fill:none;stroke:#020076;stroke-width:2;stroke-linecap:round;stroke-miterlimit:10;}
	.st13{fill:none;stroke:#E4EFFF;stroke-width:14;stroke-miterlimit:10;}
	.st14{fill:none;stroke:#E4EFFF;stroke-width:14;stroke-linecap:round;stroke-miterlimit:10;}
	.st15{fill:none;stroke:#020076;stroke-width:3;stroke-miterlimit:10;}
	.st16{fill:none;stroke:#020076;stroke-width:1.5;stroke-miterlimit:10;}
	.st17{fill:#00D200;}
</style>
<g id="Ebene_1">
</g>
<g id="Ebene_2">
	<path class="st0" d="M21.04,7.58l4.25-4.65c0.33-0.36,0.07-0.94-0.41-0.94H7.15c-0.31,0-0.56,0.25-0.56,0.56v10.81
		c0,0.31,0.25,0.56,0.56,0.56h17.73c0.49,0,0.74-0.58,0.41-0.94l-4.25-4.65C20.85,8.12,20.85,7.79,21.04,7.58z"/>
	<g>
		<path class="st0" d="M10.14,9.75c0.27,0,0.5,0.23,0.5,0.5v18.22c0,0.27-0.23,0.5-0.5,0.5H7.08c-0.28,0-0.5-0.23-0.5-0.5V10.25
			c0-0.27,0.22-0.5,0.5-0.5H10.14z"/>
	</g>
</g>
</svg>
