<svg width="50" height="48" viewBox="0 0 50 48" fill="none" xmlns="http://www.w3.org/2000/svg">
<path d="M21.2588 3.21502L23.7362 0.774903C24.7852 -0.258301 26.4814 -0.258301 27.5193 0.774903L49.2133 22.1314C50.2622 23.1646 50.2622 24.8354 49.2133 25.8576L27.5193 47.2251C26.4703 48.2583 24.774 48.2583 23.7362 47.2251L21.2588 44.785C20.1986 43.7408 20.221 42.0371 21.3034 41.0149L34.7506 28.3966H2.67827C1.19406 28.3966 0 27.2205 0 25.7586V22.2414C0 20.7795 1.19406 19.6034 2.67827 19.6034H34.7506L21.3034 6.98512C20.2098 5.9629 20.1875 4.25922 21.2588 3.21502Z" fill="#020076"/>
</svg>
