<svg width="30" height="48" viewBox="0 0 30 48" fill="none" xmlns="http://www.w3.org/2000/svg">
<path d="M25.5056 0.689453H5.20535C4.05179 0.689774 2.94556 1.15409 2.12987 1.98031C1.31418 2.80654 0.855786 3.92705 0.855469 5.09551L0.855469 43.2834C0.855786 44.4519 1.31418 45.5724 2.12987 46.3986C2.94556 47.2248 4.05179 47.6891 5.20535 47.6895H25.5056C26.6592 47.6891 27.7654 47.2248 28.5811 46.3986C29.3968 45.5724 29.8552 44.4519 29.8555 43.2834V5.09551C29.8552 3.92705 29.3968 2.80654 28.5811 1.98031C27.7654 1.15409 26.6592 0.689774 25.5056 0.689453ZM15.3555 44.7519C14.7819 44.7519 14.2212 44.5796 13.7442 44.2568C13.2673 43.934 12.8956 43.4752 12.6761 42.9385C12.4566 42.4017 12.3992 41.811 12.5111 41.2412C12.623 40.6714 12.8992 40.1479 13.3048 39.7371C13.7104 39.3263 14.2271 39.0465 14.7897 38.9332C15.3523 38.8198 15.9354 38.878 16.4653 39.1003C16.9952 39.3227 17.4482 39.6992 17.7668 40.1823C18.0855 40.6654 18.2556 41.2333 18.2556 41.8143C18.256 42.2002 18.1812 42.5824 18.0356 42.9389C17.89 43.2955 17.6764 43.6195 17.407 43.8924C17.1377 44.1652 16.8178 44.3816 16.4658 44.5291C16.1137 44.6766 15.7364 44.7523 15.3555 44.7519ZM25.5056 34.8378C25.5048 35.1294 25.3903 35.4088 25.1869 35.6153C24.9836 35.8217 24.7079 35.9383 24.4201 35.9398H6.29327C6.00518 35.9388 5.72917 35.8225 5.52546 35.6161C5.32175 35.4098 5.20689 35.1302 5.20595 34.8384V6.19748C5.20674 5.90557 5.32153 5.62584 5.52525 5.41937C5.72898 5.2129 6.00508 5.09647 6.29327 5.09551H24.4201C24.7081 5.09647 24.9842 5.21282 25.1879 5.41915C25.3916 5.62549 25.5064 5.90507 25.5074 6.19688L25.5056 34.8378Z" fill="#3961E5"/>
</svg>
