<?xml version="1.0" encoding="utf-8"?>
<!-- Generator: Adobe Illustrator 26.2.1, SVG Export Plug-In . SVG Version: 6.00 Build 0)  -->
<svg version="1.1" xmlns="http://www.w3.org/2000/svg" xmlns:xlink="http://www.w3.org/1999/xlink" x="0px" y="0px"
	 viewBox="0 0 30 30" style="enable-background:new 0 0 30 30;" xml:space="preserve">
<style type="text/css">
	.st0{display:none;}
	.st1{display:inline;}
	.st2{fill:#020076;}
	.st3{fill:#E4EFFF;}
	.st4{fill:#020076;stroke:#020076;stroke-width:10;stroke-miterlimit:10;}
	.st5{fill:#E4EFFF;stroke:#E4EFFF;stroke-width:10;stroke-miterlimit:10;}
	.st6{fill:#020076;stroke:#020076;stroke-width:2;stroke-miterlimit:10;}
	.st7{fill:#E4EFFF;stroke:#E4EFFF;stroke-width:2;stroke-miterlimit:10;}
	.st8{fill:none;stroke:#020076;stroke-width:13;stroke-miterlimit:10;}
	.st9{fill:none;stroke:#020076;stroke-width:2;stroke-miterlimit:10;}
	.st10{fill:none;stroke:#E4EFFF;stroke-width:2;stroke-miterlimit:10;}
	.st11{fill:none;stroke:#E4EFFF;stroke-width:13;stroke-miterlimit:10;}
	.st12{fill:#FFFFFF;}
	.st13{fill:none;stroke:#020076;stroke-width:14;stroke-miterlimit:10;}
	.st14{fill:none;stroke:#020076;stroke-width:14;stroke-linecap:round;stroke-miterlimit:10;}
	.st15{fill:none;stroke:#020076;stroke-width:2;stroke-linecap:round;stroke-miterlimit:10;}
	.st16{fill:none;stroke:#E4EFFF;stroke-width:14;stroke-miterlimit:10;}
	.st17{fill:none;stroke:#E4EFFF;stroke-width:14;stroke-linecap:round;stroke-miterlimit:10;}
	.st18{fill:none;stroke:#E4EFFF;stroke-width:2;stroke-linecap:round;stroke-miterlimit:10;}
</style>
<g id="Ebene_1" class="st0">
</g>
<g id="Ebene_2">
	<path class="st2" d="M13.42,0.11c1.09,0,2.18,0,3.28,0c0.69,0.04,1.38,0.07,2.07,0.12c1.71,0.12,3.41,0.33,5.04,0.93
		c1.01,0.38,1.93,0.89,2.64,1.72c0.89,1.04,1.17,2.29,1.17,3.62c0,4.92,0.01,9.85,0,14.77c-0.01,2.71-1.67,4.83-4.26,5.49
		c-0.39,0.1-0.8,0.13-1.23,0.19c0.66,0.66,1.28,1.33,1.96,1.94c0.38,0.34,0.41,0.71,0.34,1.16c-0.09,0.01-0.18,0.01-0.26,0.01
		c-0.88,0-1.76,0.01-2.63-0.01c-0.14,0-0.32-0.08-0.42-0.18c-0.94-0.92-1.86-1.86-2.8-2.78c-0.1-0.1-0.28-0.17-0.43-0.18
		c-1.8-0.01-3.61-0.01-5.41-0.01c-0.19,0-0.32,0.05-0.46,0.19c-0.93,0.94-1.87,1.88-2.81,2.81c-0.09,0.09-0.25,0.15-0.38,0.16
		c-1.01,0.01-2.03,0.01-3.04,0.01c-0.08,0-0.15-0.01-0.24-0.02c-0.03-0.43-0.05-0.8,0.33-1.14c0.64-0.56,1.21-1.19,1.81-1.79
		c0.06-0.06,0.1-0.12,0.16-0.19c-0.33-0.04-0.63-0.06-0.93-0.11c-2.67-0.49-4.53-2.74-4.54-5.55c-0.01-4.92,0-9.85,0-14.77
		c0-1.53,0.44-2.88,1.6-3.94C4.7,1.91,5.55,1.48,6.46,1.15c1.63-0.58,3.33-0.81,5.04-0.93C12.14,0.18,12.78,0.15,13.42,0.11z
		 M13.41,6.44c-2.63,0-5.24,0-7.85,0c0,2.1,0,4.18,0,6.27c2.63,0,5.24,0,7.85,0C13.41,10.61,13.41,8.54,13.41,6.44z M16.6,6.43
		c0,2.11,0,4.19,0,6.27c2.63,0,5.24,0,7.84,0c0-2.1,0-4.18,0-6.27C21.82,6.43,19.22,6.43,16.6,6.43z M7.9,23.75
		c1.3,0,2.36-1.06,2.36-2.36c0-1.3-1.06-2.36-2.36-2.36c-1.29,0-2.36,1.07-2.36,2.36C5.54,22.68,6.61,23.75,7.9,23.75z M22.08,23.75
		c1.3,0.01,2.36-1.04,2.38-2.35c0.02-1.28-1.05-2.36-2.35-2.38c-1.28-0.02-2.36,1.05-2.37,2.35C19.73,22.68,20.78,23.74,22.08,23.75
		z"/>
</g>
</svg>
