<?xml version="1.0" encoding="utf-8"?>
<!-- Generator: Adobe Illustrator 27.0.0, SVG Export Plug-In . SVG Version: 6.00 Build 0)  -->
<svg version="1.1" xmlns="http://www.w3.org/2000/svg" xmlns:xlink="http://www.w3.org/1999/xlink" x="0px" y="0px"
	 viewBox="0 0 30 30" style="enable-background:new 0 0 30 30;" xml:space="preserve">
<style type="text/css">
	.st0{fill:#020076;}
	.st1{fill:#E4EFFF;}
	.st2{fill:#020076;stroke:#020076;stroke-width:10;stroke-miterlimit:10;}
	.st3{fill:#E4EFFF;stroke:#E4EFFF;stroke-width:10;stroke-miterlimit:10;}
	.st4{fill:#020076;stroke:#020076;stroke-width:2;stroke-miterlimit:10;}
	.st5{fill:#E4EFFF;stroke:#E4EFFF;stroke-width:2;stroke-miterlimit:10;}
	.st6{fill:none;stroke:#020076;stroke-width:13;stroke-miterlimit:10;}
	.st7{fill:none;stroke:#020076;stroke-width:2;stroke-miterlimit:10;}
	.st8{fill:none;stroke:#E4EFFF;stroke-width:13;stroke-miterlimit:10;}
	.st9{fill:#FFFFFF;}
	.st10{fill:none;stroke:#020076;stroke-width:14;stroke-miterlimit:10;}
	.st11{fill:none;stroke:#020076;stroke-width:14;stroke-linecap:round;stroke-miterlimit:10;}
	.st12{fill:none;stroke:#020076;stroke-width:2;stroke-linecap:round;stroke-miterlimit:10;}
	.st13{fill:none;stroke:#E4EFFF;stroke-width:14;stroke-miterlimit:10;}
	.st14{fill:none;stroke:#E4EFFF;stroke-width:14;stroke-linecap:round;stroke-miterlimit:10;}
	.st15{fill:none;stroke:#020076;stroke-miterlimit:10;}
	.st16{fill:none;stroke:#020076;stroke-width:3;stroke-miterlimit:10;}
	.st17{fill:none;stroke:#020076;stroke-width:1.5;stroke-miterlimit:10;}
	.st18{fill:none;stroke:#000000;stroke-miterlimit:10;}
	.st19{fill:#8BFF78;}
</style>
<g id="Ebene_1">
</g>
<g id="Ebene_2">
	<path class="st0" d="M27.78,7.46c-1.46-3.71-5.53-5.58-9.09-4.18c-0.26,0.1-0.51,0.22-0.75,0.35c-1.86-2.6-5.21-3.73-8.21-2.55
		C6.79,2.23,5.12,5.24,5.43,8.34C5.15,8.41,4.87,8.5,4.6,8.6c-3.56,1.4-5.27,5.54-3.81,9.25c0.91,2.32,2.85,3.93,5.05,4.45
		c0.03,0.81,0.2,1.63,0.51,2.42c1.46,3.71,5.53,5.58,9.09,4.18c1.76-0.69,3.07-2.06,3.76-3.7c1.63,0.73,3.52,0.84,5.28,0.15
		c3.56-1.4,5.27-5.54,3.81-9.25c-0.29-0.74-0.69-1.4-1.16-1.99C28.37,12.24,28.69,9.77,27.78,7.46z M16.57,18.5
		c-1.88,0.74-4-0.19-4.74-2.06c-0.74-1.88,0.19-4,2.06-4.74s4,0.19,4.74,2.06C19.38,15.64,18.45,17.76,16.57,18.5z"/>
</g>
</svg>
