<?xml version="1.0" encoding="utf-8"?>
<!-- Generator: Adobe Illustrator 26.2.1, SVG Export Plug-In . SVG Version: 6.00 Build 0)  -->
<svg version="1.1" xmlns="http://www.w3.org/2000/svg" xmlns:xlink="http://www.w3.org/1999/xlink" x="0px" y="0px"
	 viewBox="0 0 30 30" style="enable-background:new 0 0 30 30;" xml:space="preserve">
<style type="text/css">
	.st0{display:none;}
	.st1{display:inline;}
	.st2{fill:#020076;}
	.st3{fill:#E4EFFF;}
	.st4{fill:#020076;stroke:#020076;stroke-width:10;stroke-miterlimit:10;}
	.st5{fill:#E4EFFF;stroke:#E4EFFF;stroke-width:10;stroke-miterlimit:10;}
	.st6{fill:#020076;stroke:#020076;stroke-width:2;stroke-miterlimit:10;}
	.st7{fill:#E4EFFF;stroke:#E4EFFF;stroke-width:2;stroke-miterlimit:10;}
	.st8{fill:none;stroke:#020076;stroke-width:13;stroke-miterlimit:10;}
	.st9{fill:none;stroke:#020076;stroke-width:2;stroke-miterlimit:10;}
	.st10{fill:none;stroke:#E4EFFF;stroke-width:2;stroke-miterlimit:10;}
	.st11{fill:none;stroke:#E4EFFF;stroke-width:13;stroke-miterlimit:10;}
	.st12{fill:#FFFFFF;}
	.st13{fill:none;stroke:#020076;stroke-width:14;stroke-miterlimit:10;}
	.st14{fill:none;stroke:#020076;stroke-width:14;stroke-linecap:round;stroke-miterlimit:10;}
	.st15{fill:none;stroke:#020076;stroke-width:2;stroke-linecap:round;stroke-miterlimit:10;}
	.st16{fill:none;stroke:#E4EFFF;stroke-width:14;stroke-miterlimit:10;}
	.st17{fill:none;stroke:#E4EFFF;stroke-width:14;stroke-linecap:round;stroke-miterlimit:10;}
	.st18{fill:none;stroke:#E4EFFF;stroke-width:2;stroke-linecap:round;stroke-miterlimit:10;}
</style>
<g id="Ebene_1" class="st0">
</g>
<g id="Ebene_2">
	<g>
		<path class="st15" d="M4.53,22.42c0,0-0.57,0-1.26,0s-1.26-0.9-1.26-2V4.19c0-1.1,0.9-2,2-2h15.96c1.1,0,2,0.49,2,1.1s0,1.1,0,1.1
			"/>
	</g>
	<g>
		<path class="st2" d="M10.19,22.59c-0.33,0.44-0.15,0.8,0.4,0.8H24.2c0.55,0,0.67-0.31,0.27-0.68l-2.38-2.23
			c-0.4-0.38-1.13-0.48-1.63-0.24l-0.68,0.33c-0.49,0.24-1.18,0.09-1.53-0.34l-2.61-3.23c-0.33-0.41-0.95-0.4-1.27,0.02L10.19,22.59
			z"/>
	</g>
	<circle class="st2" cx="21.98" cy="16.71" r="1.54"/>
	<path class="st9" d="M26.06,27.97H8.74c-1.12,0-2.03-0.91-2.03-2.03V8.62c0-1.12,0.91-2.03,2.03-2.03h17.32
		c1.12,0,2.03,0.91,2.03,2.03v17.32C28.09,27.06,27.18,27.97,26.06,27.97z"/>
</g>
</svg>
