<?xml version="1.0" encoding="utf-8"?>
<!-- Generator: Adobe Illustrator 26.2.1, SVG Export Plug-In . SVG Version: 6.00 Build 0)  -->
<svg version="1.1" xmlns="http://www.w3.org/2000/svg" xmlns:xlink="http://www.w3.org/1999/xlink" x="0px" y="0px"
	 viewBox="0 0 30 30" style="enable-background:new 0 0 30 30;" xml:space="preserve">
<style type="text/css">
	.st0{display:none;}
	.st1{display:inline;}
	.st2{fill:#020076;}
	.st3{fill:#E4EFFF;}
	.st4{fill:#020076;stroke:#020076;stroke-width:10;stroke-miterlimit:10;}
	.st5{fill:#E4EFFF;stroke:#E4EFFF;stroke-width:10;stroke-miterlimit:10;}
	.st6{fill:#020076;stroke:#020076;stroke-width:2;stroke-miterlimit:10;}
	.st7{fill:#E4EFFF;stroke:#E4EFFF;stroke-width:2;stroke-miterlimit:10;}
	.st8{fill:none;stroke:#020076;stroke-width:13;stroke-miterlimit:10;}
	.st9{fill:none;stroke:#020076;stroke-width:2;stroke-miterlimit:10;}
	.st10{fill:none;stroke:#E4EFFF;stroke-width:2;stroke-miterlimit:10;}
	.st11{fill:none;stroke:#E4EFFF;stroke-width:13;stroke-miterlimit:10;}
	.st12{fill:#FFFFFF;}
	.st13{fill:none;stroke:#020076;stroke-width:14;stroke-miterlimit:10;}
	.st14{fill:none;stroke:#020076;stroke-width:14;stroke-linecap:round;stroke-miterlimit:10;}
	.st15{fill:none;stroke:#020076;stroke-width:2;stroke-linecap:round;stroke-miterlimit:10;}
	.st16{fill:none;stroke:#E4EFFF;stroke-width:14;stroke-miterlimit:10;}
	.st17{fill:none;stroke:#E4EFFF;stroke-width:14;stroke-linecap:round;stroke-miterlimit:10;}
	.st18{fill:none;stroke:#E4EFFF;stroke-width:2;stroke-linecap:round;stroke-miterlimit:10;}
</style>
<g id="Ebene_1" class="st0">
</g>
<g id="Ebene_2">
	<path class="st2" d="M12.33,1.89l-8.08,0c-0.01,0-0.02,0-0.03,0H2.01c-0.07,0-0.13,0.03-0.17,0.07C1.79,2.01,1.76,2.07,1.76,2.14
		v2.22c0,0.01,0,0.02,0,0.03v8.08c0,0.14,0.11,0.25,0.25,0.25h2.22c0.14,0,0.25-0.11,0.25-0.25V6.52l9.59,9.59
		c0.25,0.25,0.65,0.25,0.89,0l1.02-1.02c0.25-0.25,0.25-0.65,0-0.89L6.38,4.6l5.94,0c0.14,0,0.25-0.11,0.25-0.25l0-2.22
		C12.57,2,12.46,1.89,12.33,1.89z"/>
	<path class="st2" d="M27.86,17.43h-2.22c-0.14,0-0.25,0.11-0.25,0.25v5.94l-9.59-9.59c-0.25-0.25-0.65-0.25-0.89,0l-1.02,1.02
		c-0.25,0.25-0.25,0.65,0,0.89l9.59,9.59h-5.94c-0.14,0-0.25,0.11-0.25,0.25l0,2.22c0,0.14,0.11,0.25,0.25,0.25h8.08
		c0.01,0,0.02,0,0.03,0h2.22c0.07,0,0.13-0.03,0.17-0.07c0.05-0.04,0.07-0.11,0.07-0.17v-2.22c0-0.01,0-0.02,0-0.03v-8.08
		C28.11,17.54,28,17.43,27.86,17.43z"/>
	<path class="st2" d="M28.24,12.33l0-8.08c0-0.01,0-0.02,0-0.03V2.01c0-0.07-0.03-0.13-0.07-0.17c-0.04-0.05-0.11-0.07-0.17-0.07
		h-2.22c-0.01,0-0.02,0-0.03,0h-8.08c-0.14,0-0.25,0.11-0.25,0.25v2.22c0,0.14,0.11,0.25,0.25,0.25h5.94l-9.59,9.59
		c-0.25,0.25-0.25,0.65,0,0.89l1.02,1.02c0.25,0.25,0.65,0.25,0.89,0l9.59-9.59l0,5.94c0,0.14,0.11,0.25,0.25,0.25l2.22,0
		C28.13,12.57,28.24,12.46,28.24,12.33z"/>
	<path class="st2" d="M12.71,27.86v-2.22c0-0.14-0.11-0.25-0.25-0.25H6.52l9.59-9.59c0.25-0.25,0.25-0.65,0-0.89l-1.02-1.02
		c-0.25-0.25-0.65-0.25-0.89,0L4.6,23.48v-5.94c0-0.14-0.11-0.25-0.25-0.25l-2.22,0c-0.14,0-0.25,0.11-0.25,0.25v8.08
		c0,0.01,0,0.02,0,0.03v2.22c0,0.07,0.03,0.13,0.07,0.17c0.04,0.05,0.11,0.07,0.17,0.07h2.22c0.01,0,0.02,0,0.03,0h8.08
		C12.6,28.11,12.71,28,12.71,27.86z"/>
</g>
</svg>
