<?xml version="1.0" encoding="utf-8"?>
<!-- Generator: Adobe Illustrator 26.2.1, SVG Export Plug-In . SVG Version: 6.00 Build 0)  -->
<svg version="1.1" xmlns="http://www.w3.org/2000/svg" xmlns:xlink="http://www.w3.org/1999/xlink" x="0px" y="0px"
	 viewBox="0 0 30 30" style="enable-background:new 0 0 30 30;" xml:space="preserve">
<style type="text/css">
	.st0{display:none;}
	.st1{display:inline;}
	.st2{fill:#020076;}
	.st3{fill:#E4EFFF;}
	.st4{fill:#020076;stroke:#020076;stroke-width:10;stroke-miterlimit:10;}
	.st5{fill:#E4EFFF;stroke:#E4EFFF;stroke-width:10;stroke-miterlimit:10;}
	.st6{fill:#020076;stroke:#020076;stroke-width:2;stroke-miterlimit:10;}
	.st7{fill:#E4EFFF;stroke:#E4EFFF;stroke-width:2;stroke-miterlimit:10;}
	.st8{fill:none;stroke:#020076;stroke-width:13;stroke-miterlimit:10;}
	.st9{fill:none;stroke:#020076;stroke-width:2;stroke-miterlimit:10;}
	.st10{fill:none;stroke:#E4EFFF;stroke-width:2;stroke-miterlimit:10;}
	.st11{fill:none;stroke:#E4EFFF;stroke-width:13;stroke-miterlimit:10;}
	.st12{fill:#FFFFFF;}
	.st13{fill:none;stroke:#020076;stroke-width:14;stroke-miterlimit:10;}
	.st14{fill:none;stroke:#020076;stroke-width:14;stroke-linecap:round;stroke-miterlimit:10;}
	.st15{fill:none;stroke:#020076;stroke-width:2;stroke-linecap:round;stroke-miterlimit:10;}
	.st16{fill:none;stroke:#E4EFFF;stroke-width:14;stroke-miterlimit:10;}
	.st17{fill:none;stroke:#E4EFFF;stroke-width:14;stroke-linecap:round;stroke-miterlimit:10;}
	.st18{fill:none;stroke:#E4EFFF;stroke-width:2;stroke-linecap:round;stroke-miterlimit:10;}
</style>
<g id="Ebene_1" class="st0">
</g>
<g id="Ebene_2">
	<g id="_x34__00000023257136154791259640000006011900799928921269_">
		<g>
			<path class="st2" d="M13.92,4.08L5.75,9.52H3.03c-1,0-1.82,0.81-1.82,1.82v7.26c0,1,0.81,1.82,1.82,1.82h2.72l8.17,5.45
				c1,0,1.82-0.81,1.82-1.82V5.89C15.74,4.89,14.93,4.08,13.92,4.08z M23.91,14.97c0-3.2-2.37-5.82-5.45-6.27v1.82
				c2.07,0.42,3.63,2.25,3.63,4.45c0,2.2-1.56,4.03-3.63,4.45v1.82C21.54,20.79,23.91,18.17,23.91,14.97z M18.46,2.27v1.87
				c5.33,1.03,9.08,5.38,9.08,10.83c0,5.43-3.63,9.63-9.08,10.84v1.87c6.15-0.9,10.9-6.21,10.9-12.7S24.62,3.17,18.46,2.27z"/>
		</g>
	</g>
</g>
</svg>
