<svg width="169" height="169" viewBox="0 0 169 169" fill="none" xmlns="http://www.w3.org/2000/svg">
<path d="M84.669 0C38.4194 0 0.901367 37.4617 0.901367 83.7113C0.901367 129.961 38.363 167.423 84.6127 167.423C130.862 167.423 168.324 129.961 168.324 83.7113C168.38 37.4617 130.919 0 84.669 0ZM114.695 44.109C121.173 44.109 126.468 49.4043 126.468 55.8827C126.468 62.361 121.173 67.6563 114.695 67.6563C108.216 67.6563 102.921 62.361 102.921 55.8827C102.921 49.348 108.216 44.109 114.695 44.109ZM53.8547 44.109C60.333 44.109 65.6284 49.4043 65.6284 55.8827C65.6284 62.361 60.333 67.6563 53.8547 67.6563C47.3764 67.6563 42.081 62.361 42.081 55.8827C42.1374 49.348 47.3764 44.109 53.8547 44.109ZM84.669 137.453C60.1077 137.453 38.9264 121.06 29.1807 97.4567C41.6867 116.835 61.854 129.454 84.669 129.454C107.484 129.454 127.651 116.835 140.157 97.4567C130.355 121.06 109.23 137.453 84.669 137.453Z" fill="#7DC871"/>
</svg>
