<svg width="281" height="146" viewBox="0 0 281 146" fill="none" xmlns="http://www.w3.org/2000/svg">
<g filter="url(#filter0_i_815_1245)">
<rect x="20" y="20" width="241" height="48" rx="4" fill="#C4C4C4"/>
</g>
<path d="M36.8 51.1628V37.1628H38.7V43.1428H45.6V37.1628H47.5V51.1628H45.6V44.7828H38.7V51.1628H36.8ZM54.8769 51.4028C54.0102 51.4028 53.2235 51.1828 52.5169 50.7428C51.8102 50.3028 51.2435 49.6828 50.8169 48.8828C50.4035 48.0695 50.1969 47.1161 50.1969 46.0228C50.1969 44.9828 50.4035 44.0495 50.8169 43.2228C51.2435 42.3961 51.8235 41.7428 52.5569 41.2628C53.3035 40.7695 54.1569 40.5228 55.1169 40.5228C55.7169 40.5228 56.2569 40.6295 56.7369 40.8428C57.2302 41.0428 57.6569 41.2961 58.0169 41.6028V40.7628H59.6569V48.6428C59.6569 49.1495 59.7769 49.4828 60.0169 49.6428C60.2702 49.7895 60.5435 49.8628 60.8369 49.8628L60.4569 51.2628C59.1769 51.2628 58.4035 50.7428 58.1369 49.7028C57.8302 50.1295 57.4102 50.5228 56.8769 50.8828C56.3569 51.2295 55.6902 51.4028 54.8769 51.4028ZM55.2769 49.8028C55.7835 49.8028 56.2635 49.6828 56.7169 49.4428C57.1702 49.1895 57.5502 48.8761 57.8569 48.5028V42.9228C57.4969 42.6695 57.0969 42.4695 56.6569 42.3228C56.2302 42.1628 55.7769 42.0828 55.2969 42.0828C54.6569 42.0828 54.0902 42.2495 53.5969 42.5828C53.1169 42.9028 52.7369 43.3561 52.4569 43.9428C52.1769 44.5161 52.0369 45.1895 52.0369 45.9628C52.0369 46.7095 52.1769 47.3761 52.4569 47.9628C52.7369 48.5361 53.1235 48.9895 53.6169 49.3228C54.1102 49.6428 54.6635 49.8028 55.2769 49.8028ZM63.2406 51.1628V40.7628H64.9806V42.5028C65.354 41.9428 65.8273 41.4761 66.4006 41.1028C66.9873 40.7161 67.6806 40.5228 68.4806 40.5228C69.654 40.5228 70.5273 40.8761 71.1006 41.5828C71.6873 42.2895 71.9806 43.2228 71.9806 44.3828V51.1628H70.1806V44.5828C70.1806 43.8361 70.0006 43.2361 69.6406 42.7828C69.294 42.3295 68.8073 42.1028 68.1806 42.1028C67.5673 42.1028 66.9873 42.3228 66.4406 42.7628C65.894 43.1895 65.4273 43.6961 65.0406 44.2828V51.1628H63.2406ZM75.0766 51.1628V40.7628H76.8166V42.5028C77.1899 41.9428 77.6632 41.4761 78.2366 41.1028C78.8232 40.7161 79.5166 40.5228 80.3166 40.5228C81.4899 40.5228 82.3632 40.8761 82.9366 41.5828C83.5232 42.2895 83.8166 43.2228 83.8166 44.3828V51.1628H82.0166V44.5828C82.0166 43.8361 81.8366 43.2361 81.4766 42.7828C81.1299 42.3295 80.6432 42.1028 80.0166 42.1028C79.4032 42.1028 78.8232 42.3228 78.2766 42.7628C77.7299 43.1895 77.2632 43.6961 76.8766 44.2828V51.1628H75.0766ZM90.8925 51.4028C90.0258 51.4028 89.2392 51.1828 88.5325 50.7428C87.8258 50.3028 87.2592 49.6828 86.8325 48.8828C86.4192 48.0695 86.2125 47.1161 86.2125 46.0228C86.2125 44.9828 86.4192 44.0495 86.8325 43.2228C87.2592 42.3961 87.8392 41.7428 88.5725 41.2628C89.3192 40.7695 90.1725 40.5228 91.1325 40.5228C91.7325 40.5228 92.2725 40.6295 92.7525 40.8428C93.2458 41.0428 93.6725 41.2961 94.0325 41.6028V40.7628H95.6725V48.6428C95.6725 49.1495 95.7925 49.4828 96.0325 49.6428C96.2858 49.7895 96.5592 49.8628 96.8525 49.8628L96.4725 51.2628C95.1925 51.2628 94.4192 50.7428 94.1525 49.7028C93.8458 50.1295 93.4258 50.5228 92.8925 50.8828C92.3725 51.2295 91.7058 51.4028 90.8925 51.4028ZM91.2925 49.8028C91.7992 49.8028 92.2792 49.6828 92.7325 49.4428C93.1858 49.1895 93.5658 48.8761 93.8725 48.5028V42.9228C93.5125 42.6695 93.1125 42.4695 92.6725 42.3228C92.2458 42.1628 91.7925 42.0828 91.3125 42.0828C90.6725 42.0828 90.1058 42.2495 89.6125 42.5828C89.1325 42.9028 88.7525 43.3561 88.4725 43.9428C88.1925 44.5161 88.0525 45.1895 88.0525 45.9628C88.0525 46.7095 88.1925 47.3761 88.4725 47.9628C88.7525 48.5361 89.1392 48.9895 89.6325 49.3228C90.1258 49.6428 90.6792 49.8028 91.2925 49.8028Z" fill="#020076" fill-opacity="0.4"/>
<g filter="url(#filter1_i_815_1245)">
<rect x="20" y="83" width="241" height="48" rx="4" fill="#C4C4C4"/>
</g>
<path d="M36.8 114.163V100.163H38.7V114.163H36.8Z" fill="#020076" fill-opacity="0.4"/>
<rect x="0.5" y="0.5" width="280" height="145" rx="4.5" stroke="#9747FF" stroke-dasharray="10 5"/>
<defs>
<filter id="filter0_i_815_1245" x="20" y="20" width="245" height="52" filterUnits="userSpaceOnUse" color-interpolation-filters="sRGB">
<feFlood flood-opacity="0" result="BackgroundImageFix"/>
<feBlend mode="normal" in="SourceGraphic" in2="BackgroundImageFix" result="shape"/>
<feColorMatrix in="SourceAlpha" type="matrix" values="0 0 0 0 0 0 0 0 0 0 0 0 0 0 0 0 0 0 127 0" result="hardAlpha"/>
<feOffset dx="4" dy="4"/>
<feGaussianBlur stdDeviation="2"/>
<feComposite in2="hardAlpha" operator="arithmetic" k2="-1" k3="1"/>
<feColorMatrix type="matrix" values="0 0 0 0 0 0 0 0 0 0 0 0 0 0 0 0 0 0 0.25 0"/>
<feBlend mode="normal" in2="shape" result="effect1_innerShadow_815_1245"/>
</filter>
<filter id="filter1_i_815_1245" x="20" y="83" width="245" height="52" filterUnits="userSpaceOnUse" color-interpolation-filters="sRGB">
<feFlood flood-opacity="0" result="BackgroundImageFix"/>
<feBlend mode="normal" in="SourceGraphic" in2="BackgroundImageFix" result="shape"/>
<feColorMatrix in="SourceAlpha" type="matrix" values="0 0 0 0 0 0 0 0 0 0 0 0 0 0 0 0 0 0 127 0" result="hardAlpha"/>
<feOffset dx="4" dy="4"/>
<feGaussianBlur stdDeviation="2"/>
<feComposite in2="hardAlpha" operator="arithmetic" k2="-1" k3="1"/>
<feColorMatrix type="matrix" values="0 0 0 0 0 0 0 0 0 0 0 0 0 0 0 0 0 0 0.25 0"/>
<feBlend mode="normal" in2="shape" result="effect1_innerShadow_815_1245"/>
</filter>
</defs>
</svg>
