<svg width="314" height="313" viewBox="0 0 314 313" fill="none" xmlns="http://www.w3.org/2000/svg">
<circle cx="157" cy="156.61" r="156.076" fill="#3961E5"/>
<path d="M186.263 156.817L207.929 130.262L196.442 123.633L189.784 130.469L148.481 106.472L148.508 106.431L148.453 106.527L136.298 126.813V126.896L136.243 126.882L177.491 151.766" fill="white"/>
<path d="M94.1143 227.546L115.891 254.059L124.577 244.061L119.136 236.217L161.806 187.126L161.848 187.167L161.765 187.084L143.33 171.068L143.234 171.054L143.261 170.998L100.592 220.09" fill="white"/>
<path d="M110.547 192.211H135.127L138.718 176.192H157.637L160.951 192.211H186.36L161.503 95.9612H137.061L110.547 192.211Z" fill="white"/>
<path d="M209.118 91.9642C209.118 91.9642 219.886 80.921 219.886 73.0547C219.851 70.1967 218.687 67.4684 216.649 65.4651C214.61 63.4617 211.862 62.3459 209.004 62.361C206.145 62.3761 203.409 63.5209 201.392 65.5457C199.374 67.5704 198.24 70.3109 198.235 73.1691C198.235 80.9206 209.118 91.9642 209.118 91.9642Z" fill="white"/>
<path d="M140.375 254.06H174.141V240.803L164.889 238.455V173.415L165.112 173.595H165.015L140.25 173.401H140.361L140.305 173.415V254.06H140.375Z" fill="white"/>
<path d="M157.111 85.5356C159.72 85.5219 162.265 84.7351 164.427 83.2745C166.588 81.814 168.267 79.7454 169.253 77.3304C170.238 74.9153 170.486 72.2623 169.963 69.7067C169.441 67.1511 168.172 64.8079 166.318 62.9732C164.464 61.1386 162.108 59.895 159.547 59.3996C156.986 58.9043 154.335 59.1795 151.931 60.1905C149.526 61.2014 147.476 62.9027 146.038 65.0792C144.6 67.2557 143.841 69.8096 143.854 72.4179C143.885 75.9118 145.295 79.2519 147.779 81.7094C150.263 84.1669 153.617 85.5424 157.111 85.5356Z" fill="white"/>
</svg>
