<?xml version="1.0" encoding="UTF-8" standalone="no"?>
<!DOCTYPE svg PUBLIC "-//W3C//DTD SVG 1.1//EN" "http://www.w3.org/Graphics/SVG/1.1/DTD/svg11.dtd">
<svg width="100%" height="100%" viewBox="0 0 314 313" version="1.1" xmlns="http://www.w3.org/2000/svg" xmlns:xlink="http://www.w3.org/1999/xlink" xml:space="preserve" xmlns:serif="http://www.serif.com/" style="fill-rule:evenodd;clip-rule:evenodd;stroke-linejoin:round;stroke-miterlimit:2;">
    <circle cx="157" cy="156.61" r="156.076" style="fill:rgb(2,0,118);"/>
    <path d="M186.263,156.817L207.929,130.262L196.442,123.633L189.784,130.469L148.481,106.472L148.508,106.431L148.453,106.527L136.298,126.813L136.298,126.896L136.243,126.882L177.491,151.766" style="fill:white;fill-rule:nonzero;"/>
    <path d="M94.114,227.546L115.891,254.059L124.577,244.061L119.136,236.217L161.806,187.126L161.848,187.167L161.765,187.084L143.33,171.068L143.234,171.054L143.261,170.998L100.592,220.09" style="fill:white;fill-rule:nonzero;"/>
    <path d="M110.547,192.211L135.127,192.211L138.718,176.192L157.637,176.192L160.951,192.211L186.36,192.211L161.503,95.961L137.061,95.961L110.547,192.211Z" style="fill:white;fill-rule:nonzero;"/>
    <path d="M209.118,91.964C209.118,91.964 219.886,80.921 219.886,73.055C219.851,70.197 218.687,67.468 216.649,65.465C214.61,63.462 211.862,62.346 209.004,62.361C206.145,62.376 203.409,63.521 201.392,65.546C199.374,67.57 198.24,70.311 198.235,73.169C198.235,80.921 209.118,91.964 209.118,91.964Z" style="fill:white;fill-rule:nonzero;"/>
    <path d="M140.305,254.06L174.141,254.06L174.141,240.803L164.889,238.455L164.889,173.415L165.112,173.595L165.015,173.595L140.25,173.401L140.361,173.401L140.305,173.415L140.305,254.06Z" style="fill:white;fill-rule:nonzero;"/>
    <path d="M157.111,85.536C159.72,85.522 162.265,84.735 164.427,83.275C166.588,81.814 168.267,79.745 169.253,77.33C170.238,74.915 170.486,72.262 169.963,69.707C169.441,67.151 168.172,64.808 166.318,62.973C164.464,61.139 162.108,59.895 159.547,59.4C156.986,58.904 154.335,59.179 151.931,60.191C149.526,61.201 147.476,62.903 146.038,65.079C144.6,67.256 143.841,69.81 143.854,72.418C143.885,75.912 145.295,79.252 147.779,81.709C150.263,84.167 153.617,85.542 157.111,85.536Z" style="fill:white;fill-rule:nonzero;"/>
</svg>
