<svg width="241" height="39" viewBox="0 0 241 39" fill="none" xmlns="http://www.w3.org/2000/svg">
<path d="M7.76868 19.4277H10.2589C12.5864 19.4277 14.3279 18.972 15.4835 18.0605C16.6391 17.1328 17.2169 15.79 17.2169 14.0322C17.2169 12.2581 16.7286 10.9479 15.7521 10.1016C14.7918 9.25521 13.2781 8.83203 11.2111 8.83203H7.76868V19.4277ZM24.8585 13.7637C24.8585 17.6048 23.6541 20.5426 21.2452 22.5771C18.8527 24.6117 15.4428 25.6289 11.0157 25.6289H7.76868V38.3242H0.200317V2.63086H11.6017C15.9311 2.63086 19.2189 3.56673 21.465 5.43848C23.7273 7.29395 24.8585 10.069 24.8585 13.7637ZM53.4474 38.3242L50.8595 29.8281H37.8468L35.2589 38.3242H27.1046L39.7023 2.48438H48.9552L61.6017 38.3242H53.4474ZM49.0529 23.4805C46.6603 15.7819 45.3094 11.4281 45.0001 10.4189C44.7072 9.40983 44.4956 8.6123 44.3654 8.02637C43.8282 10.1097 42.2902 15.2611 39.7511 23.4805H49.0529ZM79.6681 18.2803H93.8282V36.7861C91.5333 37.5348 89.3686 38.0557 87.3341 38.3486C85.3159 38.6579 83.2488 38.8125 81.1329 38.8125C75.7456 38.8125 71.6277 37.2337 68.7794 34.0762C65.9474 30.9023 64.5314 26.3532 64.5314 20.4287C64.5314 14.667 66.1753 10.1748 69.463 6.95215C72.767 3.72949 77.3406 2.11816 83.1837 2.11816C86.8458 2.11816 90.3777 2.85059 93.7794 4.31543L91.2648 10.3701C88.6606 9.06803 85.9506 8.41699 83.1349 8.41699C79.8634 8.41699 77.243 9.51562 75.2736 11.7129C73.3042 13.9102 72.3195 16.8643 72.3195 20.5752C72.3195 24.4489 73.1088 27.4111 74.6876 29.4619C76.2827 31.4964 78.5939 32.5137 81.6212 32.5137C83.2 32.5137 84.8032 32.3509 86.4308 32.0254V24.5791H79.6681V18.2803ZM124.199 38.3242L121.611 29.8281H108.599L106.011 38.3242H97.8566L110.454 2.48438H119.707L132.354 38.3242H124.199ZM119.805 23.4805C117.412 15.7819 116.061 11.4281 115.752 10.4189C115.459 9.40983 115.248 8.6123 115.117 8.02637C114.58 10.1097 113.042 15.2611 110.503 23.4805H119.805ZM168.535 38.3242H158.916L143.389 11.3223H143.169C143.478 16.0911 143.633 19.4928 143.633 21.5273V38.3242H136.87V2.63086H146.416L161.919 29.3643H162.09C161.846 24.7256 161.724 21.446 161.724 19.5254V2.63086H168.535V38.3242ZM176.641 3.97363C176.641 1.5485 177.992 0.335938 180.693 0.335938C183.395 0.335938 184.746 1.5485 184.746 3.97363C184.746 5.12923 184.404 6.03255 183.721 6.68359C183.054 7.31836 182.044 7.63574 180.693 7.63574C177.992 7.63574 176.641 6.41504 176.641 3.97363ZM184.404 38.3242H176.958V11.0293H184.404V38.3242ZM224.492 38.3242H214.873L199.346 11.3223H199.126C199.435 16.0911 199.59 19.4928 199.59 21.5273V38.3242H192.827V2.63086H202.373L217.876 29.3643H218.047C217.803 24.7256 217.681 21.446 217.681 19.5254V2.63086H224.492V38.3242ZM232.598 3.97363C232.598 1.5485 233.949 0.335938 236.651 0.335938C239.352 0.335938 240.703 1.5485 240.703 3.97363C240.703 5.12923 240.361 6.03255 239.678 6.68359C239.011 7.31836 238.001 7.63574 236.651 7.63574C233.949 7.63574 232.598 6.41504 232.598 3.97363ZM240.361 38.3242H232.915V11.0293H240.361V38.3242Z" fill="#3961E5"/>
</svg>
