<svg width="367" height="188" viewBox="0 0 367 188" fill="none" xmlns="http://www.w3.org/2000/svg">
<g filter="url(#filter0_d_190_509)">
<rect x="20" y="20" width="327" height="64" rx="10" fill="#7277BB"/>
</g>
<g opacity="0.5" filter="url(#filter1_d_190_509)">
<rect x="183" y="20" width="164" height="64" rx="10" fill="#020076"/>
</g>
<path d="M71.2615 40H54.7385C53.226 40 52 41.226 52 42.7385V59.2615C52 60.774 53.226 62 54.7385 62H71.2615C72.774 62 74 60.774 74 59.2615V42.7385C74 41.226 72.774 40 71.2615 40ZM82.1125 42.1599L75.8333 46.4911V55.5089L82.1125 59.8344C83.3271 60.6708 85 59.8172 85 58.3563V43.638C85 42.1828 83.3328 41.3234 82.1125 42.1599Z" fill="#E4EFFF"/>
<path d="M105.492 59L100.352 45.5L102.212 44.78L106.612 56.92L111.032 44.84L112.752 45.5L107.632 59H105.492ZM114.545 59V48.6H116.345V59H114.545ZM115.445 46.82C115.099 46.82 114.799 46.6933 114.545 46.44C114.305 46.1867 114.185 45.8933 114.185 45.56C114.185 45.1733 114.299 44.8667 114.525 44.64C114.752 44.4133 115.059 44.3 115.445 44.3C115.792 44.3 116.085 44.4267 116.325 44.68C116.579 44.92 116.705 45.2133 116.705 45.56C116.705 45.9333 116.592 46.24 116.365 46.48C116.139 46.7067 115.832 46.82 115.445 46.82ZM123.485 59.24C122.632 59.24 121.852 59.02 121.145 58.58C120.439 58.14 119.879 57.52 119.465 56.72C119.052 55.9067 118.845 54.9533 118.845 53.86C118.845 52.8067 119.052 51.8667 119.465 51.04C119.892 50.2133 120.452 49.56 121.145 49.08C121.852 48.6 122.625 48.36 123.465 48.36C124.159 48.36 124.752 48.5 125.245 48.78C125.752 49.06 126.145 49.3467 126.425 49.64V44.2H128.225V56.48C128.225 56.9867 128.345 57.32 128.585 57.48C128.839 57.6267 129.112 57.7 129.405 57.7L129.025 59.1C127.759 59.1 126.985 58.5933 126.705 57.58C126.412 57.9933 125.999 58.3733 125.465 58.72C124.945 59.0667 124.285 59.24 123.485 59.24ZM123.885 57.64C124.379 57.64 124.845 57.5267 125.285 57.3C125.739 57.06 126.119 56.7533 126.425 56.38V51.22C126.172 50.9 125.819 50.6067 125.365 50.34C124.912 50.06 124.412 49.92 123.865 49.92C123.225 49.92 122.665 50.0933 122.185 50.44C121.705 50.7867 121.332 51.2533 121.065 51.84C120.812 52.4133 120.685 53.0667 120.685 53.8C120.685 54.5333 120.825 55.1933 121.105 55.78C121.385 56.3533 121.765 56.8067 122.245 57.14C122.739 57.4733 123.285 57.64 123.885 57.64ZM135.776 59.24C134.282 59.24 133.096 58.7667 132.216 57.82C131.349 56.86 130.916 55.52 130.916 53.8C130.916 52.76 131.109 51.8333 131.496 51.02C131.896 50.1933 132.449 49.5467 133.156 49.08C133.862 48.6 134.682 48.36 135.616 48.36C136.616 48.36 137.442 48.58 138.096 49.02C138.762 49.4467 139.262 50.0267 139.596 50.76C139.929 51.4933 140.096 52.3 140.096 53.18C140.096 53.6467 140.076 54.1 140.036 54.54H132.756C132.876 55.5133 133.216 56.2733 133.776 56.82C134.336 57.3667 135.076 57.64 135.996 57.64C136.596 57.64 137.136 57.58 137.616 57.46C138.096 57.3267 138.556 57.16 138.996 56.96L139.416 58.5C138.936 58.7133 138.396 58.8867 137.796 59.02C137.196 59.1667 136.522 59.24 135.776 59.24ZM132.736 53.08H138.436C138.436 52.0667 138.182 51.2867 137.676 50.74C137.169 50.1933 136.469 49.92 135.576 49.92C134.802 49.92 134.162 50.1933 133.656 50.74C133.149 51.2733 132.842 52.0533 132.736 53.08ZM146.875 59.24C145.888 59.24 145.001 59.0133 144.215 58.56C143.428 58.0933 142.808 57.4533 142.355 56.64C141.915 55.8133 141.695 54.8667 141.695 53.8C141.695 52.68 141.921 51.7133 142.375 50.9C142.828 50.0867 143.448 49.46 144.235 49.02C145.021 48.58 145.901 48.36 146.875 48.36C147.848 48.36 148.721 48.58 149.495 49.02C150.281 49.46 150.901 50.0867 151.355 50.9C151.821 51.7 152.055 52.6533 152.055 53.76C152.055 54.8667 151.828 55.8333 151.375 56.66C150.921 57.4733 150.301 58.1067 149.515 58.56C148.741 59.0133 147.861 59.24 146.875 59.24ZM146.875 57.64C147.928 57.64 148.748 57.2867 149.335 56.58C149.921 55.86 150.215 54.9333 150.215 53.8C150.215 53.1067 150.068 52.4733 149.775 51.9C149.481 51.3133 149.081 50.8467 148.575 50.5C148.081 50.14 147.515 49.96 146.875 49.96C145.821 49.96 145.001 50.3067 144.415 51C143.828 51.6933 143.535 52.6133 143.535 53.76C143.535 54.4533 143.681 55.1 143.975 55.7C144.268 56.2867 144.661 56.76 145.155 57.12C145.661 57.4667 146.235 57.64 146.875 57.64Z" fill="#E4EFFF"/>
<path d="M260.686 59.24L258.946 55.44C258.506 54.4933 257.953 53.82 257.286 53.42C256.619 53.02 255.766 52.82 254.726 52.82H254.426V59H252.526V45.04C253.233 44.9733 253.906 44.9267 254.546 44.9C255.199 44.86 255.893 44.84 256.626 44.84C258.333 44.84 259.613 45.1867 260.466 45.88C261.333 46.5733 261.766 47.4667 261.766 48.56C261.766 49.5333 261.473 50.32 260.886 50.92C260.313 51.5067 259.479 51.9467 258.386 52.24C258.746 52.4 259.066 52.5933 259.346 52.82C259.626 53.0333 259.893 53.3267 260.146 53.7C260.413 54.06 260.679 54.5333 260.946 55.12L262.466 58.4L260.686 59.24ZM254.426 51.22H256.626C257.586 51.22 258.366 51.0067 258.966 50.58C259.566 50.1533 259.866 49.54 259.866 48.74C259.866 48.0733 259.586 47.5267 259.026 47.1C258.466 46.66 257.666 46.44 256.626 46.44C256.173 46.44 255.766 46.4467 255.406 46.46C255.046 46.4733 254.719 46.4933 254.426 46.52V51.22ZM269.05 59.24C268.063 59.24 267.176 59.0133 266.39 58.56C265.603 58.0933 264.983 57.4533 264.53 56.64C264.09 55.8133 263.87 54.8667 263.87 53.8C263.87 52.68 264.096 51.7133 264.55 50.9C265.003 50.0867 265.623 49.46 266.41 49.02C267.196 48.58 268.076 48.36 269.05 48.36C270.023 48.36 270.896 48.58 271.67 49.02C272.456 49.46 273.076 50.0867 273.53 50.9C273.996 51.7 274.23 52.6533 274.23 53.76C274.23 54.8667 274.003 55.8333 273.55 56.66C273.096 57.4733 272.476 58.1067 271.69 58.56C270.916 59.0133 270.036 59.24 269.05 59.24ZM269.05 57.64C270.103 57.64 270.923 57.2867 271.51 56.58C272.096 55.86 272.39 54.9333 272.39 53.8C272.39 53.1067 272.243 52.4733 271.95 51.9C271.656 51.3133 271.256 50.8467 270.75 50.5C270.256 50.14 269.69 49.96 269.05 49.96C267.996 49.96 267.176 50.3067 266.59 51C266.003 51.6933 265.71 52.6133 265.71 53.76C265.71 54.4533 265.856 55.1 266.15 55.7C266.443 56.2867 266.836 56.76 267.33 57.12C267.836 57.4667 268.41 57.64 269.05 57.64ZM280.023 59.24C279.423 59.24 278.856 59.1133 278.323 58.86C277.79 58.6067 277.356 58.2 277.023 57.64C276.69 57.0667 276.523 56.3067 276.523 55.36V48.6H278.323V55.12C278.323 55.9333 278.496 56.56 278.843 57C279.19 57.4267 279.696 57.64 280.363 57.64C280.91 57.64 281.436 57.5333 281.943 57.32C282.463 57.0933 282.923 56.7933 283.323 56.42V48.6H285.123V56.3C285.123 56.8733 285.243 57.2533 285.483 57.44C285.736 57.6133 286.01 57.7 286.303 57.7L285.923 59.1C284.683 59.1 283.916 58.6067 283.623 57.62C283.156 58.1 282.616 58.4933 282.003 58.8C281.39 59.0933 280.73 59.24 280.023 59.24ZM292.333 59.24C291.333 59.24 290.54 58.9133 289.953 58.26C289.38 57.5933 289.093 56.6467 289.093 55.42V50.54H287.293V48.98H289.133L289.513 45.7H290.893V48.98H293.773V50.54H290.893V55.56C290.893 56.3333 291.053 56.8733 291.373 57.18C291.707 57.4867 292.1 57.64 292.553 57.64C292.887 57.64 293.2 57.5867 293.493 57.48C293.8 57.3733 294.08 57.2467 294.333 57.1L294.833 58.54C294.567 58.7 294.207 58.8533 293.753 59C293.3 59.16 292.827 59.24 292.333 59.24ZM300.412 59.24C298.919 59.24 297.732 58.7667 296.852 57.82C295.985 56.86 295.552 55.52 295.552 53.8C295.552 52.76 295.745 51.8333 296.132 51.02C296.532 50.1933 297.085 49.5467 297.792 49.08C298.499 48.6 299.319 48.36 300.252 48.36C301.252 48.36 302.079 48.58 302.732 49.02C303.399 49.4467 303.899 50.0267 304.232 50.76C304.565 51.4933 304.732 52.3 304.732 53.18C304.732 53.6467 304.712 54.1 304.672 54.54H297.392C297.512 55.5133 297.852 56.2733 298.412 56.82C298.972 57.3667 299.712 57.64 300.632 57.64C301.232 57.64 301.772 57.58 302.252 57.46C302.732 57.3267 303.192 57.16 303.632 56.96L304.052 58.5C303.572 58.7133 303.032 58.8867 302.432 59.02C301.832 59.1667 301.159 59.24 300.412 59.24ZM297.372 53.08H303.072C303.072 52.0667 302.819 51.2867 302.312 50.74C301.805 50.1933 301.105 49.92 300.212 49.92C299.439 49.92 298.799 50.1933 298.292 50.74C297.785 51.2733 297.479 52.0533 297.372 53.08Z" fill="#E4EFFF"/>
<ellipse cx="229" cy="61.4286" rx="12" ry="5.57143" fill="#C4C4C4"/>
<path d="M228.573 37C223.6 37 219.572 41.0285 219.572 46.001C219.572 49.7609 227.075 61.0081 228.573 61C230.046 61.0081 237.574 49.7121 237.574 46.001C237.574 41.0366 233.545 37 228.573 37Z" fill="#E4EFFF"/>
<g filter="url(#filter2_d_190_509)">
<rect x="20" y="104" width="327" height="64" rx="10" fill="#7277BB"/>
</g>
<g opacity="0.5" filter="url(#filter3_d_190_509)">
<rect x="20" y="104" width="164" height="64" rx="10" fill="#020076"/>
</g>
<path d="M71.2615 124H54.7385C53.226 124 52 125.226 52 126.739V143.261C52 144.774 53.226 146 54.7385 146H71.2615C72.774 146 74 144.774 74 143.261V126.739C74 125.226 72.774 124 71.2615 124ZM82.1125 126.16L75.8333 130.491V139.509L82.1125 143.834C83.3271 144.671 85 143.817 85 142.356V127.638C85 126.183 83.3328 125.323 82.1125 126.16Z" fill="#E4EFFF"/>
<path d="M105.492 143L100.352 129.5L102.212 128.78L106.612 140.92L111.032 128.84L112.752 129.5L107.632 143H105.492ZM114.545 143V132.6H116.345V143H114.545ZM115.445 130.82C115.099 130.82 114.799 130.693 114.545 130.44C114.305 130.187 114.185 129.893 114.185 129.56C114.185 129.173 114.299 128.867 114.525 128.64C114.752 128.413 115.059 128.3 115.445 128.3C115.792 128.3 116.085 128.427 116.325 128.68C116.579 128.92 116.705 129.213 116.705 129.56C116.705 129.933 116.592 130.24 116.365 130.48C116.139 130.707 115.832 130.82 115.445 130.82ZM123.485 143.24C122.632 143.24 121.852 143.02 121.145 142.58C120.439 142.14 119.879 141.52 119.465 140.72C119.052 139.907 118.845 138.953 118.845 137.86C118.845 136.807 119.052 135.867 119.465 135.04C119.892 134.213 120.452 133.56 121.145 133.08C121.852 132.6 122.625 132.36 123.465 132.36C124.159 132.36 124.752 132.5 125.245 132.78C125.752 133.06 126.145 133.347 126.425 133.64V128.2H128.225V140.48C128.225 140.987 128.345 141.32 128.585 141.48C128.839 141.627 129.112 141.7 129.405 141.7L129.025 143.1C127.759 143.1 126.985 142.593 126.705 141.58C126.412 141.993 125.999 142.373 125.465 142.72C124.945 143.067 124.285 143.24 123.485 143.24ZM123.885 141.64C124.379 141.64 124.845 141.527 125.285 141.3C125.739 141.06 126.119 140.753 126.425 140.38V135.22C126.172 134.9 125.819 134.607 125.365 134.34C124.912 134.06 124.412 133.92 123.865 133.92C123.225 133.92 122.665 134.093 122.185 134.44C121.705 134.787 121.332 135.253 121.065 135.84C120.812 136.413 120.685 137.067 120.685 137.8C120.685 138.533 120.825 139.193 121.105 139.78C121.385 140.353 121.765 140.807 122.245 141.14C122.739 141.473 123.285 141.64 123.885 141.64ZM135.776 143.24C134.282 143.24 133.096 142.767 132.216 141.82C131.349 140.86 130.916 139.52 130.916 137.8C130.916 136.76 131.109 135.833 131.496 135.02C131.896 134.193 132.449 133.547 133.156 133.08C133.862 132.6 134.682 132.36 135.616 132.36C136.616 132.36 137.442 132.58 138.096 133.02C138.762 133.447 139.262 134.027 139.596 134.76C139.929 135.493 140.096 136.3 140.096 137.18C140.096 137.647 140.076 138.1 140.036 138.54H132.756C132.876 139.513 133.216 140.273 133.776 140.82C134.336 141.367 135.076 141.64 135.996 141.64C136.596 141.64 137.136 141.58 137.616 141.46C138.096 141.327 138.556 141.16 138.996 140.96L139.416 142.5C138.936 142.713 138.396 142.887 137.796 143.02C137.196 143.167 136.522 143.24 135.776 143.24ZM132.736 137.08H138.436C138.436 136.067 138.182 135.287 137.676 134.74C137.169 134.193 136.469 133.92 135.576 133.92C134.802 133.92 134.162 134.193 133.656 134.74C133.149 135.273 132.842 136.053 132.736 137.08ZM146.875 143.24C145.888 143.24 145.001 143.013 144.215 142.56C143.428 142.093 142.808 141.453 142.355 140.64C141.915 139.813 141.695 138.867 141.695 137.8C141.695 136.68 141.921 135.713 142.375 134.9C142.828 134.087 143.448 133.46 144.235 133.02C145.021 132.58 145.901 132.36 146.875 132.36C147.848 132.36 148.721 132.58 149.495 133.02C150.281 133.46 150.901 134.087 151.355 134.9C151.821 135.7 152.055 136.653 152.055 137.76C152.055 138.867 151.828 139.833 151.375 140.66C150.921 141.473 150.301 142.107 149.515 142.56C148.741 143.013 147.861 143.24 146.875 143.24ZM146.875 141.64C147.928 141.64 148.748 141.287 149.335 140.58C149.921 139.86 150.215 138.933 150.215 137.8C150.215 137.107 150.068 136.473 149.775 135.9C149.481 135.313 149.081 134.847 148.575 134.5C148.081 134.14 147.515 133.96 146.875 133.96C145.821 133.96 145.001 134.307 144.415 135C143.828 135.693 143.535 136.613 143.535 137.76C143.535 138.453 143.681 139.1 143.975 139.7C144.268 140.287 144.661 140.76 145.155 141.12C145.661 141.467 146.235 141.64 146.875 141.64Z" fill="#E4EFFF"/>
<path d="M260.686 143.24L258.946 139.44C258.506 138.493 257.953 137.82 257.286 137.42C256.619 137.02 255.766 136.82 254.726 136.82H254.426V143H252.526V129.04C253.233 128.973 253.906 128.927 254.546 128.9C255.199 128.86 255.893 128.84 256.626 128.84C258.333 128.84 259.613 129.187 260.466 129.88C261.333 130.573 261.766 131.467 261.766 132.56C261.766 133.533 261.473 134.32 260.886 134.92C260.313 135.507 259.479 135.947 258.386 136.24C258.746 136.4 259.066 136.593 259.346 136.82C259.626 137.033 259.893 137.327 260.146 137.7C260.413 138.06 260.679 138.533 260.946 139.12L262.466 142.4L260.686 143.24ZM254.426 135.22H256.626C257.586 135.22 258.366 135.007 258.966 134.58C259.566 134.153 259.866 133.54 259.866 132.74C259.866 132.073 259.586 131.527 259.026 131.1C258.466 130.66 257.666 130.44 256.626 130.44C256.173 130.44 255.766 130.447 255.406 130.46C255.046 130.473 254.719 130.493 254.426 130.52V135.22ZM269.05 143.24C268.063 143.24 267.176 143.013 266.39 142.56C265.603 142.093 264.983 141.453 264.53 140.64C264.09 139.813 263.87 138.867 263.87 137.8C263.87 136.68 264.096 135.713 264.55 134.9C265.003 134.087 265.623 133.46 266.41 133.02C267.196 132.58 268.076 132.36 269.05 132.36C270.023 132.36 270.896 132.58 271.67 133.02C272.456 133.46 273.076 134.087 273.53 134.9C273.996 135.7 274.23 136.653 274.23 137.76C274.23 138.867 274.003 139.833 273.55 140.66C273.096 141.473 272.476 142.107 271.69 142.56C270.916 143.013 270.036 143.24 269.05 143.24ZM269.05 141.64C270.103 141.64 270.923 141.287 271.51 140.58C272.096 139.86 272.39 138.933 272.39 137.8C272.39 137.107 272.243 136.473 271.95 135.9C271.656 135.313 271.256 134.847 270.75 134.5C270.256 134.14 269.69 133.96 269.05 133.96C267.996 133.96 267.176 134.307 266.59 135C266.003 135.693 265.71 136.613 265.71 137.76C265.71 138.453 265.856 139.1 266.15 139.7C266.443 140.287 266.836 140.76 267.33 141.12C267.836 141.467 268.41 141.64 269.05 141.64ZM280.023 143.24C279.423 143.24 278.856 143.113 278.323 142.86C277.79 142.607 277.356 142.2 277.023 141.64C276.69 141.067 276.523 140.307 276.523 139.36V132.6H278.323V139.12C278.323 139.933 278.496 140.56 278.843 141C279.19 141.427 279.696 141.64 280.363 141.64C280.91 141.64 281.436 141.533 281.943 141.32C282.463 141.093 282.923 140.793 283.323 140.42V132.6H285.123V140.3C285.123 140.873 285.243 141.253 285.483 141.44C285.736 141.613 286.01 141.7 286.303 141.7L285.923 143.1C284.683 143.1 283.916 142.607 283.623 141.62C283.156 142.1 282.616 142.493 282.003 142.8C281.39 143.093 280.73 143.24 280.023 143.24ZM292.333 143.24C291.333 143.24 290.54 142.913 289.953 142.26C289.38 141.593 289.093 140.647 289.093 139.42V134.54H287.293V132.98H289.133L289.513 129.7H290.893V132.98H293.773V134.54H290.893V139.56C290.893 140.333 291.053 140.873 291.373 141.18C291.707 141.487 292.1 141.64 292.553 141.64C292.887 141.64 293.2 141.587 293.493 141.48C293.8 141.373 294.08 141.247 294.333 141.1L294.833 142.54C294.567 142.7 294.207 142.853 293.753 143C293.3 143.16 292.827 143.24 292.333 143.24ZM300.412 143.24C298.919 143.24 297.732 142.767 296.852 141.82C295.985 140.86 295.552 139.52 295.552 137.8C295.552 136.76 295.745 135.833 296.132 135.02C296.532 134.193 297.085 133.547 297.792 133.08C298.499 132.6 299.319 132.36 300.252 132.36C301.252 132.36 302.079 132.58 302.732 133.02C303.399 133.447 303.899 134.027 304.232 134.76C304.565 135.493 304.732 136.3 304.732 137.18C304.732 137.647 304.712 138.1 304.672 138.54H297.392C297.512 139.513 297.852 140.273 298.412 140.82C298.972 141.367 299.712 141.64 300.632 141.64C301.232 141.64 301.772 141.58 302.252 141.46C302.732 141.327 303.192 141.16 303.632 140.96L304.052 142.5C303.572 142.713 303.032 142.887 302.432 143.02C301.832 143.167 301.159 143.24 300.412 143.24ZM297.372 137.08H303.072C303.072 136.067 302.819 135.287 302.312 134.74C301.805 134.193 301.105 133.92 300.212 133.92C299.439 133.92 298.799 134.193 298.292 134.74C297.785 135.273 297.479 136.053 297.372 137.08Z" fill="#E4EFFF"/>
<ellipse cx="229" cy="145.429" rx="12" ry="5.57143" fill="#C4C4C4"/>
<path d="M228.573 121C223.6 121 219.572 125.028 219.572 130.001C219.572 133.761 227.075 145.008 228.573 145C230.046 145.008 237.574 133.712 237.574 130.001C237.574 125.037 233.545 121 228.573 121Z" fill="#E4EFFF"/>
<rect x="0.5" y="0.5" width="366" height="187" rx="4.5" stroke="#9747FF" stroke-dasharray="10 5"/>
<defs>
<filter id="filter0_d_190_509" x="16" y="17" width="335" height="72" filterUnits="userSpaceOnUse" color-interpolation-filters="sRGB">
<feFlood flood-opacity="0" result="BackgroundImageFix"/>
<feColorMatrix in="SourceAlpha" type="matrix" values="0 0 0 0 0 0 0 0 0 0 0 0 0 0 0 0 0 0 127 0" result="hardAlpha"/>
<feOffset dy="1"/>
<feGaussianBlur stdDeviation="2"/>
<feComposite in2="hardAlpha" operator="out"/>
<feColorMatrix type="matrix" values="0 0 0 0 0 0 0 0 0 0 0 0 0 0 0 0 0 0 0.15 0"/>
<feBlend mode="normal" in2="BackgroundImageFix" result="effect1_dropShadow_190_509"/>
<feBlend mode="normal" in="SourceGraphic" in2="effect1_dropShadow_190_509" result="shape"/>
</filter>
<filter id="filter1_d_190_509" x="179" y="17" width="172" height="72" filterUnits="userSpaceOnUse" color-interpolation-filters="sRGB">
<feFlood flood-opacity="0" result="BackgroundImageFix"/>
<feColorMatrix in="SourceAlpha" type="matrix" values="0 0 0 0 0 0 0 0 0 0 0 0 0 0 0 0 0 0 127 0" result="hardAlpha"/>
<feOffset dy="1"/>
<feGaussianBlur stdDeviation="2"/>
<feComposite in2="hardAlpha" operator="out"/>
<feColorMatrix type="matrix" values="0 0 0 0 0 0 0 0 0 0 0 0 0 0 0 0 0 0 0.15 0"/>
<feBlend mode="normal" in2="BackgroundImageFix" result="effect1_dropShadow_190_509"/>
<feBlend mode="normal" in="SourceGraphic" in2="effect1_dropShadow_190_509" result="shape"/>
</filter>
<filter id="filter2_d_190_509" x="16" y="101" width="335" height="72" filterUnits="userSpaceOnUse" color-interpolation-filters="sRGB">
<feFlood flood-opacity="0" result="BackgroundImageFix"/>
<feColorMatrix in="SourceAlpha" type="matrix" values="0 0 0 0 0 0 0 0 0 0 0 0 0 0 0 0 0 0 127 0" result="hardAlpha"/>
<feOffset dy="1"/>
<feGaussianBlur stdDeviation="2"/>
<feComposite in2="hardAlpha" operator="out"/>
<feColorMatrix type="matrix" values="0 0 0 0 0 0 0 0 0 0 0 0 0 0 0 0 0 0 0.15 0"/>
<feBlend mode="normal" in2="BackgroundImageFix" result="effect1_dropShadow_190_509"/>
<feBlend mode="normal" in="SourceGraphic" in2="effect1_dropShadow_190_509" result="shape"/>
</filter>
<filter id="filter3_d_190_509" x="16" y="101" width="172" height="72" filterUnits="userSpaceOnUse" color-interpolation-filters="sRGB">
<feFlood flood-opacity="0" result="BackgroundImageFix"/>
<feColorMatrix in="SourceAlpha" type="matrix" values="0 0 0 0 0 0 0 0 0 0 0 0 0 0 0 0 0 0 127 0" result="hardAlpha"/>
<feOffset dy="1"/>
<feGaussianBlur stdDeviation="2"/>
<feComposite in2="hardAlpha" operator="out"/>
<feColorMatrix type="matrix" values="0 0 0 0 0 0 0 0 0 0 0 0 0 0 0 0 0 0 0.15 0"/>
<feBlend mode="normal" in2="BackgroundImageFix" result="effect1_dropShadow_190_509"/>
<feBlend mode="normal" in="SourceGraphic" in2="effect1_dropShadow_190_509" result="shape"/>
</filter>
</defs>
</svg>
